<svg width="56" height="51" viewBox="0 0 56 51" fill="none" xmlns="http://www.w3.org/2000/svg">
<path d="M53.7028 36.5767L53.6788 36.6007C50.2699 44.7363 44.2685 44.0403 42.276 43.5604C41.6758 43.4404 41.2437 43.2244 40.7636 43.2484C40.1808 43.2695 39.6189 43.4708 39.1552 43.8244C33.0337 48.6721 27.6564 49.7281 24.9917 49.9441C24.2889 50.0056 23.582 50.0056 22.8792 49.9441L15.2693 48.5282H15.1733L11.2604 48.7681C10.6842 48.8641 8.90778 48.5281 7.70748 47.1122L5.71499 43.9443L2.93031 38.9046C2.9063 38.8326 0.169628 32.7128 1.00983 22.0333L1.03384 21.7453V21.6013L0.937817 21.0733L0.865799 21.0973C0.841793 18.0015 1.15387 11.8097 3.48244 8.73787L5.40291 6.86596C6.0855 6.20372 6.86204 5.64575 7.70748 5.21003L15.5814 1.2022L15.8215 1.01021C16.1124 0.778869 16.4807 0.667409 16.8511 0.698638C17.2215 0.729867 17.5659 0.901425 17.814 1.1782L21.5349 6.38598C21.6785 6.59857 21.8391 6.79922 22.015 6.98595C22.4711 7.53793 23.1193 8.30589 23.0473 8.78587L22.9752 9.28985C22.8207 10.1799 22.3829 10.9964 21.7269 11.6177L15.7014 14.8336L14.1171 15.2176L13.3009 15.1696C12.9408 15.1456 12.8688 14.9776 12.6767 14.2816C12.6287 14.0896 12.5567 13.8497 12.4847 13.6097L12.3406 13.2257L11.1163 13.6817L8.78775 15.1216C8.46672 15.323 8.19459 15.5933 7.99112 15.9129C7.78765 16.2326 7.65796 16.5935 7.61146 16.9695L7.58745 17.9055C7.68347 18.1935 7.68348 18.0015 8.01956 18.6974L11.3324 24.6012C11.8125 25.4651 13.1328 27.961 13.3489 28.897C13.4209 29.257 13.6609 31.1289 13.6369 31.3449V31.5129L13.6129 32.6168C13.615 32.7267 13.658 32.8318 13.7334 32.9117C13.8089 32.9916 13.9114 33.0405 14.021 33.0488H14.069C14.1725 33.041 14.2692 32.9949 14.3403 32.9194C14.4114 32.8439 14.4516 32.7445 14.4531 32.6408L14.4771 32.1369C14.5732 32.1609 14.6692 32.1849 14.7412 32.2089L14.9093 32.2569C15.1573 32.3429 15.3918 32.4642 15.6054 32.6168C15.1924 33.1005 14.8674 33.6528 14.6452 34.2488C14.6104 34.3445 14.6134 34.4499 14.6535 34.5435C14.6936 34.6371 14.7679 34.7119 14.8612 34.7527C14.915 34.7724 14.9722 34.7806 15.0293 34.7767C15.1032 34.776 15.175 34.7526 15.2352 34.7097C15.2953 34.6668 15.3407 34.6064 15.3654 34.5368C15.7975 33.4808 16.2296 33.0728 16.3976 32.9288C16.4969 32.9053 16.5881 32.8555 16.6617 32.7848C17.838 31.3209 19.8305 29.401 22.6632 28.393C24.7626 27.6464 26.9488 27.1705 29.1688 26.9771C29.7193 26.9258 30.2726 26.9097 30.8252 26.9291C31.0892 26.9291 31.3053 26.9531 31.4973 26.9531L31.5934 26.9771C31.6568 26.9891 31.722 26.9891 31.7854 26.9771C32.0495 27.0491 32.4096 27.1451 32.6736 27.2411C32.7269 27.2625 32.7845 27.2708 32.8417 27.2651C32.9195 27.2563 32.9937 27.2273 33.0569 27.181C33.12 27.1347 33.17 27.0727 33.2017 27.0011C33.2345 26.9023 33.2278 26.7948 33.1831 26.7008C33.1383 26.6069 33.059 26.5339 32.9617 26.4971C32.8897 26.4731 32.6736 26.4011 32.4096 26.3291C33.5858 24.6492 38.0509 18.9854 45.5648 18.4095C46.285 18.3615 47.0051 18.3615 47.7493 18.3855C48.1084 18.4174 48.4628 18.4898 48.8056 18.6014C52.2624 19.4654 54.8791 22.7533 55.0231 26.4491V27.2651C55.0471 27.3371 55.8873 32.2809 53.7028 36.5767Z" fill="#D5DCF1"/>
<path d="M35.3381 33.8169L35.3621 33.8409C35.4978 34.1612 35.5789 34.5018 35.6022 34.8489V34.8969C35.6262 35.2004 35.6262 35.5053 35.6022 35.8088C35.5062 36.8647 35.0741 37.9687 34.3299 39.1446C33.6347 40.2162 32.8214 41.2063 31.9053 42.0965C30.9398 43.0611 29.8959 43.9441 28.7845 44.7363C27.543 44.1741 26.3471 43.5161 25.2076 42.7684C24.1316 42.0792 23.1405 41.2656 22.2549 40.3446C21.3974 39.4967 20.7482 38.4617 20.3584 37.3207C20.2578 37.0339 20.1933 36.7356 20.1664 36.4328V36.3608C20.12 36.0167 20.1363 35.6671 20.2144 35.3288V35.2808C20.3448 34.5465 20.6705 33.8607 21.1573 33.2955C21.6441 32.7303 22.274 32.3064 22.9811 32.0683C23.6881 31.8303 24.4462 31.7868 25.1759 31.9424C25.9055 32.0981 26.5798 32.4471 27.1281 32.953L27.6802 33.4809L28.1364 32.857C28.4813 32.3817 28.9225 31.9843 29.4313 31.6907C29.94 31.3972 30.5048 31.214 31.0891 31.1531C31.9959 31.061 32.9076 31.272 33.6817 31.753C33.7585 31.8063 33.8387 31.8544 33.9218 31.897L33.2016 32.809L32.3134 32.089L31.8813 32.617L34.1618 34.4889L34.5939 33.9609L33.7057 33.2409L34.4259 32.353C34.813 32.7841 35.1218 33.2795 35.3381 33.8169Z" fill="#EB5C2C"/>
<path d="M24.5356 34.8487L24.8237 37.7286L23.5994 37.8486L23.3113 34.9687L22.7352 35.0407L23.2153 39.8165L23.7914 39.7445L23.6474 38.3766L24.8717 38.2566L25.0157 39.6245L25.5679 39.5765L25.0877 34.8007L24.5356 34.8487ZM26.4081 35.2087L26.8402 39.4566L27.4163 39.3846L26.9842 35.1367L27.7764 35.0647L27.7284 34.5367L25.5679 34.7527L25.6159 35.2807L26.4081 35.2087ZM29.2408 39.2166L28.8807 35.5447L29.4328 36.3127L30.009 36.2647L30.3931 35.4007L30.7531 39.0486L31.3293 39.0006L30.8492 34.2248L30.273 34.2727L29.6489 35.6407L28.7607 34.4407L28.1845 34.4887L28.6646 39.2646L29.2408 39.2166ZM32.0495 34.1048L31.4733 34.1528L31.9534 38.9286L33.3698 38.8326L33.8019 38.2086L32.4816 38.3526L32.0495 34.1048ZM31.4253 40.1765L25.928 40.8965C25.8753 40.9028 25.8244 40.9199 25.7786 40.9466C25.7327 40.9733 25.6928 41.0092 25.6613 41.0519C25.6299 41.0946 25.6074 41.1433 25.5955 41.195C25.5836 41.2467 25.5823 41.3003 25.5919 41.3525C25.6052 41.4515 25.6538 41.5425 25.7287 41.6086C25.8037 41.6747 25.9 41.7116 26 41.7125H26.048L31.5453 40.9925C31.598 40.9861 31.6489 40.9691 31.6947 40.9424C31.7406 40.9157 31.7805 40.8798 31.812 40.8371C31.8434 40.7944 31.8659 40.7457 31.8778 40.694C31.8897 40.6423 31.891 40.5887 31.8814 40.5365C31.8758 40.4827 31.8594 40.4305 31.8333 40.383C31.8072 40.3356 31.7718 40.2939 31.7293 40.2603C31.6868 40.2268 31.638 40.2021 31.5858 40.1877C31.5336 40.1733 31.479 40.1695 31.4253 40.1765ZM39.0352 28.489L37.0187 28.681L36.8266 26.665L36.7546 25.9931L36.0825 26.0651L36.3705 28.945L35.4583 30.0489L35.3143 28.513L35.2422 27.841L34.5701 27.913L34.8582 30.7929L34.33 31.4409C33.3761 30.7387 32.1962 30.4139 31.0172 30.5289C30.3346 30.5915 29.6738 30.8021 29.0809 31.1461C28.488 31.4901 27.9773 31.9593 27.5844 32.5208C27.0863 32.0551 26.4947 31.7007 25.849 31.4814C25.2033 31.2621 24.5182 31.1828 23.8394 31.2489C22.7974 31.3552 21.8179 31.7962 21.0476 32.5057C20.2773 33.2153 19.7576 34.1552 19.5664 35.1847C19.4879 35.5959 19.4718 36.0166 19.5184 36.4327V36.5287C19.5533 36.8794 19.6257 37.2253 19.7344 37.5606C20.4546 39.9125 22.6391 41.8565 24.6797 43.2484L23.0713 45.1923L21.991 44.3044L21.3428 47.4962L24.5356 46.3683L23.5994 45.6003L25.2318 43.5844C26.3897 44.3153 27.6014 44.9571 28.8567 45.5043C28.8567 45.5043 35.7464 40.9205 36.2505 35.8807C36.2985 35.5303 36.2985 35.1751 36.2505 34.8247V34.7287C36.2212 34.3053 36.1155 33.8906 35.9384 33.5048C35.6855 32.8713 35.3009 32.2987 34.8101 31.8248L35.3383 31.1769L38.219 30.8889L38.147 30.2169L37.4748 30.2889L35.9384 30.4329L36.8506 29.3289L39.7313 29.041L39.6593 28.369L39.0352 28.489ZM35.3383 33.8168L35.3623 33.8408C35.4979 34.161 35.5791 34.5017 35.6023 34.8487V34.8967C35.6264 35.2002 35.6264 35.5052 35.6023 35.8087C35.5063 36.8646 35.0742 37.9686 34.33 39.1446C33.6348 40.2161 32.8216 41.2063 31.9054 42.0964C30.9399 43.0611 29.8961 43.9441 28.7847 44.7363C27.5431 44.1741 26.3472 43.5161 25.2078 42.7684C24.1317 42.0792 23.1407 41.2656 22.2551 40.3445C21.3975 39.4967 20.7484 38.4616 20.3586 37.3206C20.2579 37.0338 20.1934 36.7355 20.1665 36.4327V36.3607C20.1202 36.0166 20.1365 35.667 20.2146 35.3287V35.2807C20.345 34.5463 20.6707 33.8606 21.1574 33.2953C21.6442 32.7301 22.2742 32.3062 22.9812 32.0681C23.6883 31.8301 24.4464 31.7866 25.176 31.9422C25.9057 32.0979 26.58 32.4469 27.1283 32.9528L27.6804 33.4808L28.1365 32.8568C28.4815 32.3815 28.9227 31.9841 29.4314 31.6906C29.9401 31.397 30.505 31.2138 31.0892 31.1529C31.996 31.0608 32.9078 31.2718 33.6819 31.7528C33.7586 31.8061 33.8388 31.8542 33.9219 31.8968L33.2017 32.8088L32.3135 32.0888L31.8814 32.6168L34.162 34.4887L34.5941 33.9608L33.7059 33.2408L34.426 32.3528C34.8132 32.7839 35.1219 33.2793 35.3383 33.8168ZM17.1178 8.42575C17.0747 8.48186 17.0534 8.55166 17.0579 8.62224C17.0623 8.69282 17.0921 8.75943 17.1418 8.80974C17.1872 8.85334 17.2469 8.87893 17.3098 8.88173C17.3474 8.88362 17.3848 8.87577 17.4185 8.85895C17.4521 8.84213 17.4809 8.81692 17.5019 8.78574C18.078 8.11376 17.5739 6.98581 17.5499 6.93781C17.5157 6.87844 17.46 6.83438 17.3944 6.81464C17.3287 6.79491 17.258 6.80098 17.1967 6.83163C17.1354 6.86228 17.0881 6.91518 17.0645 6.97953C17.0409 7.04387 17.0428 7.1148 17.0698 7.1778C17.1898 7.39379 17.4059 8.08977 17.1178 8.42575ZM6.19511 26.1611C6.17175 26.0895 6.12211 26.0294 6.05619 25.993C5.99028 25.9565 5.91299 25.9464 5.83992 25.9647C5.76684 25.9829 5.70341 26.0282 5.66241 26.0914C5.6214 26.1545 5.60588 26.2309 5.61897 26.3051C5.81602 26.9488 5.86439 27.6288 5.76043 28.294C5.65647 28.9591 5.4029 29.592 5.01882 30.1449C4.70674 30.6249 4.44268 30.8649 4.39467 31.4889C4.37065 31.6721 4.37065 31.8576 4.39467 32.0408C2.54621 28.489 3.05033 24.6971 3.53045 20.6893C3.57846 20.3053 2.97832 20.3053 2.93031 20.6653C2.37817 25.3211 1.80203 29.5209 4.61072 33.5528C4.64928 33.6128 4.70943 33.6558 4.77876 33.6728C4.97685 34.1924 5.27911 34.6661 5.66698 35.0647C5.93104 35.3287 6.36315 34.9207 6.09909 34.6567C5.50227 34.0168 5.13131 33.1992 5.04283 32.3288C4.9228 31.2009 5.52294 30.6969 5.97906 29.8089C6.53119 28.729 6.50719 27.313 6.19511 26.1611ZM55.8153 27.217V26.4731C55.6473 22.4412 52.7666 18.8173 48.9976 17.8814C48.9736 17.8814 48.9016 17.8574 48.7576 17.8334C48.7816 17.8094 47.3652 17.5214 45.4928 17.6414C37.1627 18.1934 32.4096 24.8411 31.5213 26.2091C31.3293 26.2091 31.1132 26.1851 30.8732 26.1851C30.321 26.1851 29.7449 26.2091 29.1447 26.2331C26.8516 26.4224 24.5925 26.9064 22.4231 27.673C19.5664 28.681 17.5259 30.5769 16.2536 32.0648H16.2296C15.9102 31.8241 15.5534 31.6376 15.1733 31.5129L14.9813 31.4649C14.826 31.4278 14.6735 31.3797 14.5252 31.3209C14.5012 30.7209 14.2851 29.065 14.2131 28.753C13.925 27.481 12.1726 24.3611 12.1006 24.2171L8.81175 18.3374C8.66772 18.0494 8.54769 17.9534 8.42766 17.7134V17.0894C8.46188 16.8398 8.55058 16.6008 8.68748 16.3893C8.82438 16.1778 9.00613 15.9989 9.21985 15.8655L11.4524 14.4735L11.8605 14.3295L11.9085 14.5215C12.0766 15.1695 12.2926 15.9615 13.2528 16.0095L14.1891 16.0815L15.9895 15.6495L22.135 12.3616L22.207 12.3136C23.0253 11.5709 23.567 10.5724 23.7434 9.48171L23.8394 8.97773C23.9595 8.13776 23.2153 7.2498 22.6151 6.55382C22.4471 6.36183 22.3031 6.16984 22.183 6.00185L18.4381 0.794048L18.4141 0.770049C18.0344 0.330828 17.498 0.0573718 16.9195 0.0080497C16.3409 -0.0412724 15.7659 0.137446 15.3174 0.506059L15.1733 0.626054L7.3714 4.5619C6.45027 5.03968 5.6016 5.64569 4.85078 6.36183L2.9063 8.25776L2.85829 8.30576C1.44194 10.1537 0.529716 13.2016 0.193633 17.3774C0.0373753 19.2532 0.00529806 21.1372 0.0976103 23.0172C-0.526543 33.2888 2.04209 39.0726 2.16212 39.3366L4.97081 44.4244L7.01131 47.6642C8.33163 49.2722 10.3001 49.7521 11.2123 49.6801C11.2329 49.6849 11.2542 49.6852 11.2749 49.6811C11.2956 49.6769 11.3152 49.6684 11.3324 49.6562L15.1493 49.4162L22.7112 50.8321C23.4775 50.9083 24.2494 50.9083 25.0157 50.8321C27.7764 50.6161 33.3218 49.5362 39.6353 44.5443C40.1325 44.2219 40.7278 44.0859 41.3157 44.1604V44.1844C42.2995 44.5051 43.3299 44.6592 44.3645 44.6403C47.2932 44.6403 51.6623 43.4164 54.375 36.9846C56.6315 32.5928 55.9113 27.769 55.8153 27.217ZM14.1411 15.2415L13.3249 15.1935C12.9648 15.1695 12.8928 15.0015 12.7007 14.3055C12.6527 14.1135 12.5807 13.8735 12.5087 13.6336L12.4366 13.4656L12.9168 13.3936C13.3479 14.1147 13.9603 14.7104 14.6932 15.1215L14.1411 15.2415ZM15.8455 14.8095C14.9891 14.4859 14.2464 13.9185 13.709 13.1776C14.1211 13.0294 14.5155 12.8363 14.8852 12.6016L15.0053 12.7936L15.7014 13.5616C15.9654 13.7945 16.31 13.9151 16.6617 13.8975C16.9361 13.8907 17.2093 13.8585 17.4779 13.8015C17.5882 13.7755 17.7007 13.7594 17.814 13.7535L15.8455 14.8095ZM15.4614 12.2176C15.6164 12.1025 15.761 11.974 15.8935 11.8336L15.7975 11.9776C15.7284 12.1052 15.6798 12.2429 15.6534 12.3856L15.4614 12.2176ZM53.7028 36.6247L53.6788 36.6487C50.2699 44.7843 44.2685 44.0884 42.276 43.6084C41.6758 43.4884 41.2437 43.2724 40.7636 43.2964C40.1808 43.3176 39.6189 43.5188 39.1552 43.8724C33.0337 48.7202 27.6564 49.7761 24.9917 49.9921C24.2889 50.0536 23.582 50.0536 22.8792 49.9921L15.2693 48.5762H15.1733L11.2604 48.8162C10.6842 48.9122 8.90777 48.5762 7.70748 47.1602L5.71499 43.9684L2.93031 38.9286C2.9063 38.8566 0.169628 32.7368 1.00983 22.0572L1.03384 21.7692V21.6252L0.937817 21.0973L0.865798 21.1213C0.841793 18.0254 1.15387 11.8336 3.48244 8.76174L5.40291 6.88981C6.0855 6.22758 6.86204 5.66959 7.70748 5.23388L15.5814 1.22603L15.8215 1.03404C16.1124 0.802696 16.4807 0.691235 16.8511 0.722464C17.2215 0.753693 17.5659 0.925252 17.814 1.20203L21.5349 6.40983C21.6785 6.62243 21.8391 6.82307 22.015 7.00981C22.4711 7.56179 23.1193 8.32976 23.0472 8.80974L22.9752 9.31372C22.8557 9.96318 22.5933 10.578 22.207 11.1136L21.2948 11.7616C20.6565 12.2157 19.9278 12.5267 19.1583 12.6736L17.91 12.9136C17.7162 12.9339 17.5238 12.9659 17.3338 13.0096C16.8777 13.0816 16.4696 13.1776 16.2536 12.9616L16.1576 12.8656C16.1302 12.6449 16.1634 12.4209 16.2536 12.2176C16.7817 11.1856 18.8462 10.7297 18.8702 10.7297H18.8942L19.1103 10.7777H19.1583C19.5519 10.8173 19.9491 10.7541 20.311 10.5943C20.6729 10.4344 20.9871 10.1834 21.2228 9.8657C21.4585 9.55871 21.6073 9.19405 21.6538 8.80986C21.7002 8.42568 21.6426 8.03607 21.4869 7.68178L21.3428 7.3458C20.6707 6.00185 19.2063 5.47387 18.126 5.25787C18.406 4.93161 18.5518 4.5114 18.5341 4.08192C18.5314 4.04798 18.5216 4.015 18.5051 3.98517C18.4887 3.95534 18.4661 3.92935 18.4389 3.90892C18.4116 3.88849 18.3803 3.8741 18.3471 3.86668C18.3139 3.85927 18.2794 3.85901 18.2461 3.86593C18.178 3.87691 18.1163 3.91211 18.0722 3.96504C18.028 4.01796 18.0046 4.08504 18.006 4.15392C18.006 4.17792 18.054 4.6099 17.5019 5.16188C17.2469 5.13196 16.9904 5.11594 16.7337 5.11388H16.6377L15.9655 5.28187C16.4745 4.79431 16.8469 4.18204 17.0458 3.50594C17.0649 3.43593 17.0554 3.3612 17.0194 3.29819C16.9833 3.23518 16.9238 3.18905 16.8537 3.16996C16.7837 3.15086 16.7089 3.16036 16.6459 3.19637C16.5829 3.23237 16.5367 3.29193 16.5176 3.36195C16.2697 4.12075 15.7915 4.78345 15.1493 5.25787C15.1118 5.28555 15.0813 5.32173 15.0604 5.36345C15.0396 5.40516 15.0289 5.45123 15.0293 5.49787L13.4209 5.88185C13.3242 5.9052 13.2384 5.96065 13.1773 6.03911C13.1163 6.11758 13.0836 6.21443 13.0848 6.31383C13.09 6.37243 13.1078 6.42921 13.1371 6.48027C13.1663 6.53134 13.2062 6.57548 13.2541 6.60967C13.302 6.64387 13.3567 6.6673 13.4145 6.67838C13.4723 6.68945 13.5318 6.68789 13.5889 6.67382L16.7577 5.90585C16.8622 5.90511 16.9666 5.91313 17.0698 5.92985C17.1136 5.95647 17.1628 5.97288 17.2138 5.97785C17.2477 5.98144 17.2817 5.97294 17.3098 5.95385C18.2221 6.04984 19.9265 6.40983 20.5746 7.70578C20.603 7.75982 20.6271 7.81599 20.6467 7.87377C20.7461 8.12178 20.7871 8.38938 20.7662 8.65577C20.7454 8.92216 20.6634 9.18016 20.5266 9.40971C20.3747 9.61116 20.1734 9.77001 19.9421 9.87091C19.7108 9.97181 19.4574 10.0113 19.2063 9.98569L16.9257 9.52971C16.84 9.51425 16.7516 9.52693 16.6738 9.56587C16.5959 9.6048 16.5327 9.66789 16.4936 9.7457C16.4216 9.8897 14.6452 13.3216 10.8042 12.5776C10.7468 12.5664 10.6877 12.5679 10.6309 12.5819C10.5741 12.5958 10.521 12.622 10.4753 12.6585C10.4296 12.6951 10.3925 12.7411 10.3663 12.7934C10.3402 12.8457 10.3258 12.9031 10.3241 12.9616C10.3236 13.0581 10.3569 13.1518 10.4183 13.2264C10.4797 13.3009 10.5653 13.3516 10.6602 13.3696C11.0083 13.4361 11.3621 13.4683 11.7165 13.4656L11.1163 13.7055L8.78775 15.1455C8.46672 15.3469 8.19459 15.6172 7.99112 15.9368C7.78765 16.2565 7.65796 16.6174 7.61146 16.9934L7.58745 17.9294C7.68347 18.2174 7.68347 18.0254 8.01956 18.7214L11.3324 24.6251C11.8125 25.4891 13.1328 27.985 13.3489 28.921C13.4209 29.2809 13.6609 31.1529 13.6369 31.3689V31.5369L13.6129 32.6408C13.615 32.7507 13.658 32.8558 13.7334 32.9357C13.8089 33.0156 13.9114 33.0645 14.021 33.0728H14.069C14.1725 33.065 14.2692 33.0188 14.3403 32.9433C14.4114 32.8678 14.4516 32.7685 14.4531 32.6648L14.4771 32.1608C14.5732 32.1848 14.6692 32.2088 14.7412 32.2328L14.9093 32.2808C15.1573 32.3669 15.3918 32.4881 15.6054 32.6408C15.2009 33.1174 14.8839 33.6617 14.6692 34.2487C14.6332 34.3428 14.6302 34.4462 14.6607 34.5422C14.6913 34.6381 14.7535 34.7208 14.8372 34.7767C14.9063 34.8041 14.9792 34.8203 15.0533 34.8247C15.1272 34.824 15.199 34.8006 15.2592 34.7577C15.3193 34.7148 15.3647 34.6544 15.3894 34.5847C15.8215 33.5288 16.2536 33.1208 16.4216 32.9768C16.5209 32.9532 16.6121 32.9035 16.6857 32.8328C17.862 31.3689 19.8545 29.4489 22.6872 28.441C24.7866 27.6943 26.9728 27.2185 29.1928 27.025C29.7433 26.9737 30.2966 26.9577 30.8492 26.977C31.1132 26.977 31.3293 27.001 31.5213 27.001L31.6174 27.025C31.6808 27.037 31.746 27.037 31.8094 27.025C32.0735 27.097 32.4336 27.193 32.6976 27.289C32.7509 27.3105 32.8085 27.3187 32.8657 27.313C32.9435 27.3043 33.0177 27.2753 33.0809 27.229C33.144 27.1826 33.194 27.1206 33.2258 27.049C33.2585 26.9503 33.2518 26.8427 33.2071 26.7488C33.1623 26.6549 33.083 26.5819 32.9857 26.5451C32.9137 26.5211 32.6976 26.4491 32.4336 26.3771C33.6098 24.6971 38.0749 19.0333 45.5888 18.4574C46.309 18.4094 47.0291 18.4094 47.7733 18.4334C48.1324 18.4653 48.4868 18.5377 48.8296 18.6494C52.2864 19.5133 54.9031 22.8012 55.0471 26.4971V27.313C55.0231 27.361 55.8873 32.3048 53.7028 36.6247ZM16.4696 11.2336C16.7045 10.966 16.9134 10.6767 17.0938 10.3697L17.814 10.5137C17.3353 10.6916 16.883 10.9338 16.4696 11.2336ZM6.81926 8.04177C6.79526 8.04177 4.58671 8.92973 4.73075 11.1376C4.73137 11.2075 4.7594 11.2743 4.80878 11.3236C4.85817 11.373 4.92497 11.401 4.99481 11.4016H5.01882C5.09099 11.3956 5.15823 11.3626 5.20717 11.3092C5.2561 11.2559 5.28314 11.186 5.28288 11.1136C5.18686 9.28972 6.9633 8.56975 7.03532 8.54575C7.06854 8.53547 7.09912 8.5181 7.12497 8.49484C7.15081 8.47157 7.17129 8.44298 7.18498 8.41103C7.19868 8.37907 7.20527 8.34452 7.2043 8.30977C7.20333 8.27502 7.19482 8.2409 7.17935 8.20976C7.151 8.14199 7.09839 8.08721 7.0318 8.05615C6.96521 8.02508 6.88943 8.01995 6.81926 8.04177ZM18.2941 44.9523C12.3166 47.7362 8.97979 42.9364 8.85976 42.7444C8.80246 42.6553 8.7121 42.5926 8.60855 42.5701C8.50501 42.5476 8.39676 42.5671 8.30763 42.6244C8.21849 42.6817 8.15577 42.772 8.13326 42.8756C8.11075 42.9791 8.1303 43.0873 8.1876 43.1764C8.2116 43.2244 10.5402 46.6083 14.7172 46.6083C16.0744 46.5872 17.4104 46.2676 18.6302 45.6723C18.7246 45.6266 18.7975 45.5458 18.8333 45.4473C18.8692 45.3487 18.8652 45.24 18.8222 45.1443C18.7723 45.0539 18.6913 44.9846 18.5942 44.9493C18.4971 44.914 18.3905 44.9151 18.2941 44.9523ZM49.6218 27.673C49.5677 27.6673 49.513 27.673 49.4612 27.6896C49.4094 27.7063 49.3616 27.7335 49.321 27.7697C49.2803 27.8058 49.2476 27.85 49.225 27.8995C49.2024 27.949 49.1904 28.0026 49.1897 28.057C49.1657 28.321 48.6856 34.2967 42.348 34.6327C42.2943 34.6355 42.2416 34.6489 42.1931 34.6722C42.1446 34.6954 42.1012 34.7281 42.0655 34.7683C42.0297 34.8085 42.0023 34.8554 41.9849 34.9063C41.9675 34.9572 41.9603 35.0111 41.9639 35.0647C41.9683 35.1693 42.0134 35.2681 42.0897 35.3398C42.166 35.4116 42.2673 35.4507 42.372 35.4487H42.396C49.4537 35.0887 50.0059 28.177 50.0059 28.129C50.0115 28.0737 50.0059 28.0178 49.9895 27.9647C49.9731 27.9116 49.9462 27.8623 49.9104 27.8197C49.8745 27.7772 49.8305 27.7423 49.781 27.7171C49.7314 27.6919 49.6773 27.6769 49.6218 27.673ZM15.8935 24.4811C15.8667 24.4638 15.8367 24.4519 15.8054 24.4461C15.774 24.4404 15.7417 24.4409 15.7105 24.4475C15.6793 24.4542 15.6497 24.467 15.6235 24.4851C15.5972 24.5032 15.5747 24.5263 15.5574 24.5531C15.5401 24.5799 15.5282 24.6099 15.5224 24.6412C15.5167 24.6726 15.5171 24.7048 15.5238 24.736C15.5305 24.7672 15.5433 24.7968 15.5614 24.8231C15.5795 24.8493 15.6026 24.8718 15.6294 24.8891L18.7502 26.857C18.7854 26.8831 18.8267 26.8996 18.8702 26.905C18.9103 26.905 18.9495 26.8938 18.9835 26.8726C19.0174 26.8514 19.0447 26.821 19.0623 26.785C19.08 26.7584 19.0922 26.7284 19.0982 26.697C19.1042 26.6655 19.1038 26.6332 19.0971 26.6019C19.0904 26.5706 19.0775 26.5409 19.0591 26.5147C19.0408 26.4884 19.0174 26.4661 18.9903 26.4491L15.8935 24.4811ZM22.4951 18.7454C22.438 18.7663 22.3899 18.8066 22.3593 18.8591C22.3286 18.9117 22.3172 18.9733 22.3271 19.0333L23.7434 24.0251C23.7593 24.0757 23.7914 24.1196 23.8348 24.15C23.8783 24.1804 23.9305 24.1956 23.9835 24.1931H24.0555C24.1126 24.1722 24.1607 24.1319 24.1914 24.0794C24.222 24.0268 24.2334 23.9652 24.2235 23.9052L22.8072 18.9133C22.7991 18.881 22.7843 18.8507 22.7638 18.8244C22.7433 18.7981 22.7176 18.7764 22.6882 18.7606C22.6588 18.7448 22.6265 18.7353 22.5933 18.7326C22.56 18.73 22.5266 18.7343 22.4951 18.7454ZM30.177 23.1132C30.2052 23.1323 30.2392 23.1408 30.273 23.1372C30.32 23.1411 30.3669 23.129 30.4062 23.1028C30.4454 23.0767 30.4746 23.038 30.4891 22.9932L32.0495 19.3453C32.0631 19.2906 32.057 19.2327 32.0322 19.182C32.0075 19.1313 31.9656 19.0909 31.914 19.068C31.8624 19.0451 31.8044 19.0411 31.7502 19.0567C31.6959 19.0723 31.6489 19.1065 31.6174 19.1533L30.057 22.8012C30.0428 22.8293 30.0346 22.8601 30.0331 22.8915C30.0315 22.923 30.0365 22.9544 30.0478 22.9838C30.0591 23.0132 30.0765 23.0399 30.0987 23.0621C30.121 23.0844 30.1476 23.1018 30.177 23.1132ZM27.0322 23.3292C27.0659 23.3293 27.0992 23.3224 27.13 23.3089C27.1608 23.2954 27.1884 23.2755 27.2111 23.2506C27.2337 23.2257 27.2508 23.1964 27.2614 23.1644C27.2719 23.1325 27.2757 23.0987 27.2723 23.0652L27.1042 20.5453C27.1012 20.5137 27.092 20.4829 27.0771 20.4549C27.0622 20.4268 27.0419 20.402 27.0173 20.3818C26.9928 20.3616 26.9645 20.3465 26.934 20.3373C26.9036 20.328 26.8717 20.3249 26.8401 20.3281C26.8084 20.3313 26.7777 20.3406 26.7498 20.3557C26.7218 20.3707 26.697 20.3912 26.677 20.4158C26.6569 20.4405 26.6419 20.4688 26.6328 20.4993C26.6238 20.5297 26.6208 20.5617 26.6241 20.5933L26.7922 23.1132C26.7981 23.1726 26.826 23.2276 26.8704 23.2676C26.9148 23.3075 26.9725 23.3295 27.0322 23.3292ZM21.2468 25.0571C21.2978 25.0521 21.3471 25.0357 21.3908 25.0091C21.4382 24.9675 21.4672 24.9089 21.4717 24.846C21.4762 24.7832 21.4558 24.7211 21.4149 24.6731L19.3263 22.1292C19.3074 22.101 19.2826 22.0771 19.2538 22.0592C19.2249 22.0412 19.1925 22.0296 19.1588 22.0251C19.1251 22.0206 19.0908 22.0233 19.0582 22.0331C19.0257 22.0428 18.9955 22.0594 18.9698 22.0816C18.9441 22.1039 18.9234 22.1314 18.9092 22.1622C18.8949 22.1931 18.8873 22.2266 18.887 22.2606C18.8867 22.2946 18.8935 22.3283 18.9072 22.3594C18.9209 22.3906 18.941 22.4184 18.9662 22.4412L21.0548 24.9851C21.107 25.0331 21.1759 25.0589 21.2468 25.0571Z" fill="#1F1F40"/>
</svg>
