<svg width="56" height="51" viewBox="0 0 56 51" fill="none" xmlns="http://www.w3.org/2000/svg">
<path d="M36.3031 44.2573C36.3031 44.2573 32.4076 46.1029 28.6198 42.6478C26.7474 40.931 29.3515 30.0077 25.4561 26.2522C23.7558 24.5998 19.4515 21.7026 21.2378 18.7411C23.0887 15.6938 22.0341 11.9597 21.496 10.3502C21.4722 10.3111 21.4575 10.267 21.453 10.2214C22.2708 9.23427 22.443 7.13118 22.4645 5.75773C22.461 5.61492 22.4181 5.47584 22.3404 5.35579C22.2628 5.23574 22.1534 5.13936 22.0244 5.07726C21.8954 5.01515 21.7517 4.98972 21.6091 5.00376C21.4665 5.0178 21.3306 5.07077 21.2163 5.15684C21.0283 5.30415 20.8553 5.46947 20.6997 5.65043C20.0434 6.40124 19.242 7.01244 18.3434 7.44753C17.4448 7.88261 16.4676 8.13266 15.4699 8.18273C15.3975 8.17921 15.325 8.18644 15.2547 8.20419C14.027 8.25983 12.8005 8.07017 11.6474 7.64635C10.4942 7.22253 9.43769 6.57311 8.53989 5.73627L8.43228 5.65043C8.31445 5.54954 8.17075 5.48342 8.01731 5.45949C7.86387 5.43556 7.70678 5.45478 7.56369 5.51497C7.4206 5.57516 7.29718 5.67395 7.2073 5.80024C7.11741 5.92652 7.06463 6.0753 7.05488 6.22985C7.01183 7.43162 7.0764 9.19135 7.74358 10.1356C7.39944 10.8075 7.14615 11.5219 6.99031 12.2602C6.45226 14.9427 7.91575 17.475 7.91575 19.6425C7.90588 21.4199 7.45485 23.1672 6.60292 24.7285C6.60292 24.7285 1.13636 35.9951 1.13636 43.8281C1.13636 44.4075 -2.45779 46.5535 3.1379 47.8411C13.0164 50.1159 16.7612 48.2703 21.9265 49.9871C23.1102 50.3734 26.403 51.0602 30.2555 50.9958C35.7668 50.8656 41.2618 50.3421 46.6982 49.4292C46.6982 49.4292 52.8319 50.867 55.931 48.5708C56.5552 48.0987 52.7673 46.7037 51.6267 46.575C42.566 45.3947 36.3031 44.2573 36.3031 44.2573Z" fill="#D5DCF1"/>
<path d="M0 44.4656H56V44.8903H0V44.4656Z" fill="#8A94AA"/>
<path d="M51.3786 43.2965L48.9572 43.254C48.1954 43.2436 47.444 43.0772 46.7501 42.7652L45.4429 42.1701L43.7929 40.6399L43.7715 40.7461H43.7286C43.9095 39.8474 44.0383 38.9391 44.1144 38.0257C44.3501 35.1991 43.6644 33.4351 42.1429 32.3511C41.1786 31.671 41.2215 29.5457 40.7501 27.8455C40.3215 26.2727 40.2786 24.5725 38.8429 22.3409C38.4358 21.427 37.3001 20.1306 36.8072 19.2167C36.5929 18.8341 36.7001 18.4941 36.6786 18.2816C36.4885 18.543 36.2809 18.7915 36.0572 19.0254L32.1358 20.3856L32.1144 20.4069L30.8501 20.8744H30.2072L29.1572 20.4069L29.0501 20.1943L29.0929 20.4069L25.1072 19.0254C25.1072 19.0254 25.0215 18.9404 24.8929 18.7916C24.6786 19.2805 24.2501 20.2156 23.8429 21.1932C21.7429 23.3186 21.2929 26.6978 21.1429 28.1005C21.0358 29.2907 20.3715 30.8209 20.0072 31.6285C19.7501 32.2024 18.7858 33.1588 18.5715 33.4776C17.8429 34.604 17.7358 35.4116 17.9501 38.0045C18.3572 42.7014 20.0287 45.9744 20.0287 45.9744L20.3072 48.291L23.7358 48.461L31.0001 48.1422L38.2644 48.461L41.3501 48.546L42.0786 47.6534C42.3786 47.8872 42.4215 47.6534 42.6786 47.8022C43.6644 48.3973 46.6001 49.0561 48.4858 48.8861C50.2644 48.7373 52.1072 48.3335 52.5786 47.3984C53.7572 45.1243 52.7929 43.5941 51.3786 43.2965Z" fill="#EB5C2C"/>
<path d="M42.1214 46.0377C41.5643 44.3587 38.2857 44.8263 38.0286 44.89C37.4714 45.0388 36.7643 45.3789 36.5286 45.1876C36.5108 45.4293 36.5252 45.6722 36.5714 45.9102C36.4598 45.9406 36.3443 45.9549 36.2286 45.9527C35.8643 45.8889 35.6286 45.5914 34.8786 45.5489C34.1286 45.5064 34.0428 45.7402 33.4428 46.059C33.0571 46.2715 31.8143 45.4001 31.2143 46.7603C31 47.2704 31.3 48.8006 31.3 48.8006C31.3778 49.067 31.5537 49.2945 31.7928 49.4382C32.1143 49.6083 32.6714 49.6083 33.25 49.502C33.5286 49.4382 33.6786 49.2469 33.8286 49.2469C33.9786 49.2469 34.0857 49.4595 34.3428 49.5232C35.5214 49.8208 36.0786 49.2469 36.0786 49.2469C36.0786 49.2469 36.4857 49.6295 37.3214 49.4807C37.8571 49.3745 37.9214 49.0132 37.9214 49.0132L38.0071 48.5243C38.5447 48.6306 39.0981 48.6306 39.6357 48.5243L40 48.4393C40 48.4393 41.4571 49.0344 41.8643 48.2268C41.9928 48.0355 42.5714 47.4192 42.1214 46.0377ZM24.7643 46.8666C24.9262 46.3288 25.0057 45.77 25 45.2088C24.7643 45.4001 24.0571 45.0601 23.5 44.9113C23.2214 44.8475 19.9643 44.3799 19.4071 46.059C18.9571 47.4404 19.5357 48.0355 19.6428 48.248C20.05 49.0557 21.5071 48.4606 21.5071 48.4606L21.8714 48.5456C22.4444 48.6663 23.0373 48.659 23.6071 48.5243L23.6714 48.5031C24.057 48.0979 24.3817 47.6398 24.6357 47.1429C24.6786 47.0366 24.7214 46.9516 24.7643 46.8666Z" fill="#EEA65B"/>
<path d="M21.0143 47.6319C20.9843 47.6328 20.9547 47.6254 20.9286 47.6106C20.9017 47.6012 20.8769 47.5865 20.8558 47.5674C20.8346 47.5482 20.8176 47.5252 20.8056 47.4994C20.7936 47.4737 20.787 47.4458 20.786 47.4175C20.7851 47.3891 20.7898 47.3609 20.8 47.3344C20.918 47.0265 20.918 46.6863 20.8 46.3783C20.7916 46.3504 20.7888 46.3212 20.7918 46.2922C20.7947 46.2632 20.8034 46.2351 20.8173 46.2094C20.8313 46.1838 20.8502 46.1611 20.8729 46.1427C20.8957 46.1243 20.9219 46.1105 20.95 46.1021C20.9782 46.0938 21.0077 46.091 21.0369 46.0939C21.0662 46.0969 21.0945 46.1055 21.1204 46.1193C21.1463 46.1331 21.1691 46.1518 21.1877 46.1744C21.2063 46.197 21.2202 46.223 21.2286 46.2509C21.3787 46.6482 21.3787 47.0859 21.2286 47.4832C21.2145 47.5279 21.1858 47.5668 21.147 47.5937C21.1082 47.6206 21.0616 47.634 21.0143 47.6319ZM22.7072 47.8019C22.677 47.805 22.6466 47.7975 22.6215 47.7806C22.5709 47.7574 22.5314 47.7156 22.5114 47.664C22.4914 47.6125 22.4925 47.5552 22.5143 47.5044C22.7715 46.952 22.6215 46.612 22.5572 46.4846C22.5431 46.4663 22.5356 46.4438 22.5358 46.4208C22.5159 46.3673 22.5182 46.3081 22.5423 46.2563C22.5665 46.2045 22.6103 46.1643 22.6643 46.1446C22.7183 46.1249 22.778 46.1273 22.8302 46.1512C22.8825 46.1751 22.923 46.2186 22.9429 46.2721C22.9429 46.2777 22.9452 46.2831 22.9492 46.2871C22.9532 46.2911 22.9586 46.2933 22.9643 46.2933C23.0745 46.5087 23.1283 46.748 23.1208 46.9893C23.1133 47.2306 23.0448 47.4662 22.9215 47.6744C22.8993 47.7117 22.8681 47.7429 22.8307 47.7652C22.7933 47.7874 22.7508 47.8 22.7072 47.8019ZM40.5143 47.6319C40.4724 47.6353 40.4305 47.6246 40.3955 47.6015C40.3605 47.5783 40.3344 47.5441 40.3215 47.5044C40.2367 47.3099 40.1929 47.1002 40.1929 46.8883C40.1929 46.6763 40.2367 46.4666 40.3215 46.2721C40.3299 46.2442 40.3438 46.2182 40.3624 46.1956C40.381 46.1731 40.4038 46.1543 40.4297 46.1405C40.4556 46.1267 40.4839 46.1181 40.5131 46.1152C40.5424 46.1122 40.5719 46.115 40.6 46.1234C40.6282 46.1317 40.6544 46.1455 40.6772 46.1639C40.6999 46.1824 40.7188 46.205 40.7327 46.2307C40.7467 46.2563 40.7554 46.2844 40.7583 46.3134C40.7613 46.3424 40.7585 46.3717 40.75 46.3996C40.6864 46.5511 40.6536 46.7135 40.6536 46.8776C40.6536 47.0417 40.6864 47.2042 40.75 47.3557C40.7603 47.3822 40.765 47.4104 40.7641 47.4387C40.7631 47.4671 40.7565 47.4949 40.7445 47.5207C40.7325 47.5464 40.7154 47.5695 40.6943 47.5886C40.6732 47.6077 40.6484 47.6224 40.6215 47.6319H40.5143ZM38.8215 47.8019C38.7804 47.8012 38.7404 47.7888 38.7062 47.7662C38.672 47.7436 38.6451 47.7117 38.6286 47.6744C38.5151 47.4629 38.4522 47.2283 38.4448 46.9888C38.4373 46.7493 38.4856 46.5114 38.5858 46.2933C38.5858 46.2721 38.5858 46.2721 38.6072 46.2721C38.6167 46.2454 38.6316 46.2208 38.6508 46.1999C38.6701 46.1789 38.6934 46.162 38.7194 46.1501C38.7453 46.1383 38.7734 46.1317 38.802 46.1307C38.8306 46.1298 38.8591 46.1345 38.8858 46.1446C38.9127 46.1541 38.9375 46.1688 38.9586 46.1879C38.9797 46.207 38.9968 46.2301 39.0088 46.2559C39.0207 46.2816 39.0274 46.3095 39.0284 46.3378C39.0293 46.3661 39.0245 46.3944 39.0143 46.4208L38.9929 46.4846C38.9111 46.6439 38.8721 46.8214 38.8796 47.0001C38.8871 47.1787 38.9409 47.3524 39.0358 47.5044C39.0576 47.5552 39.0587 47.6125 39.0387 47.664C39.0187 47.7156 38.9792 47.7574 38.9286 47.7806C38.8957 47.7978 38.8585 47.8052 38.8215 47.8019Z" fill="#1F1F3F"/>
<path d="M32.3074 35.4965C33.2931 35.3477 33.786 33.52 34.6431 33.8388C35.1458 34.0285 35.672 34.15 36.2074 34.2001C36.2074 34.2001 36.6146 33.1587 37.3003 33.1374C37.986 33.1162 38.7788 33.8388 38.7788 33.8388L38.1788 36.3892L37.2788 34.9439C37.2788 34.9439 36.3574 36.0704 36.0574 36.0066C35.7574 35.9428 35.286 35.4965 34.9431 35.4115C34.6003 35.3265 31.3431 37.3668 31.4503 37.0055C31.5574 36.6442 32.3074 35.4965 32.3074 35.4965ZM32.1146 40.9161C32.8646 40.8735 33.2717 39.6834 33.9146 39.9597C34.2918 40.1208 34.6876 40.235 35.0931 40.2997C35.0931 40.2997 35.4146 39.6196 35.9503 39.6621C36.486 39.7046 37.0646 40.236 37.0646 40.236L36.5503 41.9149L35.886 40.8948C35.886 40.8948 35.1574 41.5961 34.9431 41.5111C34.7288 41.4261 34.3646 41.1073 34.086 41.0223C33.8074 40.9373 31.3003 42.085 31.386 41.8512C31.5146 41.6387 32.1146 40.9161 32.1146 40.9161ZM29.7146 41.8937C28.9646 41.8724 28.5574 40.661 27.9146 40.9373C27.5373 41.0984 27.1415 41.2126 26.736 41.2774C26.736 41.2774 26.4146 40.5973 25.8788 40.6398C25.3431 40.6823 24.7646 41.2136 24.7646 41.2136L25.2788 42.8926L25.9431 41.8724C25.9431 41.8724 26.6717 42.5738 26.886 42.4888C27.1003 42.4038 27.4646 42.085 27.7431 42C28.0217 41.9149 30.5288 43.0626 30.4431 42.8288L29.7146 41.8937ZM29.7788 35.3265C28.7074 35.2627 28.1074 33.4562 27.186 33.8388L25.5146 34.3276C25.5146 34.3276 25.0431 33.3075 24.2931 33.35C23.8866 33.3584 23.4887 33.4681 23.136 33.6688L23.4788 36.7079L24.4003 35.1777C24.4003 35.1777 24.8074 35.9428 24.9146 35.6665C25.0646 35.3052 25.5788 36.1979 25.7503 36.1341C26.0717 36.0491 26.5646 35.5603 26.9288 35.4328C27.1217 35.369 29.3288 37.2393 28.8788 36.3466C28.6217 35.8366 30.8288 36.9205 30.7646 36.7292C30.6788 36.3891 29.7788 35.3265 29.7788 35.3265ZM35.1574 19.3229L32.1146 20.3856L32.0931 20.4068L30.8288 20.8744H30.186L29.136 20.4068L29.0288 20.1943L29.0717 20.4068L26.886 19.6417C26.4574 20.2581 25.8788 20.4493 25.3431 22.2346C25.1074 23.0422 26.5646 22.4259 26.6717 22.6597C26.7788 22.8935 25.386 26.4215 26.5431 25.5076C26.8217 25.2738 27.4217 24.8487 27.8503 24.5512C27.9073 24.5123 27.9725 24.4867 28.0409 24.4764C28.1093 24.4662 28.1792 24.4715 28.2453 24.492C28.3113 24.5124 28.3718 24.5475 28.4222 24.5946C28.4726 24.6417 28.5115 24.6995 28.536 24.7637C28.8574 25.7414 29.5217 27.6329 29.8431 27.9517C30.2931 28.3767 30.7646 26.2514 30.9146 27.2716C31.0217 27.9304 31.4931 26.719 31.7931 25.7839C31.8174 25.7076 31.864 25.6402 31.9269 25.5902C31.9898 25.5402 32.0663 25.5099 32.1466 25.5031C32.227 25.4963 32.3075 25.5132 32.3781 25.5519C32.4487 25.5905 32.5061 25.6491 32.5431 25.7201L33.1646 26.804C33.1646 26.804 33.1646 24.2324 33.8288 23.8286C34.0646 23.6798 35.0503 25.5501 35.2003 25.2525C35.2646 25.1038 35.2003 24.4024 35.0931 23.6798C35.0714 23.5407 35.0892 23.3984 35.1444 23.2688C35.1996 23.1391 35.29 23.0272 35.4056 22.9456C35.5212 22.864 35.6575 22.8159 35.7991 22.8067C35.9407 22.7975 36.082 22.8275 36.2074 22.8935C36.8503 23.2335 37.4074 23.446 37.0003 22.9785C36.4003 22.2134 36.036 20.0243 35.1574 19.3229ZM44.5431 43.9977C44.6503 44.0403 46.8146 45.1242 46.686 45.2729C46.5574 45.4217 46.2146 45.613 46.1717 45.7405C46.1288 45.868 46.8146 46.6756 46.9646 46.8882C47.1146 47.1007 46.686 47.3132 46.4503 47.4407C46.2146 47.5683 45.2503 47.3557 45.7646 47.8658C46.0885 48.1963 46.3562 48.5767 46.5574 48.9922C46.5574 48.9922 46.3431 48.971 45.936 48.9072C45.5288 48.8435 43.6217 48.3759 43.3003 48.2484C42.8201 48.0278 42.3611 47.7647 41.9288 47.462C41.6503 47.2495 40.4931 45.8255 40.4931 45.8255C40.4931 45.8255 39.9788 44.7204 39.9574 44.4653C39.946 44.0085 39.9892 43.5519 40.086 43.1051L41.2646 42.255C41.2646 42.255 41.4146 41.9575 42.036 42.4463C42.6574 42.9351 44.1146 43.9765 44.1146 43.9765L44.5431 43.9977Z" fill="#EEA65B"/>
<path d="M30.5717 22.4474C30.5717 22.4474 32.6503 22.2986 33.036 21.831C34.9432 19.6206 36.786 19.0892 36.786 19.0892L36.5074 18.5153L30.5289 19.6418L25.0217 18.5366V19.153C25.0217 19.153 26.4574 19.6418 28.4074 21.8523C28.8146 22.3411 30.5289 22.4474 30.5717 22.4474Z" fill="#A03A22"/>
<path d="M39.3358 10.6091C39.2929 12.6707 39.0144 14.796 37.9429 16.5812C37.4715 17.3888 37.2786 17.9839 36.5072 18.5578C35.8644 19.0253 34.4286 18.749 33.4001 19.5779C33.4001 19.5779 31.9644 20.7893 30.7215 20.7256C29.5215 20.6405 28.3215 19.6629 28.3215 19.6629C27.7215 19.0891 26.2858 18.9828 25.4072 18.6853C24.3786 18.3027 22.7286 15.1573 22.6215 14.5834L22.3429 13.5208C21.9786 12.6919 21.9144 11.778 21.4644 10.9492C21.1588 10.4946 20.9341 9.99139 20.8001 9.46145C20.5644 8.31378 20.2858 7.14486 20.0715 5.9972C19.7072 4.29696 19.0001 1.51281 20.1572 0.0675991C20.1572 0.0675991 21.4644 -0.229943 23.7786 2.1929C24.8929 3.17054 26.0072 5.04081 27.4001 5.57214C27.6804 5.27789 27.9315 4.95762 28.1501 4.61575C28.4715 4.87079 29.0715 5.23209 29.5429 5.14708C29.8644 5.14708 30.1001 4.84953 30.3358 4.84953C30.5286 4.84953 30.8501 5.04081 30.9358 5.04081C31.7715 5.38086 31.7286 4.65826 32.2215 4.70076C32.6929 4.70076 32.6929 5.61464 33.7429 5.04081L34.2572 4.99831C35.5644 3.63811 38.2001 0.131358 40.4501 0.620178C42.4429 1.109 40.0858 8.7601 39.4215 10.6304" fill="#EB5C2C"/>
<path d="M41.3931 1.49175C40.986 -0.144749 39.0788 0.471596 38.0503 1.1517C37.1473 1.78584 36.3267 2.52825 35.6074 3.36204C35.286 3.70209 34.9645 4.08465 34.6217 4.46721L34.2145 4.93478C34.2574 4.89227 33.936 4.97729 33.8074 4.97729C33.5288 5.01979 33.336 5.23233 33.0574 5.12606C32.908 5.02993 32.7712 4.9157 32.6503 4.78601C32.5312 4.69293 32.384 4.64231 32.2324 4.64231C32.0808 4.64231 31.9336 4.69293 31.8145 4.78601C31.6217 4.97729 31.4931 5.12606 31.1717 5.04105C30.9412 4.92471 30.6962 4.83896 30.4431 4.78601C30.2074 4.7435 30.0145 4.89227 29.8431 4.97729C29.3717 5.27483 28.7288 4.87102 28.3645 4.59473C28.3384 4.57235 28.3079 4.55561 28.2749 4.54557C28.242 4.53553 28.2072 4.53241 28.173 4.53641C28.1387 4.54041 28.1056 4.55144 28.0759 4.56879C28.0462 4.58615 28.0204 4.60946 28.0002 4.63723C27.8195 4.92 27.619 5.18987 27.4002 5.44486C26.3288 4.91353 25.5574 3.91462 24.8502 3.04324C24.1754 2.29556 23.4448 1.59932 22.6645 0.960421C22.2969 0.626528 21.8771 0.3538 21.4217 0.152797C20.9931 -0.0384821 20.6717 0.00402425 20.2217 0.00402425C19.8574 0.00402425 19.7074 0.535356 19.5788 0.811648C19.3894 1.3366 19.2951 1.89063 19.3002 2.44815C19.3002 3.59583 19.536 4.72225 19.7717 5.86992L20.1788 7.95274C20.3502 8.71786 20.4145 9.50423 20.736 10.2268C21.0574 10.9495 21.4645 11.5871 21.7002 12.3522C21.8869 12.8745 22.0443 13.4066 22.1717 13.9462C22.3151 14.4911 22.5014 15.0241 22.7288 15.5402C23.2431 16.5603 23.8431 17.623 24.636 18.4731C25.386 19.2807 26.6717 19.1107 27.6145 19.5783C28.536 20.2159 29.5217 20.8747 30.6574 21.0235C31.8145 21.1298 32.886 20.3434 33.8503 19.6208C34.6003 19.2807 35.4574 19.2807 36.2503 19.0044C37.0431 18.7281 37.4931 17.8568 37.8574 17.2192C38.4124 16.2784 38.8444 15.2714 39.1431 14.2225C39.357 13.308 39.4861 12.3761 39.5288 11.4383C39.5477 11.2513 39.5836 11.0663 39.636 10.8857C40.1785 9.43805 40.6153 7.95357 40.9431 6.44376C41.3074 4.76475 41.736 3.00073 41.3931 1.49175ZM40.986 3.51081C40.8846 4.44731 40.7271 5.37701 40.5145 6.29499C40.1898 7.69681 39.7892 9.08027 39.3145 10.4394C39.2288 10.4819 39.1431 11.077 39.1217 11.2895C39.078 12.1393 38.9705 12.9847 38.8003 13.8186C38.5499 14.8502 38.1455 15.8388 37.6003 16.7516C37.1931 17.4742 36.8074 18.3456 35.886 18.5794C35.4788 18.6856 35.0931 18.7281 34.7288 18.8132C34.7283 18.7765 34.7173 18.7407 34.6972 18.7099C34.6771 18.6791 34.6486 18.6545 34.6151 18.639C34.5815 18.6234 34.5443 18.6176 34.5076 18.6221C34.4708 18.6266 34.4361 18.6412 34.4074 18.6644C34.0431 18.8982 33.2503 19.472 33.2503 19.4933C32.5003 20.0246 31.6431 20.5134 30.7431 20.4709C30.0788 20.4284 29.3931 20.0459 28.8788 19.7058C28.7074 19.6208 28.236 19.2382 28.1502 19.217C27.8288 18.9832 27.5502 18.7919 27.2288 18.5794C27.0574 18.4731 26.9074 18.6219 26.9074 18.8132C26.586 18.7281 26.3074 18.7069 26.0288 18.6219C25.1931 18.4306 24.7431 17.8143 24.2717 17.1342C23.532 16.0577 22.9813 14.8648 22.6431 13.6061C22.536 13.181 22.3645 12.7772 22.236 12.3097C22.0922 11.6927 21.846 11.1037 21.5074 10.5669C21.1002 9.9293 20.9931 9.22794 20.8431 8.50533C20.6717 7.82523 20.5217 7.10261 20.4145 6.38C20.2217 5.31734 19.986 4.29718 19.8574 3.19201C19.7717 2.23562 19.7717 1.17295 20.3288 0.344076C20.5795 0.316899 20.8329 0.331265 21.0788 0.386583C21.4766 0.523373 21.8414 0.740476 22.1502 1.02418C22.7074 1.44925 23.1788 1.93807 23.6931 2.38439C24.8931 3.40455 26.136 5.65739 27.486 5.89118C27.7946 5.62734 28.0618 5.31932 28.2788 4.97729C28.6206 5.22399 29.0177 5.38447 29.436 5.44486C29.6611 5.46967 29.888 5.41716 30.0788 5.29609C30.4431 5.10481 30.5074 5.14731 30.8717 5.33859C31.019 5.42591 31.1888 5.46842 31.3603 5.46086C31.5317 5.45331 31.6971 5.39601 31.836 5.29609C31.9431 5.21107 32.0717 5.04105 32.2431 5.04105C32.3503 5.04105 32.5645 5.29609 32.6503 5.33859C32.7783 5.43928 32.9302 5.50581 33.0915 5.53185C33.2527 5.55789 33.4181 5.54258 33.5717 5.48736L34.0431 5.33859C34.1845 5.35378 34.3271 5.32401 34.4503 5.25358C35.1145 4.53097 35.7574 3.76585 36.4431 3.08575C37.1931 2.27812 38.0717 1.49175 39.1645 1.06669C39.8074 0.811648 40.6431 0.726635 40.9217 1.44925C41.136 2.06559 41.0717 2.80945 40.986 3.51081Z" fill="#1F1F3F"/>
<path d="M36.5502 10.9496C36.4991 10.7678 36.3978 10.6038 36.2577 10.4761C36.1176 10.3484 35.9443 10.2621 35.7573 10.227C35.4359 10.142 35.1144 10.227 34.8359 10.1845C34.8787 9.92951 35.0716 9.07945 34.4716 9.16446C34.1502 9.16446 33.8287 10.0783 33.6359 10.312C33.3144 10.7796 33.1216 10.652 33.0787 10.1208C32.993 9.58948 33.2716 8.86694 32.843 8.76068C32.5216 8.71818 32.2859 9.33447 32.1787 9.71699C32.1573 9.86575 32.0073 9.99326 32.0073 9.31322L31.7073 9.86575C31.4716 11.9059 30.7644 11.5446 30.7644 11.5446H30.5502C30.5502 11.5446 29.7573 11.9059 29.5216 9.86575L29.243 9.37697C29.2216 9.61073 29.1787 9.78075 29.1144 9.67449C29.0287 9.29197 28.6002 8.52692 28.3644 8.65442C27.9359 9.03695 28.2787 9.56823 28.1716 10.0995C28.0644 10.6308 27.893 10.7371 27.6144 10.2483C27.443 10.0145 27.1859 9.1007 26.8644 9.0582C26.3073 8.97319 26.4573 9.82325 26.4573 10.0783C26.1516 10.0419 25.8437 10.0277 25.5359 10.0358C25.3491 10.0675 25.1738 10.1469 25.0273 10.2661C24.8808 10.3854 24.768 10.5403 24.7002 10.7158C24.6573 10.8008 24.7002 13.6485 27.3359 13.691C27.7167 13.7056 28.0964 13.6404 28.4502 13.4997C28.6644 13.436 28.8359 13.266 29.0287 13.351L29.7787 12.7347L30.3787 11.6084H30.9573L31.5787 12.7347L32.3716 13.3722H32.393C32.7573 13.521 33.2716 13.7972 33.7002 13.7972C35.0502 13.7972 36.2502 13.266 36.6573 12.0546C36.7644 12.0121 36.593 11.0346 36.5502 10.9496Z" fill="#EEA65B"/>
<path d="M25.4717 11.3746C25.4717 11.3746 27.1431 11.2258 27.5931 11.4596C27.8365 11.5889 28.0499 11.7673 28.2196 11.9833C28.3894 12.1993 28.5117 12.4481 28.5788 12.7137C28.3638 12.7978 28.1415 12.8618 27.9145 12.905C27.638 12.9502 27.3589 12.9786 27.0788 12.9901C25.7074 12.82 25.4717 11.3746 25.4717 11.3746ZM35.9931 11.6084C35.9931 11.6084 34.3645 11.3746 33.8717 11.5659C32.9502 11.9485 32.8002 12.905 32.8002 12.7775C32.8002 12.7775 33.3145 12.9688 33.4431 13.0113C33.7152 13.086 33.9966 13.1218 34.2788 13.1176C35.6717 13.0538 35.9931 11.6084 35.9931 11.6084ZM32.886 12.735C32.9931 12.7775 33.4002 12.9263 33.5288 12.9688C33.7653 13.0385 34.0107 13.0743 34.2574 13.0751H34.3431C35.5431 13.0326 35.9502 11.821 35.9717 11.6297C35.5108 11.559 35.0452 11.5235 34.5788 11.5234C34.3613 11.5165 34.1441 11.5453 33.936 11.6084C33.6867 11.7057 33.4629 11.8575 33.281 12.0526C33.0992 12.2476 32.9642 12.4809 32.886 12.735Z" fill="white"/>
<path d="M27.6358 11.2897C27.4429 11.2047 27.1215 11.1834 26.5643 11.1834C26.0072 11.1834 25.4929 11.2259 25.4501 11.2259H25.3V11.3747C25.3 11.3747 25.6215 12.9261 27.0572 13.0749C27.3649 13.0775 27.6725 13.0633 27.9786 13.0324C28.0858 12.9899 28.7286 12.8411 28.7286 12.8411C28.7286 12.8411 28.7072 11.6722 27.6358 11.2897ZM27.8715 12.7136C27.6276 12.7814 27.3744 12.8101 27.1215 12.7986C26.8727 12.7816 26.6322 12.7026 26.4225 12.5688C26.2127 12.4351 26.0404 12.2509 25.9215 12.0335C25.8064 11.8747 25.7261 11.6937 25.6858 11.5022C25.9 11.5022 26.2 11.4597 26.6072 11.4172H26.8643C26.8215 11.7147 26.7572 12.5011 27.0786 12.4373C27.4 12.3735 27.4429 11.7997 27.4643 11.5022C27.4806 11.5044 27.4956 11.5119 27.5072 11.5234C27.9238 11.7358 28.2394 12.1023 28.3858 12.5436C28.2229 12.623 28.0499 12.6802 27.8715 12.7136ZM36.0786 11.4384C36.0358 11.4384 35.2429 11.3322 34.6 11.3322C34.3544 11.3271 34.1092 11.3557 33.8715 11.4172C33.6166 11.523 33.3863 11.6794 33.1947 11.8767C33.0031 12.0741 32.8542 12.3083 32.7572 12.5648L32.6929 12.9048L33.4858 13.1599C33.7298 13.2285 33.9821 13.2642 34.2358 13.2661H34.3643C35.8 13.1811 36.2072 11.6297 36.2072 11.6297L36.25 11.4809L36.0786 11.4384ZM35.5215 12.246C35.2858 12.8623 34.2358 12.9686 34.2143 12.9686C33.9896 12.958 33.7668 12.9224 33.55 12.8623C33.4643 12.8198 33.2715 12.7561 33.0786 12.6711C33.2463 12.2441 33.5776 11.9002 34 11.7147C34 12.0123 34.0643 12.5861 34.3643 12.6286C34.6643 12.6711 34.6429 11.9485 34.6215 11.6297C35.0301 11.6315 35.4381 11.6599 35.8429 11.7147C35.717 11.88 35.6093 12.0581 35.5215 12.246Z" fill="#1F1F3F"/>
<path d="M33.6572 17.2188V17.4313C33.4874 17.877 33.272 18.3042 33.0144 18.7064H33.2072C33.2879 18.6841 33.3667 18.6557 33.443 18.6214C34.0051 18.2584 34.4745 17.771 34.8144 17.1976C34.9644 16.8788 35.1787 16.4963 35.1358 16.1563C34.493 16.3476 33.8501 16.5601 33.6787 16.6026C33.7141 16.8073 33.7068 17.017 33.6572 17.2188ZM28.0001 15.285V15.2638H27.9787L28.0001 15.285ZM27.9572 18.0051C27.8912 17.8817 27.8339 17.7539 27.7858 17.6226C27.7532 17.5534 27.7246 17.4825 27.7001 17.4101C27.7001 17.3038 27.443 16.4113 27.443 16.4113C27.443 16.4113 26.9287 16.2626 26.3501 16.0713C26.3987 16.3998 26.5076 16.7168 26.6715 17.0063C26.9939 17.6029 27.4571 18.1133 28.0215 18.4938C28.1071 18.5559 28.2008 18.6059 28.3001 18.6426L28.2358 18.5151C28.134 18.3501 28.041 18.1798 27.9572 18.0051Z" fill="#EEA65B"/>
<path d="M22.15 10.6943C22.8143 10.078 23.2215 8.76035 23.3929 7.69771C23.35 7.84648 24.5501 7.88899 25.2358 7.1664C25.7072 6.67759 25.4286 6.29504 25.15 5.67872C24.4 4.12728 23.1143 2.89463 21.8715 1.76824C21.55 1.4707 21.2286 0.705606 20.6715 0.89688C20.2429 1.04565 20.2643 2.29955 20.35 2.6821C20.8429 5.93375 22.15 10.6943 22.15 10.6943ZM38.7143 10.3543C37.9584 9.55266 37.4588 8.5469 37.2786 7.46394C37.2786 7.61271 36.1215 7.61271 35.4786 6.89012C35.05 6.40131 35.3072 6.06126 35.6501 5.52995C36.4858 4.12728 37.8143 3.02214 39.0786 1.95951C39.4429 1.70448 39.8072 1.32193 40.3215 1.53446C40.7501 1.72573 40.6429 2.55458 40.5572 2.89462C40.0729 5.41101 39.4578 7.90089 38.7143 10.3543Z" fill="white"/>
<path d="M38.7788 5.40238C37.9003 5.63616 36.936 6.12498 36.5288 6.93259C36.336 5.97621 37.2574 4.89231 38.0288 4.38224C38.0738 4.34851 38.1044 4.29943 38.1149 4.24454C38.1254 4.18964 38.1149 4.13284 38.0855 4.08516C38.0562 4.03749 38.01 4.00234 37.9559 3.98655C37.9019 3.97075 37.8439 3.97543 37.7931 3.99968C36.8288 4.67978 35.8431 5.9762 36.1217 7.16637C36.1368 7.21938 36.172 7.26452 36.22 7.29227C36.2679 7.32002 36.3249 7.32822 36.3788 7.31514L36.3574 7.44266C36.3146 7.69769 36.7646 7.82521 36.786 7.54892C36.9788 6.59254 37.986 6.06122 38.9074 5.84869C38.9671 5.83178 39.0175 5.79205 39.0477 5.73824C39.0778 5.68444 39.0852 5.62096 39.0681 5.56177C39.0511 5.50259 39.011 5.45255 38.9568 5.42265C38.9025 5.39276 38.8385 5.38547 38.7788 5.40238ZM22.7931 4.38224C22.5574 4.23347 22.3646 4.57351 22.5574 4.76479C23.2003 5.2111 23.9503 6.10372 24.0574 6.93259C23.6503 6.12498 22.7074 5.63616 21.8074 5.40238C21.7506 5.38829 21.6904 5.39716 21.6402 5.42705C21.59 5.45695 21.5538 5.50541 21.5396 5.56177C21.5253 5.61814 21.5343 5.6778 21.5644 5.72762C21.5946 5.77744 21.6434 5.81334 21.7003 5.82744C22.6217 6.06122 23.6074 6.59254 23.8217 7.52767C23.9184 7.59683 24.0346 7.63406 24.1538 7.63406C24.2731 7.63406 24.3893 7.59683 24.486 7.52767C24.786 6.35876 23.7574 5.01982 22.7931 4.38224Z" fill="#EC662B"/>
<path d="M24.979 5.01986C24.3147 3.87219 23.3504 2.93705 22.3861 2.02316L21.3576 0.875493C21.2463 0.770632 21.1009 0.708706 20.9476 0.700911C20.7944 0.693115 20.6433 0.739962 20.5218 0.832986C20.0076 1.30056 20.1147 2.2782 20.2004 2.89454C20.3718 4.08472 20.6076 5.21114 20.8647 6.35881C21.1861 7.84653 21.529 9.29175 21.9361 10.737C21.9372 10.7648 21.9488 10.7912 21.9687 10.8109C21.9886 10.8306 22.0152 10.8422 22.0433 10.8432C22.0861 10.8857 22.1504 10.8432 22.2361 10.8007C22.9861 10.0781 23.3076 8.97295 23.479 7.9528C23.9504 8.03781 24.7647 7.69776 24.9576 7.57024C26.1576 6.91139 25.5147 5.86999 24.979 5.01986ZM24.7004 7.37896C24.4929 7.49141 24.2687 7.57033 24.0361 7.61275C23.8919 7.60102 23.7466 7.61543 23.6076 7.65525C23.5944 7.61774 23.5698 7.58523 23.5372 7.56221C23.5045 7.5392 23.4655 7.52684 23.4254 7.52684C23.3854 7.52684 23.3463 7.5392 23.3137 7.56221C23.281 7.58523 23.2564 7.61774 23.2433 7.65525C23.0718 8.56914 22.8361 9.58929 22.2576 10.3119C21.5612 7.82927 21.0032 5.3105 20.5861 2.76702C20.5004 2.34196 20.479 0.492936 21.2504 1.2793L22.0004 2.15068C22.3647 2.49073 22.729 2.87329 23.0718 3.21334C23.8221 3.97107 24.4508 4.83834 24.9361 5.78497C25.0519 5.98691 25.1453 6.20069 25.2147 6.42257C25.429 6.84763 25.0218 7.18768 24.7004 7.37896ZM39.8718 1.25805C39.5076 1.30056 39.2076 1.55559 38.9504 1.78938C38.479 2.21444 37.9861 2.597 37.5147 3.00081C36.6581 3.77464 35.9215 4.66987 35.329 5.65745C34.8576 6.46508 35.2433 7.10267 36.079 7.48523C36.4174 7.6316 36.7813 7.71102 37.1504 7.71901C37.3553 8.75009 37.8535 9.70145 38.5861 10.4607C38.6443 10.4947 38.7118 10.5096 38.779 10.5032C38.8055 10.4981 38.8299 10.4853 38.849 10.4664C38.8681 10.4474 38.881 10.4232 38.8861 10.3969C39.3147 9.03671 39.679 7.61275 40.0433 6.21004C40.3218 5.06237 40.6004 3.85094 40.7718 2.68201C40.8361 2.02316 40.7718 1.21554 39.8718 1.25805ZM40.3861 2.57575C40.2147 4.276 39.7218 6.04001 39.2718 7.71901C39.079 8.48413 38.8647 9.24924 38.629 9.97185C38.0016 9.23818 37.5869 8.34936 37.429 7.40021C37.4158 7.3627 37.3912 7.33019 37.3586 7.30718C37.3259 7.28417 37.2869 7.2718 37.2468 7.2718C37.2068 7.2718 37.1677 7.28417 37.1351 7.30718C37.1025 7.33019 37.0779 7.3627 37.0647 7.40021C37.1076 7.29395 37.1504 7.3152 36.979 7.35771C36.8185 7.35197 36.6598 7.32334 36.5076 7.27269C36.079 7.16643 35.4361 6.84763 35.3933 6.35881C35.3504 6.01876 35.7576 5.55119 35.9504 5.25364C36.2335 4.83912 36.5411 4.44169 36.8718 4.06347C37.4708 3.44422 38.1078 2.8622 38.779 2.32071C39.0596 2.06059 39.3686 1.83247 39.7004 1.64061C40.429 1.25805 40.429 2.21444 40.3861 2.57575Z" fill="#1F1F3F"/>
<path d="M39.4214 11.9696C39.4643 11.672 38.6286 12.8409 38.6286 12.8409C38.5178 12.965 38.3959 13.0788 38.2643 13.181C37.2211 14.0171 36.0075 14.619 34.7072 14.945C34.4125 15.0266 34.1114 15.0834 33.8072 15.115L33.2714 15.1363L32.7572 13.6911L31.5786 12.7347L30.9572 11.6083H30.3786L29.7786 12.7347L28.6 13.6911L28.0214 15.285L28 15.1363L27.4214 15.115C27.1172 15.0834 26.8161 15.0266 26.5214 14.945C25.2127 14.6417 23.9942 14.0375 22.9643 13.181C22.8357 13.0747 22.7072 12.9472 22.6 12.8409C22.6 12.8409 21.7429 11.672 21.8072 11.9696C22.2542 14.5833 23.4182 17.0245 25.1714 19.0256L29.1572 20.407L29.1143 20.1945L29.2214 20.407L30.2714 20.8746H30.9143L32.1786 20.407L32.2 20.3857L36.1214 19.0256C36.0357 19.0043 38.6929 16.3052 39.4214 11.9696ZM25.75 17.8991C25.7286 17.8991 24.4857 15.7951 24.4 15.6251C24.3143 15.4551 27.3786 16.4114 27.4429 16.4327C27.4429 16.4327 27.7 17.3253 27.7 17.4316C27.7245 17.504 27.7531 17.5749 27.7857 17.6441C27.8339 17.7754 27.8911 17.9032 27.9572 18.0267C28.034 18.194 28.1198 18.3572 28.2143 18.5155L28.3214 18.7493C27.8714 18.6005 25.7714 17.8991 25.75 17.8991ZM32.9286 18.7705C33.1 18.6855 33.6357 17.5166 33.6572 17.4103V17.1978C33.6964 16.9875 33.7036 16.7726 33.6786 16.5602C34.0643 16.4539 36.6572 15.6251 36.7643 15.6251C36.9357 15.6251 35.6286 17.8566 35.5857 17.8566C35.5857 17.8991 33.1214 18.7068 32.9286 18.7705ZM29.5 9.84427C29.7143 11.8846 30.5072 11.5233 30.5072 11.5233H30.7214C30.7214 11.5233 31.4286 11.8846 31.6643 9.84427L32.3072 8.69661L33.2072 5.25363L32.3714 5.08361L31.4714 4.91359C30.9122 4.80737 30.3378 4.80737 29.7786 4.91359L28.7929 5.10486L27.9572 5.27489L28.8572 8.71787L29.5 9.84427Z" fill="#686868"/>
<path d="M39.3357 11.6719C39.1428 11.5869 39.1642 11.7782 38.8 12.2458L38.4357 12.7133C38.334 12.8249 38.2267 12.9313 38.1142 13.0321C37.0897 13.8505 35.8978 14.438 34.6214 14.7537C34.3397 14.8289 34.0534 14.8857 33.7642 14.9237L33.3785 14.9449L32.9071 13.5847L31.7071 12.6071L31.1928 11.6507C31.4714 11.4594 31.7285 10.9706 31.8571 9.92914L32.5 8.78146L33.4642 5.08337L31.4928 4.70081C30.9069 4.57328 30.3001 4.57328 29.7142 4.70081L28.7285 4.89209L27.6571 5.10462L28.6214 8.80271L29.2428 9.90789C29.3714 11.0768 29.6928 11.5444 30.0142 11.7144L29.5428 12.6283L28.3428 13.606L27.85 14.9662L27.3571 14.9449C27.0657 14.9214 26.7781 14.8644 26.5 14.7749C24.9677 14.3127 23.5951 13.437 22.5357 12.2458C22.1714 11.7782 22.0428 11.6507 21.85 11.7357C21.7972 11.7583 21.7537 11.7978 21.7265 11.848C21.6993 11.8981 21.6899 11.9559 21.7 12.012C22.4285 16.3689 24.8071 19.0894 24.9142 19.1956C24.9244 19.2086 24.9374 19.2191 24.9523 19.2265C24.9671 19.2338 24.9834 19.2378 25 19.2381L28.9857 20.6196V20.5983L30.1 21.0872H30.8285L32.2 20.5771L32.2214 20.5558L36.0571 19.2169L36.1428 19.1744C36.25 19.0681 38.7142 16.3264 39.4214 11.9695C39.4392 11.9454 39.4513 11.9176 39.4567 11.8882C39.462 11.8588 39.4605 11.8286 39.4522 11.7998C39.4439 11.7711 39.4291 11.7446 39.4089 11.7225C39.3887 11.7003 39.3637 11.683 39.3357 11.6719ZM33.9142 16.6027C34.7653 16.5254 35.5978 16.31 36.3785 15.9651L35.3071 17.7079L33.4214 18.3455L33.4428 18.3242L33.5285 18.1755C33.8207 17.7045 33.9556 17.1541 33.9142 16.6027ZM31.5571 9.6316C31.45 9.6316 31.3214 9.61034 31.1714 9.61034C31.2785 9.39781 31.3857 9.16402 31.4928 8.90898L31.6857 9.0365L31.8357 9.12152L31.5571 9.6316ZM30.7 9.58909H30.4857C30.333 9.314 30.1971 9.03012 30.0785 8.73895C30.2193 8.70845 30.3631 8.69419 30.5071 8.69645V8.7177H30.6142V8.69645C30.7583 8.69241 30.9024 8.7067 31.0428 8.73895C30.9509 9.0307 30.8362 9.31493 30.7 9.58909ZM30.5928 8.27138C30.3764 8.24414 30.1566 8.26594 29.95 8.33514C29.9259 8.28885 29.9113 8.23828 29.9071 8.18637C30.095 8.13137 30.2898 8.10276 30.4857 8.10135V8.12261H30.7V8.10135C30.8959 8.10276 31.0906 8.13137 31.2785 8.18637C31.2544 8.23265 31.2399 8.28322 31.2357 8.33514C31.0288 8.26666 30.8092 8.24487 30.5928 8.27138ZM30.5928 6.37983H30.3571V6.40108C30.2205 6.40472 30.0843 6.41893 29.95 6.44359C29.7888 6.45864 29.6304 6.49436 29.4785 6.54985L29.4571 6.44359C29.8428 6.35084 30.2389 6.30798 30.6357 6.31607C31.0182 6.30899 31.4001 6.35187 31.7714 6.44359L31.75 6.54985C31.5881 6.50432 31.4234 6.46883 31.2571 6.44359C31.1071 6.42233 30.9785 6.42233 30.85 6.40108V6.37983H30.5928ZM29.9714 6.8474C30.1857 6.82615 30.3785 6.8049 30.5714 6.8049C30.7642 6.8049 30.9571 6.82615 31.1714 6.8474C31.3255 6.8625 31.4769 6.89824 31.6214 6.95367C31.5571 7.22996 31.4928 7.50626 31.4071 7.78255C31.1432 7.7038 30.8682 7.66791 30.5928 7.67628C30.3173 7.66676 30.0422 7.70267 29.7785 7.78255C29.6928 7.50626 29.6285 7.20871 29.5642 6.95367C29.6939 6.89857 29.8311 6.86276 29.9714 6.8474ZM32.0285 8.76021L31.9 8.67519C31.8399 8.64463 31.7825 8.60908 31.7285 8.56893C31.7049 8.54655 31.675 8.53174 31.6428 8.52642L31.6857 8.3989L31.8785 8.50517C31.9601 8.54989 32.0388 8.59957 32.1142 8.65394L32.0285 8.76021ZM32.3714 5.29591L32.95 5.40217L32.6928 6.35857C32.5473 6.27237 32.3971 6.19431 32.2428 6.12479C32.3071 5.76348 32.35 5.46593 32.3714 5.29591ZM32.1571 6.57111C32.3067 6.63623 32.4501 6.71447 32.5857 6.8049L32.5642 6.91116L32.4357 6.8474C32.3401 6.78939 32.2398 6.73962 32.1357 6.69863C32.1391 6.65559 32.1463 6.61293 32.1571 6.57111ZM32.2214 7.20871L32.4571 7.33623L32.2214 8.20762L32.0714 8.12261C31.9904 8.08461 31.9117 8.04204 31.8357 7.99509L31.8142 7.97383C31.9 7.67629 31.9857 7.39999 32.05 7.1237C32.1092 7.14769 32.1665 7.17611 32.2214 7.20871ZM29.8214 5.10462C30.3517 4.99831 30.8982 4.99831 31.4285 5.10462L31.9428 5.21089C31.9214 5.35966 31.8785 5.63596 31.8357 5.97601C31.4785 5.88671 31.1111 5.84384 30.7428 5.84849H30.4428C30.0745 5.84384 29.7071 5.88671 29.35 5.97601C29.2965 5.72372 29.2607 5.46807 29.2428 5.21089L29.8214 5.10462ZM28.2357 5.42343L28.8142 5.31716C28.8357 5.48719 28.8785 5.76348 28.9428 6.14604C28.7843 6.2066 28.6333 6.28505 28.4928 6.37983L28.2357 5.42343ZM28.6214 6.91116L28.6 6.8049C28.7355 6.71447 28.8789 6.63623 29.0285 6.57111L29.05 6.69863L28.75 6.8474L28.6214 6.91116ZM28.7285 7.33623L28.9428 7.20871L29.1357 7.10244C29.2 7.37874 29.2857 7.67629 29.3714 7.95258L29.35 7.97383C29.2739 8.02078 29.1952 8.06336 29.1142 8.10135L28.9642 8.18637L28.7285 7.33623ZM29.2642 8.67519L29.1357 8.76021L29.0714 8.63269L29.3071 8.48391L29.5 8.37765L29.5428 8.50517C29.5192 8.52754 29.4893 8.54235 29.4571 8.54767L29.2642 8.67519ZM29.35 9.12152L29.5 9.0365L29.6928 8.90898C29.787 9.1415 29.8943 9.36857 30.0142 9.58909C29.8642 9.58909 29.7142 9.61034 29.6285 9.61034L29.35 9.12152ZM29.7357 10.0567L30.5928 10.0142L31.4285 10.0354C31.2785 11.0556 31 11.3319 30.85 11.3319H30.8285L30.8071 11.3106H30.4857L30.4428 11.3319H30.4C30.1428 11.3531 29.8857 11.0131 29.7357 10.0567ZM25.2571 18.8343C24.9571 18.5155 23.0928 16.1564 22.2999 12.5646C22.3857 12.6921 23.3714 14.1586 26.4357 15.1575C26.7432 15.2461 27.0592 15.3031 27.3785 15.3275L27.7428 15.3488L27.5714 15.8376C27.5328 15.9482 27.5041 16.062 27.4857 16.1776H27.4642C26.0285 16.1564 24.3571 15.2637 24.3357 15.2637C24.2936 15.2438 24.2463 15.2372 24.2003 15.2448C24.1543 15.2524 24.1118 15.2738 24.0785 15.3063C24.0442 15.3389 24.0231 15.3828 24.0192 15.4298C24.0153 15.4767 24.0287 15.5235 24.0571 15.5613L25.5571 17.9842C25.5825 18.0234 25.6201 18.0533 25.6642 18.0692L28.15 18.8981H28.1714L28.75 20.0245L25.2571 18.8343ZM27.8714 18.303L27.9142 18.388L25.8785 17.7079L24.8071 15.9651C25.6306 16.3415 26.5167 16.5648 27.4214 16.624C27.3895 17.2167 27.547 17.8042 27.8714 18.303ZM31.9642 20.2158L30.8285 20.6409H30.2714L29.35 20.237L28.2785 18.0904L28.2357 18.0692C28.0321 17.7659 27.9029 17.4196 27.8583 17.058C27.8136 16.6964 27.8548 16.3294 27.9785 15.9864L28.75 13.8398L29.9285 12.8834L30.4857 11.8207H30.8071L31.3857 12.8834L32.5642 13.8398L33.3785 16.1564C33.4826 16.4433 33.5174 16.7504 33.4802 17.053C33.443 17.3557 33.3348 17.6455 33.1642 17.8992L33.0571 18.0479L32.8214 18.5155C32.7806 18.5571 32.7511 18.6083 32.7357 18.6643L31.9642 20.2158ZM35.9285 18.8343L32.5642 20.0033L33.1428 18.8768L35.5214 18.0904C35.5655 18.0745 35.6032 18.0447 35.6285 18.0054L37.1285 15.5825C37.1534 15.5435 37.1647 15.4975 37.1609 15.4515C37.157 15.4055 37.1381 15.3619 37.1071 15.3275C37.0738 15.2951 37.0313 15.2736 36.9853 15.266C36.9393 15.2584 36.892 15.265 36.85 15.285C36.8285 15.285 35.2428 16.1351 33.85 16.1989L33.8071 16.0501L33.5714 15.3913L33.8285 15.37C34.1464 15.3351 34.4615 15.2783 34.7714 15.2C36.1172 14.887 37.3715 14.2686 38.4357 13.3934C38.5857 13.2659 38.7142 13.1384 38.8214 13.0321C38.8357 13.018 38.85 13.0038 38.8642 12.9896C38.0285 16.5177 36.2071 18.5155 35.9285 18.8343Z" fill="#1F1F3F"/>
<path d="M30.5933 46.7818C30.0147 45.4217 28.7504 46.293 28.3647 46.0805C27.7647 45.7617 27.679 45.5279 26.929 45.5704C26.179 45.6129 25.9433 45.9105 25.579 45.9742C25.4719 45.9955 25.0219 45.8255 24.7861 45.9105C24.5058 45.9862 24.2553 46.1446 24.0677 46.3647C23.8802 46.5849 23.7646 46.8563 23.7361 47.1431C23.7219 47.5328 23.729 47.923 23.7576 48.3119L23.8861 48.992C23.8861 48.992 23.9504 49.3533 24.4861 49.4595C25.3219 49.6083 25.729 49.2258 25.729 49.2258C25.729 49.2258 26.2861 49.7996 27.4647 49.5021C27.7219 49.4383 27.829 49.2258 27.979 49.2258C28.129 49.2258 28.279 49.417 28.5576 49.4808C29.1361 49.5871 29.6933 49.6083 30.0147 49.417C30.1366 49.3501 30.2434 49.2589 30.3282 49.1492C30.413 49.0395 30.474 48.9137 30.5076 48.7795C30.5076 48.7795 30.8076 47.2918 30.5933 46.7818ZM26.8861 47.5256C26.7576 47.6106 26.6933 48.3332 26.929 48.652L26.8861 47.5256Z" fill="#EEA65B"/>
<path d="M26.9285 48.8647C26.8627 48.8587 26.8015 48.8284 26.7571 48.7797C26.5742 48.4337 26.521 48.0346 26.6071 47.6534C26.6177 47.5936 26.6402 47.5364 26.6733 47.4854C26.7064 47.4343 26.7495 47.3902 26.8 47.3559C26.8251 47.341 26.853 47.3314 26.8819 47.3277C26.9109 47.324 26.9404 47.3261 26.9685 47.3341C26.9966 47.3421 27.0227 47.3556 27.0453 47.374C27.068 47.3924 27.0865 47.4151 27.1 47.4409C27.1192 47.4864 27.1253 47.5362 27.1178 47.585C27.1102 47.6337 27.0892 47.6795 27.0571 47.7171C26.9738 47.9988 26.9966 48.301 27.1214 48.5672C27.1372 48.5908 27.1481 48.6173 27.1535 48.6452C27.1588 48.673 27.1585 48.7017 27.1525 48.7294C27.1465 48.7571 27.135 48.7834 27.1186 48.8066C27.1022 48.8299 27.0813 48.8496 27.0571 48.8647H26.9285Z" fill="#1F1F3F"/>
<path d="M29.05 47.6747C28.8357 47.9509 28.9214 48.5246 29.05 48.7796V47.6747Z" fill="#EEA65B"/>
<path d="M29.0502 48.9922C29.0116 48.9924 28.9735 48.9827 28.9398 48.9641C28.906 48.9455 28.8776 48.9186 28.8574 48.8859C28.6859 48.5671 28.6002 47.9296 28.8788 47.5683C28.8957 47.546 28.9168 47.5271 28.941 47.5129C28.9653 47.4987 28.9921 47.4894 29.0199 47.4854C29.0478 47.4815 29.0761 47.483 29.1034 47.4899C29.1307 47.4969 29.1563 47.509 29.1788 47.5258C29.2013 47.5425 29.2203 47.5635 29.2346 47.5875C29.2489 47.6115 29.2584 47.6381 29.2624 47.6657C29.2663 47.6934 29.2648 47.7215 29.2578 47.7485C29.2508 47.7756 29.2385 47.801 29.2217 47.8233C29.0717 48.0146 29.1359 48.4821 29.2431 48.6946C29.258 48.7195 29.2677 48.7472 29.2715 48.776C29.2752 48.8047 29.273 48.8339 29.265 48.8618C29.257 48.8896 29.2433 48.9156 29.2248 48.938C29.2063 48.9604 29.1833 48.9789 29.1574 48.9922C29.1225 48.9812 29.0851 48.9812 29.0502 48.9922Z" fill="#1F1F3F"/>
<path d="M24.8711 47.5261C24.7435 47.7386 24.7648 48.2062 24.8711 48.695V47.5261Z" fill="#EEA65B"/>
<path d="M24.8717 48.9076C24.8215 48.9086 24.7726 48.8921 24.7335 48.861C24.6943 48.83 24.6674 48.7863 24.6574 48.7375C24.5931 48.4612 24.4645 47.8023 24.6788 47.4197C24.6924 47.3937 24.7111 47.3706 24.7338 47.3519C24.7565 47.3332 24.7828 47.3192 24.8111 47.3108C24.8393 47.3023 24.869 47.2996 24.8984 47.3027C24.9277 47.3058 24.9562 47.3148 24.982 47.329C25.0078 47.3432 25.0305 47.3624 25.0486 47.3855C25.0668 47.4086 25.0802 47.435 25.0879 47.4633C25.0956 47.4916 25.0975 47.5211 25.0935 47.5501C25.0894 47.5791 25.0796 47.6071 25.0645 47.6322C24.9788 47.7598 24.9574 48.1211 25.0859 48.6312C25.0922 48.6592 25.0926 48.6881 25.0873 48.7163C25.082 48.7444 25.071 48.7712 25.055 48.795C25.039 48.8188 25.0183 48.8392 24.9942 48.8549C24.97 48.8706 24.9429 48.8813 24.9145 48.8863C24.9103 48.8937 24.904 48.8996 24.8964 48.9034C24.8887 48.9072 24.8801 48.9087 24.8717 48.9076Z" fill="#1F1F3F"/>
<path d="M34.9218 47.5261C35.0503 47.6111 35.1146 48.3338 34.8789 48.6526L34.9218 47.5261Z" fill="#EEA65B"/>
<path d="M34.9001 48.8647C34.8546 48.8603 34.8106 48.8457 34.7715 48.8222C34.7473 48.807 34.7264 48.7873 34.71 48.7641C34.6937 48.7408 34.6821 48.7146 34.6761 48.6868C34.6702 48.6591 34.6698 48.6305 34.6752 48.6026C34.6805 48.5748 34.6914 48.5482 34.7072 48.5246C34.832 48.2584 34.8549 47.9562 34.7715 47.6745C34.7504 47.6592 34.7326 47.6399 34.719 47.6177C34.7054 47.5955 34.6964 47.5709 34.6924 47.5452C34.6884 47.5195 34.6896 47.4934 34.6958 47.4681C34.702 47.4429 34.7132 47.4192 34.7287 47.3983C34.7599 47.3506 34.8075 47.3158 34.8626 47.3002C34.9178 47.2845 34.9767 47.2892 35.0287 47.3133C35.0791 47.3476 35.1222 47.3917 35.1553 47.4428C35.1884 47.4938 35.2109 47.551 35.2215 47.6108C35.3076 47.992 35.2545 48.3912 35.0715 48.7371C35.0618 48.7746 35.0395 48.8076 35.0084 48.8307C34.9772 48.8539 34.939 48.8659 34.9001 48.8647Z" fill="#1F1F3F"/>
<path d="M32.7788 47.6747C32.9931 47.9509 32.9074 48.5246 32.7788 48.7796V47.6747Z" fill="#EEA65B"/>
<path d="M32.7787 48.9924C32.7417 48.9957 32.7045 48.9883 32.6716 48.9711C32.6456 48.9578 32.6227 48.9394 32.6041 48.9169C32.5856 48.8945 32.5719 48.8686 32.5639 48.8407C32.5559 48.8128 32.5537 48.7836 32.5575 48.7548C32.5612 48.7261 32.5709 48.6984 32.5858 48.6735C32.693 48.4609 32.7358 47.9932 32.6073 47.8019C32.5904 47.7795 32.5781 47.7541 32.5711 47.7271C32.5641 47.7 32.5626 47.6719 32.5666 47.6443C32.5705 47.6166 32.58 47.59 32.5943 47.566C32.6086 47.542 32.6276 47.521 32.6501 47.5043C32.6726 47.4875 32.6983 47.4753 32.7255 47.4684C32.7528 47.4615 32.7811 47.4599 32.809 47.4639C32.8369 47.4678 32.8637 47.4772 32.8879 47.4914C32.9121 47.5056 32.9332 47.5244 32.9501 47.5468C33.2287 47.9082 33.1216 48.5672 32.9716 48.8648C32.9537 48.9012 32.9265 48.9321 32.8926 48.9546C32.8587 48.977 32.8194 48.99 32.7787 48.9924Z" fill="#1F1F3F"/>
<path d="M36.9573 47.5261C37.0848 47.7386 37.0636 48.2062 36.9573 48.695V47.5261Z" fill="#EEA65B"/>
<path d="M36.9574 48.907H36.9145C36.8598 48.8921 36.8123 48.8581 36.7808 48.8112C36.7493 48.7644 36.7359 48.7078 36.7431 48.652C36.8717 48.1419 36.8502 47.7806 36.7645 47.6531C36.7494 47.6279 36.7396 47.6 36.7356 47.571C36.7316 47.542 36.7335 47.5124 36.7412 47.4842C36.7489 47.4559 36.7622 47.4294 36.7804 47.4064C36.7986 47.3833 36.8213 47.3641 36.8471 47.3499C36.8729 47.3357 36.9013 47.3267 36.9307 47.3236C36.96 47.3204 36.9897 47.3232 37.018 47.3316C37.0462 47.3401 37.0725 47.3541 37.0952 47.3728C37.118 47.3915 37.1367 47.4145 37.1502 47.4405C37.3645 47.8018 37.2359 48.4819 37.1717 48.7582C37.1526 48.7998 37.1227 48.8355 37.085 48.8616C37.0473 48.8878 37.0032 48.9035 36.9574 48.907ZM32.736 16.9639C32.713 16.2636 32.522 15.5787 32.1788 14.9662V14.8599L30.9788 13.946L30.9359 13.9248C30.8325 13.8523 30.709 13.8134 30.5824 13.8134C30.4558 13.8134 30.3322 13.8523 30.2288 13.9248L30.1859 13.946L28.986 14.8599V14.9874C28.8359 15.285 28.4074 16.1776 28.4074 16.9427H28.386L28.4288 17.474C28.4658 18.0031 28.694 18.5012 29.0717 18.8767C29.0717 18.8767 29.5217 19.2592 29.6717 19.2592H29.736C29.8194 19.2329 29.8947 19.1859 29.9547 19.1227C30.0147 19.0595 30.0574 18.9821 30.0788 18.8979C30.2074 19.153 30.3574 19.2805 30.5288 19.2805C30.6222 19.2698 30.7117 19.2372 30.79 19.1855C30.8682 19.1338 30.9329 19.0644 30.9788 18.983C31.0261 19.0715 31.0932 19.1481 31.1749 19.207C31.2566 19.2659 31.3508 19.3056 31.4502 19.323H31.4717C31.6217 19.323 31.9002 18.983 31.9002 18.983L32.1574 18.6429C32.3586 18.3897 32.4913 18.0898 32.5431 17.7715L32.736 16.9639ZM29.0502 15.6037L29.1145 16.4751L28.7502 16.7301C28.7917 16.3417 28.8928 15.9618 29.0502 15.6037ZM28.7502 17.474L28.7288 17.1127L29.0931 16.8577V18.4729C28.9003 18.1717 28.7828 17.8293 28.7502 17.474ZM29.8645 18.7704C29.7359 19.1742 29.3931 18.5791 29.3931 18.5791V16.7514H29.8645V18.2816C29.8968 18.443 29.8968 18.6091 29.8645 18.7704ZM29.9717 16.3051H29.5002L29.4359 15.0299L29.9931 14.5836L29.9717 16.3051ZM30.4431 14.3073H30.7431L30.7859 16.3263L30.6145 16.4114L30.4431 16.3263V14.3073ZM30.8288 18.7917C30.7738 18.8846 30.6916 18.9587 30.5931 19.0042C30.5464 18.9863 30.5046 18.9577 30.4711 18.9208C30.4376 18.8838 30.4133 18.8396 30.4002 18.7917C30.3788 18.6429 30.3574 17.6228 30.3574 16.8577C30.4319 16.8892 30.5121 16.9055 30.5931 16.9055C30.6741 16.9055 30.7543 16.8892 30.8288 16.8577V18.7917ZM31.1717 14.6049L31.7502 15.0512L31.6859 16.3051H31.2145L31.1717 14.6049ZM31.7502 17.3252C31.7502 17.559 31.7288 18.0691 31.7288 18.3879C31.7257 18.5051 31.6844 18.6183 31.611 18.7102C31.5376 18.8022 31.436 18.8681 31.3217 18.8979L31.2788 18.8129V17.219L31.236 16.7514H31.7502V17.3252ZM32.1359 15.5612C32.2863 15.9352 32.3801 16.329 32.4145 16.7301L32.0931 16.4964L32.1359 15.5612ZM32.3288 17.7503C32.2851 18.0143 32.1745 18.2629 32.0074 18.4729V18.3666L32.0288 17.0489V16.8152L32.4145 17.0914L32.3288 17.7503ZM53.0288 44.4651C52.8652 44.1454 52.6325 43.8654 52.3473 43.645C52.0621 43.4246 51.7314 43.2692 51.3788 43.19C50.9331 43.1144 50.4806 43.0859 50.0288 43.105C48.3574 43.105 46.0859 43.105 43.9431 40.5759C44.1065 39.7401 44.221 38.8957 44.2859 38.0468C44.5217 35.2201 43.8788 33.3499 42.2288 32.181C41.6502 31.7559 41.4574 30.672 41.2645 29.5031C41.1574 28.9293 41.0717 28.3342 40.9217 27.7816C40.8145 27.3991 40.7288 27.0165 40.6431 26.5915C40.3859 25.3376 40.0859 23.9349 38.9717 22.2134C38.8579 22.0275 38.7129 21.8622 38.5431 21.7246C37.9431 20.6407 37.2359 19.5993 36.7217 18.4941C36.6359 18.2604 36.2288 18.4516 36.3574 18.7279C37.0431 20.2369 38.0074 21.5971 38.6288 23.106C38.8158 23.7704 38.966 24.4444 39.0788 25.125C39.1002 25.2951 39.1217 25.5076 39.1431 25.7201C39.1431 25.8051 39.1645 25.8689 39.1645 25.9326C39.2288 26.4215 39.2717 26.889 39.2288 26.889C39.1645 29.4394 38.7788 32.7336 38.1788 34.8588C38.0931 35.1776 37.9431 35.6452 37.7502 36.1553C37.1288 37.983 36.2074 40.7671 36.2074 43.0625C36.1998 43.7229 36.2356 44.3831 36.3145 45.039L36.2502 45.1665C36.236 45.358 36.2431 45.5504 36.2717 45.7403H36.2074C36.0948 45.7128 35.9866 45.6698 35.886 45.6128C35.5605 45.4456 35.2021 45.3513 34.8359 45.3365H34.6645C34.3027 45.3308 33.949 45.4428 33.6574 45.6553C33.5502 45.7191 33.4431 45.7828 33.2931 45.8678H33.2288C33.1137 45.8616 32.9991 45.8474 32.8859 45.8253C32.6817 45.782 32.4734 45.7606 32.2645 45.7616C32.0254 45.7624 31.7902 45.8208 31.5788 45.9316C31.5145 44.6989 31.4502 43.2112 31.4288 41.7023C31.4288 41.2135 31.4288 40.7459 31.4074 40.2996C31.3859 38.4081 31.3645 36.8991 31.4288 36.5378C31.4397 36.4745 31.4469 36.4107 31.4502 36.3465C31.5788 35.1776 31.6859 34.8376 31.7502 34.7738C32.4145 33.9237 32.5431 31.8622 32.5859 30.1832C32.5783 30.0694 32.5855 29.9551 32.6074 29.8432C32.6138 29.7899 32.5997 29.7363 32.5679 29.6929C32.5361 29.6496 32.489 29.6197 32.4359 29.6094C32.3931 29.6306 32.3717 29.6519 32.3502 29.6306H32.3288C32.285 29.6397 32.2458 29.6639 32.2183 29.6989C32.1909 29.734 32.1769 29.7776 32.1788 29.8219C32.1786 29.9427 32.1715 30.0633 32.1574 30.1832C32.1359 31.0546 32.0717 33.6687 31.4074 34.5188C31.2359 34.7313 31.1288 35.3902 31.0217 36.304C31.0217 36.389 31.0002 36.4528 31.0002 36.4953C30.9359 36.8991 30.9574 38.3443 30.9574 40.3421C30.9574 40.7884 30.9574 41.256 30.9788 41.7448C31.0002 43.4025 31.0645 45.0602 31.1502 46.3566C31.0618 46.474 30.9897 46.6027 30.9359 46.7392C30.7002 47.2918 30.9788 48.737 31.0217 48.907C31.064 49.071 31.1389 49.225 31.2419 49.36C31.3449 49.495 31.474 49.6083 31.6217 49.6933C31.8749 49.8155 32.1546 49.8739 32.4359 49.8634C32.7026 49.8644 32.9685 49.8359 33.2288 49.7784C33.3834 49.7446 33.5293 49.6795 33.6574 49.5871L33.7431 49.5233L33.8288 49.5871C33.943 49.6761 34.0742 49.7412 34.2145 49.7784C34.4453 49.838 34.6832 49.8666 34.9217 49.8634C35.31 49.8687 35.6909 49.7576 36.0145 49.5446C36.2783 49.684 36.5727 49.757 36.8717 49.7571C37.0083 49.7535 37.1444 49.7393 37.2788 49.7146C37.9645 49.5871 38.0502 49.0983 38.0502 49.077L38.0931 48.7795C38.5919 48.8504 39.0992 48.836 39.5931 48.737L39.8931 48.6732C40.2225 48.7943 40.5704 48.859 40.9217 48.8645C41.5431 48.8645 41.8431 48.5669 41.9502 48.3332C41.9566 48.3076 41.9717 48.285 41.9931 48.2694C42.0561 48.1737 42.1133 48.0743 42.1645 47.9719C42.2717 48.0356 42.3574 48.0994 42.4217 48.1419C43.3645 48.7157 45.8717 49.2895 47.7359 49.2895C47.9502 49.2895 48.1645 49.2895 48.3788 49.2683C50.7788 49.0558 52.2145 48.5244 52.6431 47.6531C53.3717 46.4417 53.4574 45.3153 53.0288 44.4651ZM37.8574 48.2907L37.7288 48.9707C37.7288 48.992 37.6645 49.2045 37.3002 49.2683C37.1869 49.2859 37.0721 49.2931 36.9574 49.2895C36.4859 49.2895 36.2502 49.0983 36.2502 49.077C36.2102 49.0381 36.1563 49.0163 36.1002 49.0163C36.0441 49.0163 35.9903 49.0381 35.9502 49.077C35.694 49.2916 35.3633 49.3984 35.0288 49.3745C34.8256 49.3762 34.6234 49.3475 34.4288 49.2895C34.3421 49.264 34.2617 49.2205 34.1931 49.162C34.0991 49.0753 33.9782 49.0228 33.8502 49.0133C33.7328 49.0236 33.6211 49.068 33.5288 49.1408C33.4473 49.2043 33.3519 49.2479 33.2502 49.2683C33.0171 49.315 32.7807 49.3435 32.5431 49.3533C32.3377 49.3611 32.1331 49.3248 31.9431 49.247C31.7588 49.1361 31.6216 48.9623 31.5574 48.7582C31.4502 48.2056 31.3002 47.1855 31.4502 46.8455C31.7074 46.2716 32.0717 46.1866 32.3502 46.1866C32.5299 46.1974 32.7088 46.2187 32.8859 46.2504C33.0273 46.2805 33.1705 46.3018 33.3145 46.3141C33.4112 46.3157 33.5069 46.2938 33.5931 46.2504C33.7431 46.1654 33.8717 46.0804 33.9788 46.0166C34.2029 45.8385 34.4849 45.7478 34.7717 45.7616H34.9217C35.2272 45.781 35.5259 45.8604 35.8002 45.9953C35.9376 46.0647 36.0811 46.1216 36.2288 46.1654C36.3363 46.1785 36.4454 46.1713 36.5502 46.1441C36.6632 46.1208 36.7778 46.1066 36.8931 46.1016H36.9788C37.2231 46.1611 37.442 46.2961 37.6038 46.4871C37.7656 46.6782 37.8619 46.9153 37.8788 47.1643C37.8929 47.5398 37.8857 47.9159 37.8574 48.2907ZM41.7788 48.0144C41.7622 48.0525 41.7406 48.0882 41.7145 48.1206C41.6717 48.2056 41.5645 48.4182 41.0717 48.4182C40.7491 48.4045 40.4309 48.3399 40.1288 48.2269C40.1009 48.2172 40.0723 48.2101 40.0431 48.2056H40.0002L39.6359 48.2907C39.1914 48.3827 38.7332 48.3899 38.2859 48.3119C38.3145 47.9088 38.3217 47.5044 38.3074 47.1005C38.2688 46.7755 38.1344 46.469 37.9209 46.2195C37.7074 45.9699 37.4244 45.7885 37.1074 45.6978C37.045 45.679 36.9796 45.6718 36.9145 45.6766C36.8931 45.6128 36.8931 45.5278 36.8717 45.4428C37.1205 45.4038 37.3646 45.3397 37.6002 45.2515C37.7717 45.1877 37.9431 45.1452 38.0931 45.1027C38.5104 45.0295 38.9336 44.994 39.3574 44.9965C39.5362 44.9925 39.7151 44.9996 39.8931 45.0177C40.2788 46.2504 41.2431 47.1643 41.9502 47.6956C41.886 47.8231 41.8217 47.9294 41.7788 48.0144ZM52.3859 47.4405C52.0431 48.1419 50.6931 48.6094 48.4645 48.822C46.5788 48.992 43.6859 48.2907 42.7859 47.7593C42.2074 47.4193 40.3217 46.1441 40.1502 44.1889C40.1074 43.53 40.3645 42.8287 40.6431 42.6586C40.8949 42.5057 41.192 42.4433 41.4847 42.482C41.7774 42.5207 42.0477 42.6581 42.2502 42.8712C43.7502 44.3376 47.3074 45.3578 49.3645 44.4864C49.3949 44.4789 49.4232 44.4649 49.4475 44.4454C49.4718 44.4259 49.4916 44.4013 49.5053 44.3734C49.519 44.3455 49.5264 44.315 49.527 44.284C49.5275 44.253 49.5212 44.2222 49.5085 44.1939C49.4958 44.1655 49.477 44.1402 49.4534 44.1199C49.4298 44.0995 49.402 44.0845 49.372 44.0759C49.3419 44.0673 49.3103 44.0654 49.2794 44.0702C49.2485 44.075 49.219 44.0865 49.1931 44.1038C47.4788 44.8477 44.0717 44.0613 42.5502 42.5736C42.2749 42.2977 41.9147 42.1208 41.5266 42.0707C41.1385 42.0207 40.7447 42.1004 40.4074 42.2973C39.9788 42.5736 39.6574 43.445 39.7217 44.2314C39.7241 44.3529 39.7384 44.4739 39.7645 44.5927C39.6359 44.5927 39.4859 44.5714 39.3359 44.5714C38.8754 44.5624 38.4153 44.6052 37.9645 44.6989C37.7931 44.7414 37.6217 44.8052 37.4288 44.8689C37.221 44.9475 37.0056 45.0045 36.7859 45.039C36.7076 44.3902 36.6718 43.7371 36.6788 43.0837C36.6788 40.8522 37.6002 38.1105 38.2002 36.304C38.3717 35.7727 38.5217 35.3264 38.6288 34.9864C39.1859 33.0098 39.8931 29.2693 39.6788 26.1664C39.6418 25.6311 39.5703 25.0987 39.4645 24.5725C39.4506 24.481 39.4434 24.3887 39.4431 24.2962L39.5074 24.2537C39.5717 24.4237 39.6145 24.4874 39.5931 24.4024C39.8639 25.1492 40.0718 25.9169 40.2145 26.6977C40.3002 27.1228 40.3859 27.5054 40.4931 27.9092C40.6423 28.4612 40.7568 29.022 40.8359 29.5881C41.0502 30.8421 41.2431 32.011 41.9717 32.5423C43.4717 33.6262 44.0717 35.3689 43.8359 38.0255C43.7712 38.8463 43.6567 39.6625 43.4931 40.4696L43.5359 40.5121C43.4937 40.549 43.4678 40.6008 43.4638 40.6565C43.4597 40.7122 43.478 40.7672 43.5145 40.8096C45.8074 43.5513 48.3359 43.5725 49.986 43.5725C50.4084 43.5579 50.8314 43.5792 51.2502 43.6363C51.5423 43.6916 51.8169 43.8148 52.0516 43.9958C52.2863 44.1769 52.4743 44.4105 52.6002 44.6777C53.0074 45.379 52.9217 46.3779 52.3859 47.4405ZM30.5502 46.2716C30.6574 44.4226 30.8074 42.0848 30.8074 42.0211C30.8338 41.6604 30.841 41.2986 30.8288 40.9372C30.8288 40.7459 30.8074 40.5546 30.8074 40.2146V39.747C30.8288 36.7291 30.8288 34.9864 30.5717 34.5613C30.2502 34.03 29.9931 32.521 29.7788 30.0557C29.7637 29.9572 29.7565 29.8577 29.7574 29.7582C29.7485 29.7032 29.7196 29.6533 29.6762 29.6181C29.6327 29.5828 29.5778 29.5646 29.5217 29.5669C29.4935 29.5695 29.4661 29.5777 29.4411 29.5909C29.4161 29.6041 29.394 29.6221 29.3761 29.6439C29.3581 29.6656 29.3447 29.6907 29.3366 29.7176C29.3285 29.7445 29.3258 29.7727 29.3288 29.8007C29.3288 29.8432 29.3502 29.9494 29.3502 30.0769C29.4788 31.7134 29.7145 33.9875 30.1859 34.7738C30.4002 35.1139 30.3788 37.558 30.3574 39.7258V40.1933C30.3514 40.4415 30.3585 40.6898 30.3788 40.9372C30.391 41.2844 30.3839 41.6321 30.3574 41.9786C30.3574 42.0211 30.2288 44.1251 30.1002 45.8891C29.9027 45.7848 29.6811 45.7336 29.4574 45.7403C29.2492 45.7499 29.0417 45.7712 28.8359 45.8041C28.7228 45.8261 28.6082 45.8403 28.4931 45.8466H28.4288C28.2788 45.7616 28.1717 45.6978 28.0645 45.634C27.7778 45.4123 27.4206 45.2993 27.0574 45.3153H26.886C26.5198 45.3301 26.1614 45.4244 25.8359 45.5915C25.7353 45.6486 25.6271 45.6915 25.5145 45.7191C25.4931 45.7191 25.4074 45.6978 25.3431 45.6978L25.1502 45.6553C25.1676 45.493 25.1748 45.3297 25.1717 45.1665C25.2577 44.5108 25.3077 43.851 25.3217 43.19C25.3217 41.2985 24.6145 39.0882 24.0574 37.3029C23.736 36.2828 23.4574 35.4114 23.3931 34.8588C23.2859 33.7749 23.136 32.7973 22.986 31.8834C22.6002 29.3118 22.1931 27.2291 22.7717 24.3599C23.0502 22.2346 24.6145 20.5557 25.236 18.5791C25.2502 18.5228 25.2412 18.4631 25.2111 18.4133C25.1809 18.3635 25.1321 18.3276 25.0752 18.3135C25.0184 18.2994 24.9583 18.3083 24.908 18.3382C24.8578 18.3681 24.8216 18.4165 24.8074 18.4729C24.4576 19.4143 24.0275 20.3244 23.5217 21.1933C22.1288 22.7235 21.2288 25.04 20.9288 28.0579C20.8431 28.8868 20.4574 30.0982 19.8145 31.5221C19.6645 31.8622 19.1931 32.3935 18.8502 32.7973C18.6808 32.965 18.5299 33.1503 18.4002 33.3499C17.6288 34.5188 17.5217 35.3477 17.7574 38.0255C17.9761 40.5442 18.5757 43.016 19.5359 45.3578C19.3764 45.5306 19.2526 45.7327 19.1717 45.9528C18.7431 47.2493 19.1717 47.9294 19.3645 48.2269C19.3814 48.2463 19.3958 48.2677 19.4074 48.2907C19.5359 48.5457 19.8145 48.822 20.436 48.822C20.7861 48.8058 21.1323 48.7414 21.4645 48.6307L21.7645 48.6945C22.0532 48.7553 22.3479 48.7838 22.6431 48.7795C22.9531 48.7756 23.2619 48.74 23.5645 48.6732L23.6288 49.0133C23.6288 49.0345 23.7145 49.5233 24.4002 49.6508C24.5348 49.6744 24.6708 49.6886 24.8074 49.6933C25.1063 49.6933 25.4007 49.6203 25.6645 49.4808C25.9867 49.6968 26.3686 49.8082 26.7574 49.7996C26.9957 49.8003 27.2332 49.7718 27.4645 49.7146C27.6048 49.6774 27.7361 49.6124 27.8502 49.5233L27.9359 49.4596C27.9695 49.4733 27.999 49.4952 28.0217 49.5233C28.152 49.6116 28.2971 49.6764 28.4502 49.7146C28.7105 49.7721 28.9764 49.8007 29.2431 49.7996C29.5243 49.808 29.8035 49.7497 30.0574 49.6296C30.358 49.4556 30.5803 49.1743 30.6788 48.8432C30.7217 48.6732 31.0002 47.2493 30.7645 46.6754C30.7147 46.5306 30.6424 46.3944 30.5502 46.2716ZM18.2074 38.0043C17.9931 35.4327 18.0788 34.6888 18.7859 33.6049C18.9166 33.4252 19.0598 33.2548 19.2145 33.0949C19.6002 32.6485 20.0717 32.1172 20.2431 31.7134C20.9074 30.2257 21.2931 29.0143 21.3788 28.1217C21.5061 26.5386 21.8971 24.9873 22.5359 23.5311C22.446 23.8142 22.3885 24.1065 22.3645 24.4024C21.8717 27.1441 22.2145 29.5031 22.6002 31.9897C22.7502 32.9248 22.8788 33.8812 23.0074 34.9651C23.0717 35.5602 23.3502 36.4528 23.6931 37.4942C24.2502 39.2582 24.9574 41.4472 24.9359 43.2537C24.9282 43.8578 24.8852 44.461 24.8074 45.0602C24.5625 45.0361 24.3235 44.9714 24.1002 44.8689C23.9249 44.8027 23.7461 44.7459 23.5645 44.6989C23.112 44.6167 22.6531 44.574 22.1931 44.5714C21.0788 44.5714 20.3717 44.7839 19.9217 45.0815C18.9841 42.8247 18.4057 40.4372 18.2074 38.0043ZM23.5217 47.1217C23.5002 47.3343 23.5217 48.0356 23.5217 48.2907C22.9868 48.4146 22.4311 48.4218 21.8931 48.3119L21.5288 48.2269C21.4848 48.2235 21.4407 48.2308 21.4002 48.2481C21.0982 48.3611 20.7799 48.4257 20.4574 48.4394C19.9645 48.4394 19.836 48.2056 19.8145 48.1419L19.7502 48.0356C19.5788 47.7806 19.236 47.228 19.6002 46.1229C19.9217 45.1665 21.336 45.0177 22.1717 45.0177C22.5955 45.0152 23.0186 45.0508 23.4359 45.124C23.5859 45.1665 23.7574 45.2302 23.9288 45.2727C24.1843 45.3725 24.4502 45.4438 24.7217 45.4853L24.6788 45.7403C24.3684 45.8288 24.0921 46.0079 23.8857 46.2543C23.6794 46.5007 23.5525 46.8029 23.5217 47.1217ZM30.2931 48.7795C30.2345 48.9864 30.0958 49.1621 29.9074 49.2683C29.7174 49.3461 29.5128 49.3823 29.3074 49.3745C29.069 49.3753 28.8315 49.3467 28.6002 49.2895C28.5019 49.2601 28.4081 49.2171 28.3217 49.162C28.2315 49.0858 28.1185 49.041 28.0002 49.0345C27.8722 49.0441 27.7513 49.0965 27.6574 49.1833C27.5917 49.2459 27.5103 49.2899 27.4217 49.3108C27.2249 49.3584 27.024 49.3869 26.8217 49.3958C26.4879 49.414 26.1593 49.3079 25.9002 49.0983C25.8602 49.0593 25.8063 49.0375 25.7502 49.0375C25.6941 49.0375 25.6403 49.0593 25.6002 49.0983C25.3966 49.2486 25.1466 49.3237 24.8931 49.3108C24.7859 49.3108 24.6788 49.2895 24.5502 49.2895C24.1859 49.2258 24.1217 49.0133 24.1217 48.992L23.9931 48.3119C23.9651 47.9442 23.958 47.5753 23.9717 47.2068C23.9926 46.9591 24.0904 46.724 24.2516 46.5337C24.4127 46.3434 24.6294 46.2073 24.8717 46.1441H24.9574C25.0727 46.1478 25.1875 46.162 25.3002 46.1866C25.4052 46.2128 25.5141 46.22 25.6217 46.2079C25.7753 46.1828 25.9215 46.1247 26.0502 46.0379C26.3208 45.8932 26.6216 45.8132 26.9288 45.8041H27.0788C27.3651 45.7937 27.646 45.884 27.8717 46.0591C27.9788 46.1229 28.1074 46.2079 28.2574 46.2929C28.3427 46.3388 28.439 46.3608 28.5359 46.3566C28.6811 46.3548 28.8252 46.3333 28.9645 46.2929C29.1417 46.2612 29.3206 46.2399 29.5002 46.2291C29.7788 46.2291 30.1431 46.3141 30.4002 46.888C30.5288 47.2068 30.4002 48.2056 30.2931 48.7795Z" fill="#1F1F3F"/>
</svg>
