<svg width="22" height="22" viewBox="0 0 22 22" fill="none" xmlns="http://www.w3.org/2000/svg">
<path fill-rule="evenodd" clip-rule="evenodd" d="M0.414118 14.0002C0.144353 13.0465 0 12.0401 0 11C0 10.6622 0.0152238 10.328 0.0450226 9.998C2.35538 6.3908 6.39854 4 11.0001 4C12.657 4 14.0001 2.65685 14.0001 1V0.414081C14.6974 0.611305 15.3665 0.875565 16.0001 1.19946V5C16.0001 7.76142 13.7615 10 11.0001 10C7.13411 10 4.0001 13.134 4.0001 17V19.4858C3.24125 18.8591 2.56788 18.1325 2.0001 17.3263V17C2.0001 12.0294 6.02954 8 11.0001 8C12.5001 8 14.0001 7 14.0001 5C13.5001 6 11.0001 6 11.0001 6C5.96493 6 1.71992 9.38308 0.414118 14.0002ZM8.0001 21.586C7.30282 21.3887 6.63369 21.1245 6.0001 20.8006V17C6.0001 14.2386 8.23868 12 11.0001 12C14.8661 12 18.0001 8.86599 18.0001 5V2.5144C18.759 3.14113 19.4323 3.86769 20.0001 4.67398V5C20.0001 9.97056 15.9707 14 11.0001 14C9.5001 14 8.0001 15 8.0001 17C8.5001 16 11.0001 16 11.0001 16C16.0351 16 20.2801 12.6171 21.586 8.00019C21.8557 8.9538 22 9.96003 22 11C22 11.3379 21.9848 11.6722 21.9549 12.0024C19.6445 15.6094 15.6015 18 11.0001 18C9.34325 18 8.0001 19.3431 8.0001 21V21.586ZM20.431 16.6651C18.5066 19.8617 15.003 22 11 22C10.6629 22 10.3294 21.9848 10.0001 21.9552V21C10.0001 20.4477 10.4478 20 11.0001 20C14.5732 20 17.8545 18.7507 20.431 16.6651ZM12.0001 0.0448388V1C12.0001 1.55228 11.5524 2 11.0001 2C7.42683 2 4.14537 3.24945 1.5688 5.33529C3.48901 2.14518 6.982 0.00903846 10.9746 1.87076e-05C10.9831 6.23732e-06 10.9916 0 11.0001 0H11.0176C11.3487 0.000518419 11.6764 0.0156687 12.0001 0.0448388Z" fill="#9484F2"/>
</svg>
