<svg width="15" height="15" viewBox="0 0 15 15" fill="none" xmlns="http://www.w3.org/2000/svg">
<path fill-rule="evenodd" clip-rule="evenodd" d="M3.5336 0.272006C3.44805 0.10503 3.27623 0 3.08861 0C2.90099 0 2.72917 0.10503 2.64362 0.272006L1.83824 1.84392L0.270986 2.65145C0.104574 2.7372 0 2.90872 0 3.09592C0 3.28312 0.104574 3.45464 0.270986 3.54039L1.83824 4.34792L2.64362 5.91983C2.72917 6.08681 2.90099 6.19184 3.08861 6.19184C3.27623 6.19184 3.44805 6.08681 3.5336 5.91983L4.33898 4.34792L5.90623 3.54039C6.07265 3.45464 6.17722 3.28312 6.17722 3.09592C6.17722 2.90872 6.07265 2.7372 5.90623 2.65145L4.33898 1.84392L3.5336 0.272006ZM2.655 2.44283L3.08861 1.59652L3.52222 2.44283C3.56984 2.53577 3.64537 2.61147 3.7382 2.6593L4.58558 3.09592L3.7382 3.53254C3.64537 3.58037 3.56984 3.65607 3.52222 3.74901L3.08861 4.59532L2.655 3.74901C2.60738 3.65607 2.53185 3.58037 2.43902 3.53254L1.59164 3.09592L2.43902 2.6593C2.53185 2.61147 2.60738 2.53577 2.655 2.44283ZM10.672 0.290573C10.2878 0.10142 9.82571 0.177964 9.52299 0.480925C9.22026 0.783885 9.14407 1.24599 9.33351 1.6301C9.75994 2.49469 9.99999 3.46836 9.99999 4.50096C9.99999 8.09081 7.08985 11.001 3.49999 11.001C3.17824 11.001 2.86253 10.9777 2.55433 10.9328C2.13191 10.8713 1.71704 11.0847 1.52145 11.4642C1.32586 11.8436 1.39268 12.3053 1.68781 12.6138C3.09334 14.0825 5.07436 14.9994 7.26782 14.9994C11.5402 14.9994 14.999 11.5273 14.999 7.24999C14.999 4.19398 13.2338 1.55166 10.672 0.290573ZM3.49999 12.8437C3.10481 12.5756 2.73955 12.2664 2.4103 11.9224C2.76604 11.9742 3.12989 12.001 3.49999 12.001C3.6727 12.001 3.84403 11.9951 4.01382 11.9836C7.9163 11.7196 11 8.47039 11 4.50096C11 3.88368 10.9254 3.28381 10.7848 2.70988C10.6545 2.17797 10.4674 1.66834 10.2304 1.18776C10.7511 1.44408 11.2339 1.76587 11.6682 2.14242C13.0958 3.38004 13.999 5.20925 13.999 7.24999C13.999 10.9776 10.9854 13.9994 7.26782 13.9994C5.97315 13.9994 4.76385 13.6329 3.73748 12.9977C3.65719 12.948 3.578 12.8967 3.49999 12.8437Z" fill="#6653D9"/>
</svg>
