<svg width="15" height="15" viewBox="0 0 15 15" fill="none" xmlns="http://www.w3.org/2000/svg">
<path fill-rule="evenodd" clip-rule="evenodd" d="M7.5 0C7.77614 0 8 0.223858 8 0.5V2.5C8 2.77614 7.77614 3 7.5 3C7.22386 3 7 2.77614 7 2.5V0.5C7 0.223858 7.22386 0 7.5 0ZM7.5 12C7.77614 12 8 12.2239 8 12.5V14.5C8 14.7761 7.77614 15 7.5 15C7.22386 15 7 14.7761 7 14.5V12.5C7 12.2239 7.22386 12 7.5 12ZM11 7.5C11 9.433 9.433 11 7.5 11C5.567 11 4 9.433 4 7.5C4 5.567 5.567 4 7.5 4C9.433 4 11 5.567 11 7.5ZM7.5 10C8.88071 10 10 8.88071 10 7.5C10 6.11929 8.88071 5 7.5 5C6.11929 5 5 6.11929 5 7.5C5 8.88071 6.11929 10 7.5 10ZM0.5 7C0.223858 7 0 7.22386 0 7.5C0 7.77614 0.223858 8 0.5 8H2.5C2.77614 8 3 7.77614 3 7.5C3 7.22386 2.77614 7 2.5 7H0.5ZM12.5 7C12.2239 7 12 7.22386 12 7.5C12 7.77614 12.2239 8 12.5 8H14.5C14.7761 8 15 7.77614 15 7.5C15 7.22386 14.7761 7 14.5 7H12.5ZM12.8033 2.1967C12.9986 2.39196 12.9986 2.70854 12.8033 2.90381L11.3891 4.31802C11.1938 4.51328 10.8772 4.51328 10.682 4.31802C10.4867 4.12276 10.4867 3.80617 10.682 3.61091L12.0962 2.1967C12.2915 2.00144 12.608 2.00144 12.8033 2.1967ZM4.31802 10.682C4.51328 10.8772 4.51328 11.1938 4.31802 11.3891L2.90381 12.8033C2.70854 12.9986 2.39196 12.9986 2.1967 12.8033C2.00144 12.608 2.00144 12.2915 2.1967 12.0962L3.61091 10.682C3.80618 10.4867 4.12276 10.4867 4.31802 10.682ZM2.90381 2.1967C2.70854 2.00144 2.39196 2.00144 2.1967 2.1967C2.00144 2.39196 2.00144 2.70854 2.1967 2.90381L3.61091 4.31802C3.80617 4.51328 4.12276 4.51328 4.31802 4.31802C4.51328 4.12276 4.51328 3.80617 4.31802 3.61091L2.90381 2.1967ZM11.3891 10.682C11.1938 10.4867 10.8772 10.4867 10.682 10.682C10.4867 10.8772 10.4867 11.1938 10.682 11.3891L12.0962 12.8033C12.2915 12.9986 12.608 12.9986 12.8033 12.8033C12.9986 12.608 12.9986 12.2915 12.8033 12.0962L11.3891 10.682Z" fill="#9484F2"/>
</svg>
