<svg width="56" height="56" viewBox="0 0 56 56" fill="none" xmlns="http://www.w3.org/2000/svg">
<path d="M5.6451 13.2829L5.87579 15.1744L6.37912 19.2973L7.4487 28.0107L10.2799 29.0945L8.79091 29.5621L8.03591 31.0922L8.76994 39.5081L10.2799 40.1882L9.04258 40.8682L9.71368 46.0963L13.4467 48.944L17.4104 47.2014L20.9967 48.1152L28.4837 45.3312L32.762 46.7976L36.0546 45.905C37.2784 45.5791 38.5272 45.3587 39.7877 45.2462L47.5893 44.6086L48.5959 44.3323C47.4005 42.7172 47.2328 41.1233 47.2537 39.1043L47.2747 36.8941L47.023 30.0934L44.7161 28.712L45.9325 27.5431L45.4921 24.8441L44.8839 15.8757L41.78 15.6419L44.5064 14.5793L44.1708 10.0101L42.8286 9.69133L43.9821 8.94751L43.8353 5.75969L37.4178 6.67353L36.6628 8.52247L34.272 6.52476L29.4904 7.24734L24.6668 5.56842L24.3941 5.3559L11.9158 8.22494L11.1608 10.839L8.79091 8.26744L5.49829 8.54372L5.6451 13.2829Z" fill="#D2D5E4"/>
<path d="M13.4258 49.2843L9.44115 46.2453L8.7281 40.6772L9.58795 40.2096L8.4974 39.7208L7.72144 31.0286L8.56032 29.2859L9.29434 29.0521L7.15519 28.2446L5.33062 13.3042L5.16284 8.24615L8.89587 7.94861L10.9931 10.2226L11.6432 7.96987L24.4991 5.03705L24.8347 5.31333L29.5324 6.94976L34.377 6.22718L36.5371 8.03362L37.1872 6.41845L44.129 5.41959L44.2968 9.13874L43.6257 9.58504L44.4645 9.77631L44.842 14.8131L43.2062 15.4507L45.1776 15.5994L45.8068 24.8229L46.2891 27.6707L45.2405 28.6696L47.3377 29.9235L47.5894 36.8942L47.5684 39.1257C47.5474 41.251 47.7572 42.6749 48.8477 44.1625L49.1203 44.5451L47.6104 44.9489L39.8087 45.5864C38.5696 45.6918 37.3417 45.9051 36.1386 46.224L32.7411 47.1378L28.4838 45.6714L21.0177 48.4342L17.4525 47.5204L13.4258 49.2843ZM10.0284 45.9052L13.5097 48.5618L17.4105 46.8616L20.9968 47.7754L28.4838 44.9914L32.7831 46.479L35.9918 45.6077C37.2347 45.2714 38.5053 45.0509 39.7878 44.9489L47.5684 44.3113L48.1137 44.1625C47.149 42.6536 46.9602 41.1447 46.9812 39.1045L47.0022 36.8942L46.7295 30.306L44.2129 28.7971L45.618 27.4582L45.1986 24.8867L44.6113 16.1945L40.375 15.8757L44.1919 14.3881L43.8773 10.2864L42.0527 9.84007L43.6886 8.7987L43.5627 6.14217L37.6696 6.99226L36.8307 9.05373L34.2302 6.886L29.5114 7.60858L24.562 5.88714L24.3733 5.73837L12.1675 8.50117L11.3286 11.4552L8.66518 8.60743L5.81298 8.84121L5.95978 13.2829L7.72144 27.7983L11.2447 29.1372L9.00074 29.8385L8.3506 31.1774L9.06365 39.317L10.9931 40.1883L9.37823 41.0809L10.0284 45.9052Z" fill="#2A2F5A"/>
<path d="M24.6039 31.7721L12.7966 34.2586L13.4048 37.2551L14.4534 42.3769C14.4762 42.4893 14.5418 42.5881 14.6361 42.6518C14.7303 42.7154 14.8456 42.7388 14.9568 42.7169L25.9252 40.4217C26.0361 40.3986 26.1336 40.3321 26.1964 40.2366C26.2593 40.1411 26.2824 40.0243 26.2607 39.9116L25.2121 34.7899L24.6039 31.7721Z" fill="#EB5C2C"/>
<path d="M24.5619 31.9845L23.6181 32.1758L24.1215 34.6198L14.3694 36.6813L13.8661 34.2373L12.9224 34.4285L14.6421 42.6108H15.5858L15.5648 42.5045L25.3169 40.4643L26.0509 40.0605L24.5619 31.9845ZM15.3551 41.5269L14.5582 37.6377L18.5848 36.7876L18.6268 37.0214L18.7107 37.4464C18.761 37.673 18.8965 37.8707 19.0883 37.9977C19.2802 38.1247 19.5134 38.1709 19.7383 38.1265C19.8506 38.1043 19.9574 38.0595 20.0523 37.9948C20.1473 37.93 20.2284 37.8466 20.291 37.7495C20.3536 37.6524 20.3963 37.5436 20.4166 37.4295C20.437 37.3153 20.4345 37.1983 20.4094 37.0851L20.3255 36.6601L20.2836 36.4263L24.3102 35.5762L25.1071 39.4654L15.3551 41.5269Z" fill="white"/>
<path d="M31.0842 53.6834C32.4857 53.6834 33.6219 52.5321 33.6219 51.1118C33.6219 49.6916 32.4857 48.5403 31.0842 48.5403C29.6828 48.5403 28.5466 49.6916 28.5466 51.1118C28.5466 52.5321 29.6828 53.6834 31.0842 53.6834Z" fill="#EB5C2C"/>
<path d="M53.3986 7.03436C57.0897 17.3842 56.0201 25.3964 52.0983 33.3022C48.4282 40.7405 42.3463 45.1398 42.3463 45.1398L39.6619 42.1432L41.5494 40.1455C45.1775 34.9599 47.2957 28.9668 47.2118 22.6123L46.7295 16.3641L53.3986 7.03436Z" fill="white"/>
<path d="M42.3044 45.565L39.2424 42.1433L41.3187 39.9331C45.0517 34.5988 46.9811 28.6056 46.8972 22.6125L46.4149 16.2581L53.5035 6.35449L53.7132 6.9283C57.1316 16.5343 56.7332 24.6952 52.4129 33.4512C48.7428 40.8682 42.6189 45.3737 42.556 45.4162L42.3044 45.565ZM40.1023 42.1646L42.3882 44.7149C43.5207 43.8435 48.617 39.6356 51.8257 33.1536C55.9782 24.759 56.4396 16.8744 53.2937 7.71464L47.0441 16.4493L47.5054 22.5912C47.5893 28.7544 45.618 34.8751 41.801 40.3369L41.7801 40.3794L40.1023 42.1646Z" fill="#2A2F5A"/>
<path d="M44.7584 47.5626H44.5696L37.1874 38.2541L37.2503 37.9778C37.2795 37.7045 37.228 37.4285 37.1023 37.1848C36.9767 36.9411 36.7826 36.7407 36.5445 36.6089C36.3064 36.477 36.0351 36.4197 35.7648 36.4441C35.4946 36.4685 35.2376 36.5736 35.0263 36.7461C34.815 36.9186 34.6589 37.1507 34.5778 37.4131C34.4967 37.6754 34.4943 37.9563 34.5707 38.2201C34.6471 38.4839 34.7991 38.7188 35.0073 38.8951C35.2155 39.0714 35.4706 39.1811 35.7404 39.2104C35.9162 39.229 36.0939 39.2145 36.2647 39.1679L43.3323 48.1789L43.563 48.0726C43.3736 48.312 43.2684 48.6086 43.2641 48.9153C43.2597 49.2221 43.3564 49.5216 43.5389 49.7664C43.7214 50.0113 43.9792 50.1874 44.2715 50.2671C44.5639 50.3468 44.8742 50.3254 45.1532 50.2064C45.4322 50.0873 45.6641 49.8774 45.8122 49.6098C45.9603 49.3422 46.0161 49.0321 45.9708 48.7288C45.9255 48.4254 45.7817 48.1461 45.5621 47.9348C45.3425 47.7236 45.0597 47.5926 44.7584 47.5626Z" fill="#EB5C2C"/>
<path d="M45.9744 39.678C45.8962 39.6784 45.821 39.6479 45.7647 39.5929C45.7034 39.5377 45.665 39.4609 45.6572 39.3781C45.6494 39.2954 45.6728 39.2127 45.7227 39.1467C55.4328 27.5854 52.6225 13.3889 52.6016 13.2614C52.5867 13.1776 52.6049 13.0912 52.6522 13.0209C52.6994 12.9505 52.7721 12.9017 52.8545 12.885C52.9368 12.8683 53.0224 12.8851 53.0928 12.9316C53.1631 12.9781 53.2127 13.0507 53.2307 13.1339C53.2517 13.2826 53.9857 16.8318 53.4824 21.8686C53.021 26.5228 51.4062 33.3873 46.2261 39.5717C46.1555 39.6335 46.0673 39.6707 45.9744 39.678Z" fill="#2A2F5A"/>
<path d="M31.0844 52.0466C31.594 52.0466 32.0072 51.628 32.0072 51.1116C32.0072 50.5952 31.594 50.1766 31.0844 50.1766C30.5748 50.1766 30.1616 50.5952 30.1616 51.1116C30.1616 51.628 30.5748 52.0466 31.0844 52.0466Z" fill="#2A2F5A"/>
<path d="M31.0843 52.3655H30.9375C30.7736 52.3493 30.6148 52.2996 30.4706 52.2192C30.3263 52.1388 30.1998 52.0295 30.0986 51.8979C29.8967 51.6394 29.7992 51.3127 29.826 50.9841C29.8419 50.8181 29.891 50.6571 29.9703 50.5109C30.0496 50.3648 30.1575 50.2365 30.2873 50.134C30.5425 49.9294 30.8648 49.8307 31.1891 49.8577C31.353 49.8739 31.5118 49.9236 31.6561 50.004C31.8003 50.0844 31.9268 50.1937 32.028 50.3253C32.2299 50.5838 32.3274 50.9105 32.3007 51.2391C32.2847 51.4051 32.2356 51.5661 32.1563 51.7123C32.077 51.8584 31.9691 51.9867 31.8393 52.0892C31.6288 52.2706 31.3606 52.3687 31.0843 52.3655ZM31.0843 50.474C30.9476 50.4705 30.814 50.5157 30.7068 50.6016C30.5792 50.7082 30.4966 50.8603 30.4761 51.0266C30.4643 51.1058 30.4694 51.1866 30.4911 51.2636C30.5128 51.3406 30.5506 51.412 30.6019 51.4729C30.7072 51.6022 30.8572 51.6858 31.0214 51.7067C31.0995 51.7186 31.1793 51.7134 31.2552 51.6914C31.3312 51.6694 31.4017 51.6311 31.4618 51.5791C31.5894 51.4725 31.6719 51.3204 31.6925 51.1541C31.7043 51.0749 31.6991 50.9941 31.6774 50.9171C31.6557 50.8401 31.6179 50.7687 31.5666 50.7078C31.4614 50.5785 31.3113 50.4949 31.1472 50.474C31.1375 50.4792 31.1267 50.482 31.1157 50.482C31.1048 50.482 31.094 50.4792 31.0843 50.474ZM45.9325 47.8813C45.7973 47.7034 45.6265 47.5566 45.4313 47.4504C45.2362 47.3441 45.021 47.281 44.8 47.265H44.7161L37.5437 38.1691C37.561 38.1142 37.5681 38.0565 37.5647 37.999C37.6064 37.5504 37.479 37.1025 37.2081 36.7452C37.0729 36.5673 36.9021 36.4205 36.7069 36.3142C36.5118 36.208 36.2966 36.1448 36.0756 36.1289C35.633 36.0865 35.1909 36.2156 34.8383 36.4901C34.6628 36.6271 34.5179 36.8002 34.413 36.998C34.3082 37.1958 34.2459 37.4138 34.2301 37.6378C34.1883 38.0863 34.3157 38.5343 34.5866 38.8916C34.7218 39.0695 34.8926 39.2163 35.0878 39.3226C35.283 39.4288 35.4981 39.4919 35.7191 39.5079H35.9079C35.9923 39.5114 36.0768 39.5043 36.1595 39.4867L38.4455 42.3982L31.8183 48.3063C31.6812 48.2658 31.5408 48.2373 31.3989 48.2213C31.0264 48.1766 30.6488 48.208 30.2886 48.3139C29.9283 48.4198 29.5927 48.5979 29.3016 48.8376C28.7149 49.3176 28.3382 50.0123 28.253 50.7716C28.2089 51.149 28.24 51.5316 28.3444 51.8967C28.4489 52.2617 28.6246 52.6018 28.8612 52.8968C29.3349 53.4914 30.0205 53.8731 30.7697 53.9594C30.8736 53.977 30.979 53.9841 31.0843 53.9806C31.7335 53.9841 32.3637 53.7588 32.8669 53.3431L34.7334 54.1932C35.227 54.4213 35.7638 54.5373 36.3063 54.5332C36.6029 54.5306 36.8983 54.4949 37.1872 54.4269L37.2291 54.4057C39.5151 53.8531 42.2205 52.3017 42.3673 49.8152C42.4197 48.9252 42.3563 48.032 42.1785 47.1587L43.0384 48.2638C42.9837 48.4071 42.9484 48.5572 42.9335 48.7101C42.8917 49.1587 43.0191 49.6067 43.29 49.964C43.4252 50.1418 43.596 50.2887 43.7912 50.3949C43.9864 50.5011 44.2016 50.5643 44.4225 50.5803H44.6113C45.0228 50.5815 45.4202 50.4278 45.7263 50.149C46.0324 49.8702 46.2255 49.4862 46.2681 49.0714C46.296 48.8603 46.2806 48.6456 46.2229 48.4409C46.1651 48.2361 46.0663 48.0456 45.9325 47.8813ZM35.782 38.8704C35.5048 38.8399 35.2497 38.703 35.069 38.4878C34.9792 38.3799 34.9124 38.2543 34.8727 38.119C34.8331 37.9837 34.8213 37.8416 34.8383 37.7015C34.851 37.5618 34.8909 37.426 34.9557 37.302C35.0205 37.1779 35.1089 37.0682 35.2158 36.9789C35.4011 36.8304 35.6297 36.7482 35.8659 36.7452H35.9917C36.269 36.7756 36.5241 36.9125 36.7048 37.1277C36.7945 37.2357 36.8613 37.3612 36.901 37.4965C36.9407 37.6318 36.9525 37.7739 36.9355 37.914C36.9228 38.0538 36.8829 38.1896 36.8181 38.3136C36.7533 38.4376 36.6649 38.5474 36.558 38.6366C36.4515 38.7275 36.3276 38.7952 36.1941 38.8355C36.0605 38.8757 35.9203 38.8876 35.782 38.8704ZM33.3073 51.3454C33.2765 51.6402 33.1885 51.9259 33.0483 52.1861C32.9081 52.4462 32.7186 52.6758 32.4905 52.8614C32.2625 53.0471 32.0004 53.1852 31.7195 53.2679C31.4386 53.3505 31.1443 53.3761 30.8536 53.3431C30.5632 53.3131 30.2818 53.2243 30.026 53.0819C29.7702 52.9395 29.5453 52.7465 29.3646 52.5142C29.1794 52.2843 29.0414 52.0193 28.9586 51.7346C28.8758 51.45 28.8498 51.1515 28.8822 50.8566C28.9118 50.5623 28.9994 50.2771 29.1399 50.0179C29.2804 49.7587 29.4709 49.5308 29.7001 49.3477C30.0937 49.0309 30.5816 48.8585 31.0843 48.8589C31.1687 48.8554 31.2532 48.8625 31.3359 48.8801C31.6257 48.9093 31.9069 48.9964 32.1633 49.1364C32.4196 49.2764 32.646 49.4665 32.8294 49.6958C33.0127 49.9251 33.1494 50.1889 33.2314 50.4721C33.3135 50.7552 33.3393 51.0521 33.3073 51.3454ZM41.0251 48.4338C40.8992 50.4315 38.5923 51.8767 36.3692 52.4292H36.3273C35.6405 52.6015 34.9164 52.5341 34.272 52.238L33.7897 52.0254C33.8275 51.9148 33.8555 51.801 33.8736 51.6854L41.0251 46.9037C41.082 47.4121 41.082 47.9254 41.0251 48.4338ZM39.0327 42.1432L38.9069 41.9732L36.7887 39.2529C36.8483 39.2156 36.9044 39.1729 36.9565 39.1254C37.0698 39.035 37.1689 38.9275 37.2501 38.8066L44.0031 47.3287C43.7841 47.4152 43.5844 47.5453 43.4159 47.7113L39.0327 42.1432ZM45.6599 49.0501C45.6283 49.3287 45.4893 49.5833 45.2732 49.7584C45.0572 49.9336 44.7815 50.0151 44.5064 49.9852C44.2292 49.9548 43.9741 49.8179 43.7934 49.6027C43.7036 49.4947 43.6368 49.3692 43.5971 49.2339C43.5574 49.0986 43.5457 48.9565 43.5627 48.8164C43.5919 48.5546 43.7147 48.3128 43.9079 48.1366C44.1011 47.9604 44.3514 47.862 44.6113 47.86H44.7161C44.9933 47.8905 45.2485 48.0274 45.4292 48.2426C45.5222 48.3528 45.5909 48.4818 45.6307 48.6211C45.6704 48.7604 45.6804 48.9067 45.6599 49.0501ZM34.4188 15.1105C34.4188 15.1105 34.6076 15.0255 34.9222 14.9192V14.4092L35.3206 14.7917C35.6665 14.7184 36.0168 14.6687 36.3692 14.643L36.9145 14.6217L36.6629 14.0691L37.5437 14.6217C38.3197 14.643 39.0327 14.6855 39.0327 14.6855C39.0327 14.6855 37.6905 13.2403 36.2224 13.1766C34.2091 13.0916 33.3912 13.7929 33.3912 13.7929C33.3912 13.7929 32.4894 12.4115 31.273 11.7527C29.763 10.9451 27.8126 11.7739 27.8126 11.7739C27.8126 11.7739 28.5257 12.0502 29.3226 12.4115L29.6162 11.9652L29.784 12.624C30.107 12.7551 30.4162 12.9189 30.7068 13.1128L31.0423 13.3466L31.1472 12.7728L31.4198 13.5803L31.9651 14.3879C30.8255 13.9521 29.582 13.878 28.3998 14.1754L26.2188 16.5982C26.2188 16.5982 26.8269 16.4069 27.6658 16.1944L27.7707 15.5143L28.0223 16.1094C28.4837 16.0031 28.9661 15.9181 29.4485 15.8543L29.3646 15.1743L29.9098 15.7906C29.9804 15.7941 30.0511 15.7869 30.1196 15.7693C30.4551 15.7481 30.7487 15.7481 31.0423 15.7481L30.8746 15.1105L31.5666 15.7693C32.028 15.7693 32.4265 15.7906 32.6782 15.8118L32.5943 16.3006L32.1539 16.0031L32.028 16.8319L31.5037 16.4706L31.3569 17.8308L30.7278 17.4057L30.7907 18.8934L30.0147 18.5321L30.2454 20.0622L29.3646 19.616L29.7001 21.3161L28.9032 21.1249L29.4485 22.6338L28.8403 22.5913L29.5953 23.9301L28.9661 23.9514L29.7211 25.014L29.1339 25.0352L29.763 25.9916L30.539 25.9703L31.0214 24.9502L30.3922 24.9715L30.6439 23.8876L30.2034 23.9089L30.6439 22.6975L30.0986 22.655L30.8116 21.5924L30.2454 21.4436L31.0843 20.4873L30.5809 20.2323L31.6925 19.3397L31.1891 19.0846L32.2168 18.4046L31.5666 17.9583L32.762 17.3632L32.3845 17.0869L33.1186 16.6619L32.762 16.4069L33.2863 16.1519C33.3702 16.2581 33.4751 16.3856 33.559 16.5131L33.9365 16.4281L33.7058 16.7894C33.9096 17.1916 34.078 17.6112 34.2091 18.0433L34.6286 18.1283L34.335 18.5108C34.7263 19.2278 34.942 20.0295 34.9641 20.8486C35.2953 20.3009 35.5228 19.6955 35.6352 19.0634C35.7066 18.2431 35.4749 17.4252 34.9851 16.7682C35.2133 16.8322 35.4374 16.9103 35.6562 17.0019L36.3063 16.7257L35.9498 17.1295C36.7539 17.5163 37.4906 18.0331 38.1309 18.6596L38.6972 18.4683L38.4874 19.0209C39.557 20.1473 39.8506 20.5936 39.9135 20.7636C39.8087 20.2535 39.3263 17.9795 38.3616 17.0019C36.8516 15.493 34.4188 15.1105 34.4188 15.1105Z" fill="#2A2F5A"/>
<path d="M13.8033 20.7423L13.7823 20.7211C13.1115 19.8574 12.254 19.1612 11.276 18.6859C10.298 18.2106 9.22546 17.969 8.14085 17.9796C4.32393 17.9796 1.22006 20.8911 1.22006 24.4402V26.0129C1.22136 26.0882 1.24313 26.1617 1.28297 26.2254C1.55561 26.5867 2.20574 27.628 2.12186 28.2868C2.12509 28.312 2.12084 28.3376 2.10963 28.3603C2.09842 28.3831 2.08077 28.4019 2.05894 28.4143C1.89116 28.4781 1.4088 28.3081 1.09422 28.0956C1.04781 28.0655 0.994687 28.0477 0.939726 28.0438C0.884766 28.0399 0.829722 28.0501 0.779637 28.0733C0.729553 28.0966 0.68603 28.1322 0.653054 28.177C0.620079 28.2217 0.598705 28.2741 0.590892 28.3293L0.00367295 31.7722C-0.00368171 31.8217 3.9398e-05 31.8722 0.0145605 31.92C0.0290815 31.9678 0.0540306 32.0117 0.0875613 32.0485C0.116019 32.0889 0.153845 32.1217 0.197721 32.144C0.241598 32.1662 0.290186 32.1772 0.339227 32.176L5.22573 32.1547H6.79864C6.86938 32.1573 6.93892 32.1356 6.996 32.0932C7.05309 32.0508 7.09439 31.9901 7.11322 31.9209L7.59558 30.3695H8.51835C10.4688 30.3695 15.0197 30.3695 15.0197 24.4827C15.0348 23.1337 14.6069 21.8179 13.8033 20.7423Z" fill="white"/>
<path d="M13.8033 20.7423L13.7823 20.7211C13.1115 19.8574 12.254 19.1612 11.276 18.6859C10.298 18.2106 9.22546 17.969 8.14085 17.9796C4.32393 17.9796 1.22006 20.8911 1.22006 24.4402V26.0129C1.22136 26.0882 1.24313 26.1617 1.28297 26.2254C1.55561 26.5867 2.20574 27.628 2.12186 28.2868C2.12509 28.312 2.12084 28.3376 2.10963 28.3603C2.09842 28.3831 2.08077 28.4019 2.05894 28.4143C1.89116 28.4781 1.4088 28.3081 1.09422 28.0956C1.04781 28.0655 0.994687 28.0477 0.939726 28.0438C0.884766 28.0399 0.829722 28.0501 0.779637 28.0733C0.729553 28.0966 0.68603 28.1322 0.653054 28.177C0.620079 28.2217 0.598705 28.2741 0.590892 28.3293L0.00367295 31.7722C-0.00368171 31.8217 3.9398e-05 31.8722 0.0145605 31.92C0.0290815 31.9678 0.0540306 32.0117 0.0875613 32.0485C0.116019 32.0889 0.153845 32.1217 0.197721 32.144C0.241598 32.1662 0.290186 32.1772 0.339227 32.176L5.22573 32.1547H6.79864C6.86938 32.1573 6.93892 32.1356 6.996 32.0932C7.05309 32.0508 7.09439 31.9901 7.11322 31.9209L7.59558 30.3695H8.51835C10.4688 30.3695 15.0197 30.3695 15.0197 24.4827C15.0348 23.1337 14.6069 21.8179 13.8033 20.7423ZM8.53932 29.6682H7.84724C7.99405 29.3919 8.45543 28.7969 9.65084 28.8394C9.73706 28.8422 9.82084 28.8102 9.88377 28.7504C9.9467 28.6906 9.98361 28.608 9.9864 28.5206C9.98918 28.4332 9.95759 28.3483 9.8986 28.2846C9.8396 28.2208 9.75803 28.1834 9.67181 28.1806C7.65849 28.1168 7.17613 29.5195 7.15516 29.5832L7.09225 29.7532C7.05566 29.7852 7.0257 29.8242 7.0041 29.868C6.9825 29.9117 6.96969 29.9594 6.96641 30.0083V30.0933L6.526 31.4534H5.6242L5.83392 30.5608C5.84999 30.4748 5.83247 30.3858 5.78505 30.3126C5.73763 30.2393 5.66402 30.1876 5.57973 30.1684C5.49543 30.1491 5.40704 30.1637 5.33318 30.2092C5.25932 30.2546 5.20576 30.3273 5.18378 30.412L4.95309 31.4534H3.92546L4.13518 30.5608C4.15125 30.4748 4.13373 30.3858 4.08631 30.3126C4.03889 30.2393 3.96528 30.1876 3.88099 30.1684C3.79669 30.1491 3.7083 30.1637 3.63444 30.2092C3.56058 30.2546 3.50702 30.3273 3.48504 30.412L3.25435 31.4534H2.20574L2.41547 30.5396C2.43154 30.4535 2.41402 30.3645 2.3666 30.2913C2.31918 30.2181 2.24557 30.1664 2.16127 30.1471C2.07698 30.1278 1.98859 30.1424 1.91473 30.1879C1.84087 30.2334 1.7873 30.3061 1.76533 30.3908L1.53464 31.4534H0.737697L1.17811 28.8606C1.51366 29.0094 1.99602 29.1582 2.35255 28.9882C2.47289 28.9279 2.57633 28.8379 2.6533 28.7265C2.73027 28.6151 2.77831 28.4858 2.79296 28.3506C2.9188 27.4155 2.14283 26.2466 1.89116 25.8854V24.419C1.89116 21.2311 4.70142 18.6384 8.14085 18.6384C9.07714 18.6314 10.0039 18.829 10.858 19.2177C11.7121 19.6065 12.4735 20.1772 13.0903 20.8911L12.0836 22.1875C12.0529 22.2297 12.0314 22.2781 12.0205 22.3294C12.0097 22.3807 12.0097 22.4337 12.0207 22.485L12.2933 23.4626L11.5174 24.1427C11.4515 24.1996 11.4102 24.2804 11.4024 24.3678C11.3945 24.4552 11.4207 24.5422 11.4754 24.6102C11.5064 24.6464 11.5453 24.6749 11.5889 24.6933C11.6326 24.7117 11.6799 24.7197 11.7271 24.7165C11.766 24.7186 11.805 24.7121 11.8412 24.6974C11.8774 24.6827 11.91 24.6602 11.9368 24.6315L12.8596 23.8239C12.9104 23.7858 12.9479 23.7324 12.9668 23.6712C12.9857 23.6101 12.9848 23.5445 12.9644 23.4839L12.6708 22.4638L13.4678 21.4437C14.0436 22.3261 14.35 23.361 14.3486 24.419C14.3696 29.0307 11.5803 29.6682 8.53932 29.6682ZM5.35156 24.2914C4.99069 24.2914 4.63793 24.3999 4.33788 24.603C4.03783 24.8062 3.80397 25.095 3.66587 25.4328C3.52778 25.7707 3.49164 26.1424 3.56205 26.5011C3.63245 26.8597 3.80622 27.1892 4.06139 27.4478C4.31656 27.7063 4.64167 27.8824 4.9956 27.9538C5.34954 28.0251 5.7164 27.9885 6.04979 27.8486C6.38319 27.7086 6.66815 27.4716 6.86864 27.1676C7.06912 26.8635 7.17613 26.5061 7.17613 26.1404C7.17558 25.6502 6.98317 25.1802 6.64111 24.8336C6.29906 24.487 5.8353 24.292 5.35156 24.2914ZM5.35156 27.3305C5.19993 27.3311 5.04969 27.3012 4.90949 27.2427C4.7693 27.1841 4.64192 27.098 4.5347 26.9894C4.42748 26.8807 4.34254 26.7517 4.28477 26.6096C4.227 26.4675 4.19754 26.3153 4.19809 26.1616C4.19809 25.8516 4.31962 25.5543 4.53594 25.3351C4.75225 25.1159 5.04564 24.9928 5.35156 24.9928C5.65748 24.9928 5.95087 25.1159 6.16718 25.3351C6.3835 25.5543 6.50503 25.8516 6.50503 26.1616C6.50558 26.3153 6.47612 26.4675 6.41835 26.6096C6.36058 26.7517 6.27564 26.8807 6.16842 26.9894C6.0612 27.098 5.93382 27.1841 5.79363 27.2427C5.65343 27.3012 5.50319 27.3311 5.35156 27.3305Z" fill="#2A2F5A"/>
<path d="M39.2423 47.2227C39.1627 47.2219 39.0862 47.1909 39.028 47.1358C38.9698 47.0807 38.934 47.0056 38.9277 46.9251C38.8019 45.2887 37.7323 44.5874 37.6694 44.5449C37.5993 44.4979 37.5495 44.4256 37.53 44.3427C37.5106 44.2599 37.5229 44.1726 37.5646 44.0986C37.6099 44.0263 37.6813 43.9748 37.7635 43.955C37.8457 43.9352 37.9323 43.9486 38.005 43.9923C38.4618 44.3196 38.839 44.7481 39.1079 45.2452C39.3769 45.7424 39.5304 46.2951 39.5569 46.8614C39.5605 46.9454 39.532 47.0277 39.4773 47.091C39.4226 47.1543 39.346 47.1938 39.2633 47.2014L39.2423 47.2227ZM37.8372 48.2853C37.7576 48.2845 37.6811 48.2535 37.6229 48.1984C37.5647 48.1433 37.5289 48.0682 37.5226 47.9877C37.3968 46.3938 36.3272 46.0113 36.2643 45.99C36.2225 45.9791 36.1833 45.9597 36.1492 45.933C36.115 45.9062 36.0865 45.8728 36.0655 45.8346C36.0445 45.7964 36.0314 45.7542 36.0269 45.7107C36.0224 45.6672 36.0267 45.6233 36.0395 45.5815C36.0523 45.5397 36.0733 45.501 36.1013 45.4677C36.1293 45.4345 36.1637 45.4073 36.2023 45.3878C36.241 45.3684 36.2832 45.3571 36.3263 45.3547C36.3693 45.3523 36.4125 45.3588 36.453 45.3737C36.5159 45.395 37.984 45.8838 38.1308 47.924C38.1344 48.008 38.1059 48.0903 38.0512 48.1536C37.9965 48.2169 37.9199 48.2565 37.8372 48.264C37.8582 48.2853 37.8372 48.2853 37.8372 48.2853ZM36.0965 49.0504C36.0137 49.0482 35.935 49.0139 35.8764 48.9546C35.8179 48.8953 35.784 48.8154 35.7819 48.7316C35.7749 48.4275 35.69 48.1306 35.5355 47.8698C35.3811 47.609 35.1625 47.3933 34.9011 47.2439C34.8346 47.2014 34.7865 47.1349 34.7665 47.0579C34.7466 46.9808 34.7562 46.8989 34.7934 46.8288C34.8307 46.7587 34.8929 46.7055 34.9673 46.6799C35.0418 46.6544 35.1231 46.6585 35.1947 46.6914C35.2367 46.7126 36.4111 47.3714 36.4111 48.7528C36.4097 48.7933 36.4005 48.8331 36.384 48.87C36.3674 48.9068 36.3439 48.94 36.3147 48.9677C36.2854 48.9953 36.2511 49.0168 36.2137 49.031C36.1763 49.0452 36.1364 49.0518 36.0965 49.0504Z" fill="white"/>
<path d="M3.88343 34.7264C3.83342 34.5145 3.73263 34.3183 3.58997 34.1552C3.44731 33.9921 3.26718 33.8671 3.06552 33.7913C2.85764 33.7299 2.63807 33.7211 2.42602 33.7655C2.21398 33.81 2.01591 33.9064 1.84914 34.0464C1.46929 34.3552 1.18532 34.7684 1.03123 35.2365C0.865386 35.7005 0.843433 36.2047 0.96831 36.6817C1.01832 36.8936 1.11911 37.0898 1.26177 37.2529C1.40443 37.416 1.58456 37.541 1.78622 37.6168C1.9006 37.6585 2.02119 37.68 2.14275 37.6805C2.45645 37.6745 2.75915 37.5623 3.0026 37.3617C3.38245 37.0529 3.66642 36.6397 3.82051 36.1716C3.98676 35.7077 4.00871 35.2034 3.88343 34.7264ZM3.06552 34.3864L3.04455 34.3652C3.05011 34.3652 3.05544 34.3674 3.05938 34.3714C3.06331 34.3754 3.06552 34.3808 3.06552 34.3864ZM3.33816 36.0228C3.22766 36.3924 3.00808 36.7187 2.70899 36.9579C2.61137 37.0478 2.49254 37.1106 2.36397 37.1404C2.2354 37.1702 2.10143 37.1659 1.97497 37.128C1.8514 37.0783 1.7423 36.9977 1.65793 36.8936C1.57355 36.7895 1.51667 36.6654 1.49261 36.5329C1.39168 36.162 1.40633 35.7686 1.53456 35.4065C1.64506 35.037 1.86463 34.7106 2.16372 34.4714C2.32017 34.3465 2.51025 34.2724 2.70899 34.2589C2.77263 34.2554 2.8364 34.2626 2.89774 34.2802L3.02358 34.3439C2.99332 34.3297 2.96058 34.3218 2.92726 34.3205C2.89394 34.3192 2.8607 34.3247 2.82948 34.3365C2.79826 34.3484 2.76968 34.3664 2.74539 34.3896C2.72111 34.4127 2.70161 34.4406 2.68802 34.4714C2.64458 34.5974 2.58835 34.7185 2.52025 34.8327C2.47155 34.8187 2.4199 34.8193 2.37152 34.8343C2.32314 34.8494 2.2801 34.8784 2.24761 34.9177C2.20833 34.976 2.19097 35.0467 2.19866 35.1169C2.20636 35.187 2.2386 35.2521 2.28955 35.3003L2.31052 35.3215L2.1008 35.8953C2.05969 35.8926 2.01862 35.9011 1.98178 35.9197C1.94493 35.9384 1.91364 35.9667 1.89108 36.0016C1.85181 36.0599 1.83444 36.1306 1.84214 36.2007C1.84983 36.2709 1.88207 36.336 1.93303 36.3841H1.954C1.93692 36.4243 1.92972 36.468 1.93303 36.5116C1.9221 36.5818 1.9376 36.6535 1.97646 36.7125C2.01531 36.7716 2.07468 36.8137 2.14275 36.8304H2.18469C2.24184 36.8323 2.29791 36.8143 2.34365 36.7795C2.38939 36.7448 2.42209 36.6953 2.43636 36.6392H2.4783C2.51401 36.6366 2.54925 36.6295 2.58316 36.6179C2.64659 36.5919 2.69745 36.5417 2.72488 36.4782C2.75231 36.4146 2.75414 36.3427 2.72997 36.2779C2.71863 36.2396 2.69688 36.2053 2.6672 36.179C2.63752 36.1527 2.60113 36.1354 2.56219 36.1291C2.62299 35.9484 2.69299 35.7711 2.77191 35.5978H2.81385C2.84956 35.5953 2.8848 35.5881 2.91871 35.5765C2.98214 35.5505 3.03301 35.5003 3.06044 35.4368C3.08787 35.3733 3.08969 35.3014 3.06552 35.2365C3.05738 35.2092 3.0439 35.1839 3.02588 35.1619C3.00787 35.14 2.98569 35.122 2.96066 35.109C3.00681 34.9773 3.0629 34.8494 3.12844 34.7264C3.14902 34.6813 3.15601 34.631 3.14855 34.5819C3.14109 34.5328 3.11951 34.4869 3.08649 34.4502C3.2106 34.5716 3.29791 34.7265 3.33816 34.8965C3.47499 35.2591 3.47499 35.6602 3.33816 36.0228ZM24.8136 50.5169C24.7736 50.3018 24.6818 50.1001 24.5465 49.9296C24.4111 49.7591 24.2363 49.625 24.0376 49.5393C23.5906 49.3388 23.0962 49.2723 22.6131 49.3476C22.1299 49.4229 21.6781 49.637 21.3112 49.9643C21.1433 50.1035 21.0142 50.2848 20.937 50.4903C20.8597 50.6957 20.8369 50.9181 20.8708 51.1352C20.9048 51.3524 20.9943 51.5567 21.1304 51.7279C21.2666 51.899 21.4446 52.0311 21.6468 52.1108C21.9613 52.2606 22.3061 52.3334 22.6535 52.3233C22.7941 52.3197 22.9343 52.3055 23.0729 52.2808C24.1634 52.1108 24.9394 51.3245 24.8136 50.5169ZM24.2893 50.7294C24.2882 50.6944 24.2803 50.66 24.2659 50.6282C24.2516 50.5963 24.2311 50.5677 24.2057 50.544C24.1804 50.5202 24.1506 50.5018 24.1181 50.4899C24.0856 50.478 24.0511 50.4727 24.0166 50.4744C23.9957 50.4744 23.8489 50.4744 23.6182 50.4956C23.6069 50.4458 23.5807 50.4006 23.5431 50.3664C23.5056 50.3322 23.4586 50.3105 23.4084 50.3044C23.3393 50.2933 23.2685 50.309 23.2102 50.3484C23.1519 50.3878 23.1104 50.4479 23.0939 50.5169V50.5594L22.5066 50.6232C22.4898 50.5906 22.466 50.5622 22.437 50.5401C22.408 50.5181 22.3745 50.5029 22.3389 50.4956C22.2697 50.4846 22.1989 50.5003 22.1406 50.5397C22.0823 50.579 22.0408 50.6392 22.0243 50.7082V50.7294L21.8985 50.7719C21.8338 50.7922 21.7787 50.8359 21.7439 50.8947C21.709 50.9535 21.6969 51.0233 21.7097 51.0907C21.7294 51.1435 21.7636 51.1895 21.8081 51.2234C21.8527 51.2572 21.9058 51.2776 21.9614 51.282H22.0243C22.0356 51.3336 22.0655 51.379 22.1082 51.4095C22.1538 51.452 22.214 51.4748 22.276 51.4733C22.3118 51.4751 22.3476 51.4684 22.3803 51.4536C22.4131 51.4388 22.442 51.4164 22.4647 51.3882C22.489 51.3591 22.5071 51.3252 22.518 51.2886C22.5288 51.252 22.5321 51.2136 22.5276 51.1757L23.0939 51.112C23.1052 51.1636 23.1351 51.209 23.1778 51.2395C23.2234 51.282 23.2836 51.3048 23.3455 51.3032C23.4088 51.3035 23.4698 51.2795 23.5165 51.2362C23.5631 51.1929 23.5919 51.1333 23.5972 51.0695C23.8279 51.0482 23.9957 51.0482 24.0166 51.0482C24.0678 51.0478 24.1175 51.0311 24.1589 51.0007C24.2002 50.9702 24.2312 50.9274 24.2473 50.8782C24.1215 51.3032 23.6182 51.6858 22.9471 51.792C22.5704 51.8643 22.1808 51.8121 21.8355 51.6433C21.7131 51.598 21.6043 51.5213 21.5198 51.4207C21.4353 51.3202 21.3779 51.1992 21.3532 51.0695C21.3389 50.9369 21.3583 50.8028 21.4097 50.68C21.4611 50.5572 21.5428 50.4498 21.6468 50.3681C21.9362 50.1128 22.2938 49.9501 22.6744 49.9006C23.0514 49.8452 23.4361 49.8967 23.7859 50.0493C23.9084 50.0947 24.0172 50.1713 24.1017 50.2719C24.1862 50.3724 24.2436 50.4935 24.2683 50.6232C24.2773 50.628 24.2852 50.6349 24.2913 50.6432C24.2974 50.6515 24.3016 50.6611 24.3036 50.6713C24.3056 50.6814 24.3053 50.6919 24.3029 50.702C24.3004 50.712 24.2957 50.7214 24.2893 50.7294ZM20.4724 53.4285C20.2817 52.9733 19.9506 52.593 19.5286 52.3446C19.349 52.22 19.1406 52.1446 18.9238 52.126C18.7069 52.1074 18.489 52.1461 18.2913 52.2383C17.5363 52.5996 17.3265 53.6835 17.8089 54.7036C17.9996 55.1588 18.3307 55.5391 18.7526 55.7875C18.9743 55.9232 19.2277 55.9966 19.4867 56C19.6528 55.9976 19.8169 55.9615 19.969 55.8937C20.745 55.5537 20.9547 54.4698 20.4724 53.4285ZM19.7593 55.4262C19.6357 55.4732 19.503 55.49 19.3718 55.4752C19.2406 55.4605 19.1147 55.4145 19.0043 55.3412C18.6824 55.1372 18.4271 54.8414 18.2703 54.4911C17.9347 53.7472 18.0396 52.9609 18.501 52.7271C18.5392 52.7036 18.5822 52.689 18.6268 52.6846C18.5615 52.7092 18.5079 52.758 18.4767 52.8211C18.4456 52.8842 18.4393 52.957 18.459 53.0247C18.459 53.0459 18.5219 53.1947 18.5849 53.4072C18.54 53.4308 18.5036 53.4682 18.481 53.514C18.4584 53.5598 18.4507 53.6117 18.459 53.6622C18.4638 53.7263 18.4925 53.7861 18.5392 53.8296C18.586 53.873 18.6473 53.8967 18.7107 53.896H18.7736C18.8378 54.0854 18.9148 54.27 19.0043 54.4486C18.9759 54.4757 18.9537 54.5088 18.9392 54.5455C18.9247 54.5822 18.9183 54.6216 18.9204 54.6611C18.9252 54.7252 18.9539 54.785 19.0006 54.8284C19.0474 54.8718 19.1087 54.8956 19.1721 54.8949H19.214L19.2769 55.0224C19.2991 55.064 19.3327 55.0981 19.3736 55.1208C19.4146 55.1434 19.4611 55.1535 19.5076 55.1499C19.5589 55.1457 19.6088 55.1313 19.6544 55.1074C19.711 55.0691 19.7511 55.0106 19.7666 54.9435C19.7822 54.8764 19.7721 54.8059 19.7383 54.7461C19.7805 54.7103 19.816 54.6671 19.8432 54.6186C19.8713 54.5534 19.874 54.4799 19.8506 54.4128C19.8273 54.3457 19.7796 54.2901 19.7174 54.2573C19.6809 54.2414 19.6417 54.2332 19.602 54.2332C19.5623 54.2332 19.5231 54.2414 19.4867 54.2573L19.256 53.726C19.2982 53.6902 19.3337 53.647 19.3608 53.5985C19.389 53.5333 19.3916 53.4598 19.3683 53.3927C19.3449 53.3256 19.2973 53.27 19.235 53.2372C19.1808 53.2197 19.124 53.2125 19.0672 53.2159C18.9833 52.9822 18.9204 52.8334 18.9204 52.8121C18.906 52.7659 18.8784 52.7251 18.8411 52.6948C18.8037 52.6645 18.7584 52.6462 18.7107 52.6421H18.7317C18.9031 52.6448 19.0702 52.6964 19.214 52.7909C19.5359 52.9949 19.7912 53.2906 19.9481 53.641C20.3465 54.3848 20.2417 55.1924 19.7593 55.4262ZM7.30188 44.0987C6.25328 43.6737 5.20467 43.9499 4.91106 44.7363C4.83979 44.9416 4.81973 45.1616 4.85266 45.3766C4.88559 45.5917 4.9705 45.7951 5.09981 45.9689C5.37922 46.376 5.7742 46.6873 6.23231 46.8615C6.53916 46.9861 6.86644 47.051 7.19702 47.0528C7.35164 47.0501 7.50585 47.0359 7.65841 47.0103C7.87021 46.9766 8.07001 46.8886 8.23884 46.7547C8.40768 46.6208 8.53996 46.4454 8.62312 46.2452C8.93771 45.4589 8.35049 44.5238 7.30188 44.0987ZM8.14077 46.0327C8.08462 46.1529 7.99945 46.2568 7.89314 46.3348C7.78683 46.4129 7.66281 46.4624 7.53257 46.479C7.15997 46.5579 6.77251 46.5209 6.42105 46.3727C6.06276 46.2372 5.75494 45.9921 5.54023 45.6714C5.46187 45.5667 5.40953 45.4445 5.38763 45.315C5.36573 45.1856 5.37491 45.0527 5.41439 44.9275L5.47731 44.8C5.44696 44.8626 5.4409 44.9345 5.46031 45.0014C5.47973 45.0683 5.52322 45.1254 5.58217 45.1613C5.60314 45.1613 5.72898 45.2463 5.9387 45.3526C5.92638 45.402 5.92769 45.4539 5.94248 45.5026C5.95728 45.5513 5.98498 45.595 6.02258 45.6289C6.06824 45.6714 6.12839 45.6942 6.19036 45.6926C6.2262 45.6945 6.26196 45.6877 6.29475 45.673C6.32754 45.6582 6.35644 45.6358 6.37911 45.6076L6.40008 45.5864C6.56786 45.6714 6.75661 45.7564 6.94536 45.8414C6.94326 45.8809 6.94968 45.9203 6.96417 45.957C6.97866 45.9937 7.00086 46.0268 7.02924 46.0539C7.0749 46.0964 7.13505 46.1193 7.19702 46.1177C7.23286 46.1195 7.26862 46.1128 7.30141 46.098C7.3342 46.0832 7.3631 46.0609 7.38577 46.0327L7.40674 46.0114L7.53257 46.0539H7.59549C7.65264 46.0558 7.70871 46.0378 7.75445 46.003C7.80019 45.9683 7.83289 45.9188 7.84716 45.8626C7.86453 45.7979 7.85684 45.7288 7.82566 45.6695C7.79448 45.6103 7.74216 45.5653 7.67938 45.5439C7.69024 45.4877 7.69024 45.43 7.67938 45.3738C7.66924 45.3398 7.65233 45.3081 7.6297 45.2809C7.60707 45.2537 7.57919 45.2314 7.54777 45.2155C7.51636 45.1996 7.48206 45.1904 7.44699 45.1883C7.41192 45.1863 7.37682 45.1916 7.34383 45.2038C7.27066 45.2289 7.21031 45.2824 7.17605 45.3526C6.99753 45.2836 6.82254 45.2056 6.65175 45.1188C6.6626 45.0627 6.6626 45.0049 6.65175 44.9488C6.6416 44.9147 6.6247 44.8831 6.60207 44.8559C6.57944 44.8287 6.55156 44.8064 6.52014 44.7905C6.48872 44.7746 6.45443 44.7653 6.41936 44.7633C6.38429 44.7613 6.34918 44.7666 6.31619 44.7788C6.28926 44.787 6.26423 44.8007 6.24262 44.8189C6.221 44.8372 6.20323 44.8597 6.19036 44.885C5.98064 44.7788 5.83384 44.6938 5.81286 44.6938C5.77002 44.6711 5.72174 44.661 5.67354 44.6648C5.62533 44.6685 5.57914 44.6859 5.54023 44.715C5.77136 44.5265 6.06163 44.4285 6.35814 44.4387C6.61709 44.4366 6.87384 44.4872 7.11313 44.5875C7.86813 44.9063 8.32951 45.5651 8.14077 46.0327Z" fill="#2A2F5A"/>
<path d="M21.8777 8.18219L19.3611 4.76046L21.0179 0.828662L25.2123 0.339844L27.729 3.76157L26.0512 7.67211L21.8777 8.18219ZM25.2123 0.339844L24.5412 1.91256L25.2123 0.339844ZM21.1857 0.977433L22.0455 2.2101L21.1857 0.977433ZM19.445 4.78171L21.0598 4.54793L19.445 4.78171ZM22.5908 6.5032L21.8777 8.18219L22.5908 6.5032ZM25.0445 6.29067L26.156 7.71462L25.0445 6.29067ZM26.0302 3.95285L27.729 3.76157L26.0302 3.95285Z" fill="#EB5C2C"/>
<path d="M15.7327 20.1896C15.6922 19.9939 15.6711 19.7945 15.6698 19.5945C15.6663 19.4737 15.6734 19.3528 15.6908 19.2332C15.7019 19.1487 15.6794 19.0631 15.6283 18.9954C15.5772 18.9276 15.5016 18.8832 15.4182 18.8719C15.3347 18.8607 15.2503 18.8834 15.1834 18.9353C15.1166 18.9871 15.0728 19.0637 15.0616 19.1482C15.0442 19.2963 15.0372 19.4454 15.0407 19.5945C15.0417 19.8367 15.0627 20.0784 15.1036 20.3171C15.1187 20.39 15.1583 20.4553 15.2157 20.5018C15.2731 20.5484 15.3447 20.5732 15.4182 20.5721H15.4811C15.5615 20.5498 15.6312 20.4988 15.6774 20.4285C15.7236 20.3582 15.7433 20.2734 15.7327 20.1896ZM16.5507 22.2298L16.1732 21.9323L16.1312 21.6135C16.1257 21.5716 16.1121 21.5313 16.0912 21.4947C16.0703 21.4582 16.0425 21.4262 16.0094 21.4005C15.9763 21.3749 15.9385 21.3561 15.8983 21.3452C15.858 21.3343 15.816 21.3316 15.7747 21.3372C15.7334 21.3428 15.6936 21.3566 15.6575 21.3777C15.6214 21.3989 15.5898 21.4271 15.5645 21.4606C15.5392 21.4942 15.5207 21.5324 15.5099 21.5733C15.4992 21.6141 15.4965 21.6566 15.502 21.6985L15.565 22.1448C15.5736 22.2201 15.6113 22.2888 15.6698 22.3361C15.8283 22.4822 15.9964 22.6171 16.1732 22.7398C16.2283 22.7798 16.2941 22.802 16.3619 22.8036C16.4109 22.8048 16.4595 22.7938 16.5034 22.7716C16.5473 22.7494 16.5851 22.7166 16.6136 22.6761C16.6392 22.6429 16.6579 22.6049 16.6686 22.5642C16.6794 22.5235 16.6819 22.481 16.676 22.4394C16.6701 22.3977 16.656 22.3576 16.6344 22.3216C16.6129 22.2856 16.5844 22.2544 16.5507 22.2298ZM23.052 8.7134C23.0429 8.79759 23.0661 8.8821 23.1169 8.94937C23.1677 9.01665 23.2421 9.06153 23.3246 9.07469H23.3666C23.4421 9.07124 23.5142 9.04209 23.5713 8.99195C23.6284 8.94182 23.6671 8.87362 23.6812 8.79841L23.7441 8.35211V8.2671L26.2817 7.96957L28.0853 3.71913L25.3589 0L20.808 0.531305L19.0044 4.78174L21.7308 8.50088L23.0939 8.33086L23.052 8.7134ZM26.0091 7.01322L25.4219 6.24814L26.2607 4.25044L27.2255 4.14418L26.0091 7.01322ZM24.8346 5.99312L22.6955 6.24814L21.4162 4.50546L22.2551 2.50776L24.3942 2.25273L25.6735 3.99541L24.8346 5.99312ZM25.275 0.977601L27.1416 3.50661L26.1768 3.61287L24.8975 1.87019L25.275 0.977601ZM24.7088 0.722574L24.3313 1.63642L22.1921 1.87019L21.6469 1.06261L24.7088 0.722574ZM21.1226 1.4239L21.6888 2.25273L20.829 4.25044L19.8433 4.37795L21.1226 1.4239ZM21.7937 7.54453L19.9481 5.01552L20.9128 4.888L22.1921 6.63068L21.7937 7.54453ZM22.7584 6.88571L24.8975 6.63068L25.5057 7.41702L22.3599 7.79955L22.7584 6.88571ZM37.1243 26.289C37.1847 26.3534 37.2674 26.3915 37.355 26.3952C37.3939 26.3973 37.4329 26.3908 37.4691 26.3762C37.5053 26.3615 37.5379 26.339 37.5647 26.3102C37.5959 26.2829 37.6213 26.2494 37.6394 26.2119C37.6574 26.1743 37.6677 26.1334 37.6697 26.0916C37.6717 26.0499 37.6652 26.0082 37.6508 25.969C37.6363 25.9299 37.6142 25.8941 37.5857 25.8639C37.3422 25.5935 37.0831 25.338 36.8097 25.0988C36.7799 25.0699 36.7446 25.0475 36.706 25.0329C36.6674 25.0182 36.6262 25.0117 36.585 25.0137C36.5438 25.0157 36.5034 25.0261 36.4663 25.0444C36.4293 25.0627 36.3962 25.0885 36.3693 25.1201C36.3163 25.1833 36.289 25.2646 36.2929 25.3474C36.2968 25.4303 36.3316 25.5085 36.3903 25.5664C36.6547 25.7858 36.9002 26.0275 37.1243 26.289ZM16.6345 16.9167C16.3182 17.1188 16.0292 17.3617 15.7747 17.6393C15.7462 17.6695 15.724 17.7053 15.7096 17.7444C15.6951 17.7836 15.6887 17.8253 15.6906 17.867C15.6926 17.9088 15.7029 17.9497 15.721 17.9873C15.739 18.0248 15.7644 18.0583 15.7957 18.0856C15.8224 18.1144 15.855 18.1369 15.8913 18.1516C15.9275 18.1662 15.9664 18.1727 16.0054 18.1706C16.093 18.1669 16.1757 18.1288 16.2361 18.0644C16.4531 17.8273 16.6999 17.6201 16.9701 17.448C17.0052 17.4249 17.0354 17.3949 17.0588 17.3596C17.0821 17.3244 17.0982 17.2847 17.1061 17.243C17.1139 17.2013 17.1133 17.1585 17.1044 17.117C17.0954 17.0755 17.0783 17.0363 17.054 17.0018C17.0066 16.9378 16.9377 16.8938 16.8603 16.8781C16.7829 16.8624 16.7025 16.8762 16.6345 16.9167ZM21.0387 23.7812H21.0177C20.6881 23.7811 20.3589 23.7598 20.032 23.7174C19.9907 23.7119 19.9487 23.7146 19.9084 23.7254C19.8682 23.7363 19.8304 23.7551 19.7973 23.7808C19.7642 23.8064 19.7364 23.8384 19.7155 23.875C19.6946 23.9115 19.681 23.9519 19.6755 23.9937C19.67 24.0356 19.6727 24.0781 19.6834 24.119C19.6941 24.1598 19.7127 24.198 19.738 24.2316C19.7633 24.2651 19.7949 24.2933 19.8309 24.3145C19.867 24.3357 19.9068 24.3494 19.9481 24.355C20.3031 24.3974 20.6603 24.4187 21.0177 24.4188H21.0387C21.1214 24.4166 21.2002 24.3823 21.2588 24.323C21.3173 24.2637 21.3511 24.1839 21.3533 24.1C21.3541 24.0579 21.3466 24.016 21.3311 23.977C21.3156 23.9379 21.2924 23.9024 21.263 23.8726C21.2336 23.8429 21.1986 23.8194 21.1601 23.8037C21.1215 23.788 21.0802 23.7803 21.0387 23.7812ZM21.0177 14.5365C20.7658 14.7467 20.4995 14.9384 20.2208 15.1103C20.149 15.1503 20.0956 15.2173 20.0721 15.2968C20.0486 15.3763 20.0568 15.4619 20.0949 15.5354C20.1222 15.585 20.1616 15.6267 20.2093 15.6565C20.2571 15.6862 20.3116 15.7031 20.3676 15.7054C20.4188 15.7012 20.4687 15.6867 20.5144 15.6629C20.8312 15.4749 21.1327 15.2617 21.4162 15.0253C21.4775 14.97 21.5159 14.8933 21.5236 14.8105C21.5314 14.7277 21.508 14.645 21.4581 14.579C21.4341 14.5439 21.4029 14.5145 21.3665 14.493C21.3302 14.4714 21.2896 14.4581 21.2477 14.4541C21.2057 14.45 21.1634 14.4553 21.1237 14.4695C21.084 14.4838 21.0478 14.5066 21.0177 14.5365ZM18.6688 23.3987C18.3489 23.2951 18.0398 23.1599 17.7461 22.9949C17.6716 22.9628 17.5879 22.9611 17.5122 22.99C17.4365 23.0189 17.3747 23.0762 17.3397 23.15C17.3046 23.2238 17.2989 23.3085 17.3238 23.3865C17.3487 23.4644 17.4023 23.5297 17.4734 23.5687C17.7973 23.7373 18.1339 23.8794 18.4801 23.9937C18.5123 24.0109 18.5487 24.0183 18.5849 24.015C18.6495 24.0144 18.7123 23.9936 18.7648 23.9556C18.8173 23.9176 18.857 23.8641 18.8786 23.8025C18.9023 23.7207 18.8938 23.6328 18.8546 23.5574C18.8154 23.482 18.7488 23.4251 18.6688 23.3987ZM18.9205 15.7479L18.6269 15.8754L17.9558 16.1942C17.8808 16.2309 17.8232 16.2962 17.7956 16.3759C17.7681 16.4556 17.7729 16.5431 17.809 16.6192C17.8375 16.6741 17.8795 16.7205 17.9309 16.754C17.9824 16.7875 18.0415 16.807 18.1026 16.8105C18.1456 16.8138 18.1888 16.8065 18.2284 16.7892C18.4381 16.683 18.6688 16.5767 18.8786 16.4917L19.1722 16.3642C19.2114 16.3485 19.2468 16.3244 19.276 16.2936C19.3053 16.2629 19.3276 16.226 19.3415 16.1857C19.3555 16.1454 19.3607 16.1025 19.3568 16.0599C19.3529 16.0174 19.34 15.9762 19.319 15.9391C19.3081 15.8981 19.2885 15.8599 19.2617 15.8273C19.2348 15.7947 19.2013 15.7684 19.1634 15.7502C19.1255 15.732 19.0841 15.7224 19.0422 15.722C19.0002 15.7216 18.9587 15.7304 18.9205 15.7479ZM34.5028 33.6635C34.2195 33.8576 33.9254 34.035 33.6219 34.1948C33.5502 34.2348 33.4968 34.3017 33.4733 34.3812C33.4497 34.4607 33.4579 34.5464 33.4961 34.6198C33.5234 34.6695 33.5628 34.7112 33.6105 34.7409C33.6582 34.7707 33.7127 34.7875 33.7687 34.7898C33.82 34.7857 33.8699 34.7712 33.9156 34.7473C34.2329 34.5805 34.541 34.396 34.8383 34.1948C34.8735 34.1717 34.9036 34.1416 34.927 34.1064C34.9504 34.0711 34.9664 34.0315 34.9743 33.9898C34.9821 33.9481 34.9815 33.9052 34.9726 33.8637C34.9636 33.8223 34.9465 33.7831 34.9222 33.7485C34.9008 33.7143 34.8728 33.6848 34.8398 33.6619C34.8069 33.6389 34.7696 33.623 34.7304 33.6151C34.6912 33.6071 34.6508 33.6073 34.6117 33.6156C34.5726 33.6239 34.5355 33.6402 34.5028 33.6635ZM33.601 23.2286C33.6323 23.1519 33.6347 23.0661 33.6076 22.9877C33.5805 22.9093 33.5259 22.8438 33.4542 22.8036C33.1248 22.6423 32.7806 22.5142 32.4265 22.4211C32.3472 22.4003 32.2631 22.4113 32.1916 22.4517C32.1201 22.4921 32.0667 22.5589 32.0424 22.6381C32.0182 22.7173 32.0249 22.803 32.0613 22.8773C32.0976 22.9517 32.1609 23.009 32.2378 23.0374C32.5598 23.1368 32.8751 23.2574 33.1815 23.3987C33.2212 23.416 33.2643 23.4233 33.3074 23.4199C33.3684 23.4164 33.4276 23.397 33.479 23.3634C33.5305 23.3299 33.5725 23.2835 33.601 23.2286ZM32.3217 34.7898C32.0066 34.9152 31.6844 35.0217 31.357 35.1086C31.2855 35.1325 31.2245 35.181 31.1846 35.2457C31.1446 35.3103 31.1282 35.387 31.1381 35.4626C31.1481 35.5382 31.1838 35.6079 31.239 35.6597C31.2943 35.7115 31.3657 35.7421 31.4408 35.7462C31.4704 35.7494 31.5001 35.7418 31.5247 35.7249C31.8603 35.6187 32.2168 35.5124 32.5524 35.3849C32.5909 35.3696 32.6261 35.3467 32.6559 35.3175C32.6858 35.2884 32.7096 35.2536 32.7262 35.2151C32.7427 35.1766 32.7517 35.1352 32.7524 35.0932C32.7532 35.0513 32.7458 35.0096 32.7306 34.9705C32.7155 34.9314 32.6929 34.8957 32.6641 34.8655C32.6354 34.8353 32.601 34.8111 32.5631 34.7943C32.5251 34.7776 32.4842 34.7685 32.4428 34.7678C32.4014 34.767 32.3602 34.7745 32.3217 34.7898ZM35.7192 24.5888C35.7666 24.5202 35.7865 24.4359 35.7748 24.353C35.7631 24.2701 35.7207 24.1948 35.6562 24.1425C35.3626 23.93 35.069 23.7174 34.7754 23.5262C34.7034 23.4879 34.6198 23.4787 34.5413 23.5005C34.4629 23.5223 34.3956 23.5735 34.353 23.6437C34.3104 23.7138 34.2957 23.7978 34.3118 23.8786C34.3279 23.9593 34.3737 24.0309 34.4399 24.0787C34.7125 24.2488 35.0061 24.4613 35.2997 24.6525C35.3549 24.6925 35.4207 24.7147 35.4885 24.7163C35.5341 24.715 35.5788 24.7028 35.6189 24.6806C35.659 24.6584 35.6934 24.627 35.7192 24.5888ZM30.9165 22.1448C30.581 22.1235 30.2245 22.1023 29.847 22.1023C29.7635 22.1023 29.6835 22.1359 29.6245 22.1956C29.5655 22.2554 29.5324 22.3365 29.5324 22.4211C29.5324 22.5056 29.5655 22.5867 29.6245 22.6465C29.6835 22.7063 29.7635 22.7398 29.847 22.7398C30.2035 22.7398 30.56 22.7611 30.8746 22.7824H30.8956C30.9752 22.7815 31.0517 22.7506 31.1099 22.6955C31.1681 22.6404 31.2039 22.5653 31.2102 22.4848C31.2099 22.4018 31.18 22.3217 31.1261 22.2592C31.0721 22.1967 30.9977 22.1561 30.9165 22.1448ZM38.11 27.4153C38.1031 27.3749 38.0884 27.3362 38.0668 27.3014C38.0451 27.2667 38.0169 27.2367 37.9838 27.213C37.9507 27.1893 37.9133 27.1725 37.8738 27.1634C37.8343 27.1544 37.7934 27.1533 37.7534 27.1603C37.7135 27.1673 37.6753 27.1822 37.6411 27.2041C37.6068 27.226 37.5771 27.2546 37.5538 27.2881C37.5304 27.3217 37.5138 27.3596 37.5049 27.3996C37.4959 27.4397 37.4949 27.4811 37.5018 27.5216C37.5505 27.8524 37.5786 28.186 37.5857 28.5204V28.5417C37.5857 28.6262 37.6188 28.7073 37.6778 28.7671C37.7368 28.8269 37.8168 28.8605 37.9002 28.8605C37.9837 28.8605 38.0637 28.8269 38.1227 28.7671C38.1817 28.7073 38.2148 28.6262 38.2148 28.5417C38.2017 28.1645 38.1667 27.7884 38.11 27.4153ZM36.7468 31.9846C36.6816 31.934 36.6 31.9103 36.5183 31.9182C36.4367 31.9261 36.3609 31.9649 36.3064 32.0271C36.0923 32.2903 35.8611 32.5388 35.6143 32.7709C35.5561 32.829 35.5216 32.9072 35.5177 32.9899C35.5138 33.0726 35.5408 33.1537 35.5933 33.2172C35.6537 33.2816 35.7364 33.3197 35.824 33.3234C35.863 33.3256 35.9019 33.3191 35.9381 33.3044C35.9743 33.2897 36.007 33.2672 36.0337 33.2384C36.3015 32.9851 36.5536 32.7154 36.7887 32.4308C36.8179 32.4002 36.8401 32.3635 36.854 32.3233C36.8678 32.2831 36.8729 32.2403 36.8689 32.1979C36.865 32.1555 36.852 32.1145 36.8309 32.0777C36.8098 32.0409 36.7811 32.0091 36.7468 31.9846ZM37.7744 29.6893C37.7345 29.6795 37.693 29.6778 37.6524 29.6842C37.6118 29.6906 37.5729 29.7051 37.5378 29.7268C37.5028 29.7486 37.4723 29.7771 37.4481 29.8107C37.4239 29.8444 37.4065 29.8826 37.3969 29.9231C37.3165 30.2455 37.2041 30.5588 37.0614 30.8582C37.027 30.9345 37.023 31.0214 37.0504 31.1006C37.0778 31.1798 37.1343 31.2453 37.2082 31.2832C37.2478 31.3005 37.291 31.3078 37.334 31.3045C37.3961 31.3053 37.457 31.2875 37.5092 31.2535C37.5614 31.2195 37.6025 31.1707 37.6276 31.1132C37.7901 30.7809 37.9166 30.4317 38.0051 30.0719C38.0148 30.0314 38.0165 29.9894 38.0102 29.9482C38.0038 29.9071 37.9895 29.8676 37.9681 29.8321C37.9466 29.7966 37.9185 29.7657 37.8853 29.7412C37.852 29.7167 37.8144 29.699 37.7744 29.6893ZM27.54 35.5974H27.4771L26.4495 35.6399C26.4073 35.6402 26.3657 35.6495 26.3274 35.6673C26.2891 35.685 26.2549 35.7108 26.2272 35.743C26.1994 35.7751 26.1787 35.8129 26.1664 35.8537C26.1541 35.8946 26.1505 35.9376 26.1559 35.98C26.1572 36.0204 26.1664 36.0602 26.183 36.0971C26.1995 36.134 26.2231 36.1672 26.2523 36.1948C26.2815 36.2224 26.3158 36.244 26.3533 36.2582C26.3907 36.2723 26.4305 36.2789 26.4705 36.2775H26.4914L27.4981 36.235C27.581 36.2386 27.6622 36.2097 27.7247 36.1543C27.7871 36.0989 27.8262 36.0212 27.8336 35.9375C27.8334 35.8544 27.8035 35.7743 27.7496 35.7118C27.6956 35.6493 27.6212 35.6087 27.54 35.5974ZM23.828 23.5899C23.8002 23.5102 23.7437 23.4439 23.6698 23.4045C23.596 23.3651 23.5101 23.3555 23.4295 23.3774C23.107 23.4848 22.7777 23.57 22.4438 23.6324C22.3617 23.6518 22.29 23.7021 22.2432 23.7732C22.1965 23.8443 22.1782 23.9307 22.1921 24.015C22.2072 24.0879 22.2469 24.1532 22.3043 24.1997C22.3617 24.2462 22.4332 24.2711 22.5067 24.27H22.5696C22.9246 24.2005 23.2748 24.1082 23.6182 23.9937C23.6982 23.9673 23.7648 23.9104 23.804 23.835C23.8432 23.7596 23.8518 23.6717 23.828 23.5899ZM22.4648 13.8352C22.6723 13.521 22.848 13.1863 22.9891 12.8363C23.0225 12.7574 23.0235 12.6683 22.9921 12.5886C22.9606 12.5089 22.8992 12.4451 22.8213 12.4113C22.7434 12.3775 22.6555 12.3764 22.5768 12.4083C22.4982 12.4401 22.4352 12.5024 22.4019 12.5813C22.2773 12.8867 22.1227 13.1786 21.9405 13.4526C21.9162 13.4872 21.899 13.5264 21.8901 13.5679C21.8812 13.6094 21.8806 13.6522 21.8884 13.6939C21.8963 13.7356 21.9123 13.7753 21.9357 13.8105C21.9591 13.8458 21.9892 13.8758 22.0244 13.8989C22.0719 13.9383 22.1308 13.9607 22.1921 13.9627C22.2448 13.969 22.2981 13.9604 22.3462 13.9379C22.3943 13.9154 22.4354 13.8798 22.4648 13.8352ZM29.9728 35.4487C29.6399 35.5108 29.3038 35.5533 28.9661 35.5762C28.885 35.5874 28.8105 35.6281 28.7566 35.6906C28.7026 35.753 28.6728 35.8332 28.6725 35.9162C28.6788 35.9967 28.7146 36.0718 28.7728 36.1269C28.831 36.1819 28.9075 36.2129 28.9871 36.2137H29.0081C29.3671 36.185 29.7243 36.1354 30.0777 36.065C30.1184 36.0597 30.1576 36.046 30.1928 36.0245C30.228 36.0031 30.2583 35.9745 30.282 35.9405C30.3057 35.9065 30.3221 35.8679 30.3303 35.8271C30.3384 35.7864 30.3381 35.7443 30.3293 35.7037C30.3227 35.6631 30.3082 35.6242 30.2867 35.5893C30.2651 35.5544 30.2369 35.5242 30.2038 35.5005C30.1706 35.4768 30.1331 35.46 30.0934 35.4511C30.0538 35.4422 30.0128 35.4413 29.9728 35.4487ZM28.337 22.1235C27.9804 22.1448 27.6239 22.1873 27.2674 22.2298C27.1848 22.2429 27.1104 22.2878 27.0597 22.3551C27.0089 22.4224 26.9857 22.5069 26.9948 22.5911C27.0017 22.6694 27.0384 22.742 27.097 22.7935C27.1557 22.8451 27.2318 22.8715 27.3093 22.8674H27.3513C27.6868 22.8249 28.0224 22.7823 28.3789 22.7611C28.4601 22.7498 28.5345 22.7092 28.5885 22.6467C28.6424 22.5842 28.6723 22.5041 28.6725 22.4211C28.6704 22.379 28.66 22.3377 28.6418 22.2998C28.6237 22.2619 28.5982 22.228 28.5669 22.2003C28.5356 22.1725 28.4991 22.1514 28.4596 22.1383C28.4201 22.1251 28.3784 22.1201 28.337 22.1235ZM26.1768 22.7398C26.1672 22.6994 26.1499 22.6612 26.1257 22.6275C26.1015 22.5938 26.071 22.5653 26.036 22.5436C26.0009 22.5219 25.9619 22.5074 25.9213 22.501C25.8807 22.4945 25.8393 22.4963 25.7993 22.5061C25.4009 22.6123 25.0444 22.7186 24.7507 22.8249C24.7119 22.8413 24.6768 22.8654 24.6473 22.8958C24.6178 22.9261 24.5945 22.9622 24.5789 23.0017C24.5633 23.0413 24.5556 23.0836 24.5563 23.1262C24.557 23.1688 24.5661 23.2109 24.583 23.2499C24.6058 23.309 24.6465 23.3593 24.6992 23.3937C24.7519 23.428 24.814 23.4446 24.8766 23.4412C24.9196 23.4445 24.9628 23.4372 25.0024 23.4199C25.3161 23.2962 25.6386 23.1968 25.9671 23.1224C26.0434 23.0973 26.1074 23.0439 26.1463 22.973C26.1852 22.902 26.1961 22.8187 26.1768 22.7398ZM22.8633 10.2011L22.7374 11.2424L23.052 11.2849L23.3666 11.3062L23.4924 10.2648C23.5015 10.1806 23.4783 10.0961 23.4275 10.0288C23.3767 9.96155 23.3023 9.91668 23.2198 9.90352C23.1354 9.90302 23.0535 9.93252 22.9884 9.98688C22.9232 10.0412 22.879 10.117 22.8633 10.2011Z" fill="#2A2F5A"/>
<path d="M13.0064 3.06056L10.5107 8.20355L12.0627 11.5401L16.6556 2.16797L13.0064 3.06056ZM16.6136 2.63551L12.4611 11.2426L21.3533 10.2225L16.6136 2.63551Z" fill="white"/>
<path d="M21.8777 10.4777L16.5718 1.8493L12.7758 2.7844L10.1753 8.2037L11.7901 11.6678L11.937 11.604V11.6253L21.8777 10.4777ZM15.5022 5.67469L15.5232 5.65344L19.9902 9.52133L14.2229 8.28871L15.5022 5.67469ZM13.8035 7.7149L12.6919 5.99348L14.7472 5.73845L13.8035 7.7149ZM13.9503 8.88377L19.6966 10.0951L12.9856 10.8602L13.9503 8.88377ZM16.6557 3.2732L20.0532 8.71375L15.8168 5.05838L16.6557 3.2732ZM16.2782 2.57188L15.0828 5.01588L13.8874 3.14569L16.2782 2.57188ZM13.2162 3.33696H13.2582L14.4326 5.16464L12.2096 5.44092L13.2162 3.33696ZM10.8674 8.22495L11.937 6.01473L13.1743 7.92742L10.8883 8.30996L10.8674 8.22495ZM11.182 8.88377L13.426 8.52248L12.1886 11.0727L11.182 8.88377Z" fill="#2A2F5A"/>
<path d="M24.7507 4.20821C24.7016 4.20944 24.6531 4.19845 24.6092 4.17622C24.5653 4.15399 24.5275 4.1212 24.499 4.08071L23.7021 2.9969C23.652 2.92927 23.6305 2.84426 23.6423 2.76056C23.6541 2.67687 23.6982 2.60136 23.765 2.55063C23.8317 2.49991 23.9156 2.47813 23.9982 2.49008C24.0808 2.50204 24.1553 2.54675 24.2054 2.61439L25.0023 3.69819C25.0282 3.73123 25.0472 3.76928 25.0581 3.81C25.069 3.85073 25.0716 3.89328 25.0657 3.93505C25.0598 3.97682 25.0456 4.01694 25.0239 4.05294C25.0022 4.08895 24.9734 4.12009 24.9394 4.14446C24.8843 4.18444 24.8185 4.20666 24.7507 4.20821Z" fill="#F8FAFD"/>
<path d="M19.256 37.2339L19.2351 37.8077L20.0739 37.6377L19.8223 37.1276C19.8589 37.0802 19.8837 37.0245 19.8946 36.9654C19.9056 36.9062 19.9023 36.8452 19.8852 36.7876C19.8751 36.7308 19.854 36.6767 19.8231 36.6283C19.7921 36.58 19.7519 36.5383 19.7049 36.5059C19.6579 36.4734 19.6049 36.4508 19.5492 36.4394C19.4934 36.4279 19.436 36.4278 19.3802 36.4391C19.3244 36.4504 19.2714 36.4729 19.2243 36.5052C19.1772 36.5375 19.1369 36.579 19.1058 36.6273C19.0747 36.6756 19.0535 36.7297 19.0432 36.7864C19.033 36.8431 19.0341 36.9013 19.0463 36.9576C19.0918 37.0663 19.164 37.1615 19.256 37.2339ZM17.767 38.1052L15.6488 38.5515C15.6208 38.5566 15.5941 38.5673 15.5703 38.583C15.5464 38.5987 15.5259 38.619 15.5099 38.6428C15.4938 38.6667 15.4827 38.6935 15.477 38.7217C15.4714 38.75 15.4713 38.7791 15.4769 38.8074C15.4825 38.8356 15.4936 38.8625 15.5095 38.8863C15.5255 38.9102 15.5459 38.9306 15.5698 38.9464C15.5936 38.9621 15.6203 38.9729 15.6482 38.9781C15.6762 38.9833 15.7049 38.9827 15.7327 38.9765L17.8509 38.5302C17.8787 38.5252 17.9052 38.5145 17.9288 38.4988C17.9525 38.4831 17.9727 38.4628 17.9884 38.4389C18.0041 38.4151 18.0148 38.3883 18.02 38.3602C18.0252 38.3321 18.0248 38.3032 18.0187 38.2752C18.004 38.2209 17.9704 38.1738 17.9242 38.1426C17.8779 38.1113 17.8221 38.0981 17.767 38.1052ZM17.6622 35.4699L20.6192 34.8536C20.6472 34.8485 20.6739 34.8378 20.6978 34.8222C20.7217 34.8065 20.7422 34.7861 20.7582 34.7623C20.7742 34.7385 20.7854 34.7116 20.791 34.6834C20.7967 34.6551 20.7967 34.626 20.7911 34.5978C20.7856 34.5695 20.7745 34.5427 20.7585 34.5188C20.7426 34.4949 20.7221 34.4745 20.6983 34.4588C20.6745 34.443 20.6478 34.4322 20.6198 34.427C20.5918 34.4219 20.5631 34.4224 20.5353 34.4286L17.5783 35.0449C17.5505 35.05 17.524 35.0606 17.5003 35.0763C17.4767 35.092 17.4564 35.1124 17.4408 35.1362C17.4251 35.16 17.4143 35.1868 17.4091 35.2149C17.4039 35.2431 17.4044 35.272 17.4105 35.2999C17.4155 35.3281 17.426 35.355 17.4415 35.3789C17.457 35.4029 17.4771 35.4234 17.5006 35.4393C17.5241 35.4551 17.5505 35.466 17.5783 35.4713C17.606 35.4766 17.6346 35.4761 17.6622 35.4699ZM26.2607 39.8904L25.2121 34.7686L24.6039 31.7721L12.7966 34.2586L13.4048 37.2551L14.4534 42.3769C14.4762 42.4893 14.5418 42.5881 14.6361 42.6518C14.7303 42.7154 14.8456 42.7388 14.9568 42.7169L25.9252 40.4217C26.0362 40.3911 26.132 40.3198 26.194 40.2216C26.2561 40.1234 26.2798 40.0053 26.2607 39.8904ZM24.2684 32.2821L24.7088 34.4286L24.2893 34.5136L23.8489 32.3672L24.2684 32.2821ZM23.4295 32.4734L23.5134 32.8985L22.4648 33.111C22.4368 33.1161 22.4101 33.1268 22.3862 33.1425C22.3623 33.1581 22.3418 33.1785 22.3258 33.2023C22.3098 33.2261 22.2986 33.253 22.293 33.2812C22.2873 33.3095 22.2873 33.3386 22.2928 33.3668C22.2984 33.3951 22.3095 33.422 22.3254 33.4458C22.3414 33.4697 22.3619 33.4901 22.3857 33.5059C22.4095 33.5216 22.4362 33.5324 22.4642 33.5376C22.4922 33.5427 22.5209 33.5422 22.5487 33.536L23.5973 33.3235L23.8489 34.5986L20.4724 35.2999L17.9348 35.8312L14.5583 36.5325L14.3066 35.2574L16.6345 34.7686C16.6625 34.7635 16.6892 34.7528 16.7131 34.7371C16.737 34.7215 16.7575 34.7011 16.7735 34.6773C16.7895 34.6535 16.8007 34.6266 16.8063 34.5984C16.812 34.5701 16.812 34.541 16.8065 34.5128C16.8009 34.4845 16.7898 34.4576 16.7738 34.4338C16.7579 34.4099 16.7374 34.3895 16.7136 34.3737C16.6898 34.358 16.6631 34.3472 16.6351 34.342C16.6071 34.3369 16.5784 34.3374 16.5506 34.3436L14.2227 34.8324L14.1388 34.4073L23.4295 32.4734ZM20.8289 37.0213L20.7451 36.5963L24.1216 35.895L24.3732 37.1701L21.6259 37.7439C21.5979 37.749 21.5712 37.7597 21.5473 37.7754C21.5234 37.7911 21.5029 37.8114 21.4869 37.8353C21.4709 37.8591 21.4597 37.8859 21.4541 37.9142C21.4484 37.9424 21.4484 37.9715 21.4539 37.9998C21.4595 38.028 21.4706 38.0549 21.4866 38.0788C21.5025 38.1026 21.523 38.123 21.5468 38.1388C21.5706 38.1546 21.5973 38.1653 21.6253 38.1705C21.6533 38.1757 21.682 38.1752 21.7098 38.169L24.4571 37.5951L24.6249 38.4452L23.5763 38.6578C23.5216 38.67 23.4738 38.7034 23.4432 38.751C23.4126 38.7985 23.4016 38.8563 23.4126 38.912C23.4236 38.9676 23.4556 39.0167 23.5019 39.0486C23.5482 39.0806 23.605 39.0928 23.6602 39.0828L24.7088 38.8703L24.7927 39.2953L15.523 41.2505L15.3552 40.4004L19.7803 39.4653C19.8083 39.4602 19.835 39.4495 19.8589 39.4338C19.8828 39.4182 19.9033 39.3978 19.9193 39.374C19.9353 39.3502 19.9465 39.3233 19.9521 39.2951C19.9578 39.2668 19.9578 39.2377 19.9523 39.2095C19.9467 39.1812 19.9356 39.1543 19.9197 39.1305C19.9037 39.1066 19.8832 39.0862 19.8594 39.0704C19.8356 39.0547 19.8089 39.0439 19.7809 39.0387C19.7529 39.0336 19.7242 39.0341 19.6964 39.0403L15.2713 39.9754L14.8519 37.8289L18.2284 37.1276L18.3123 37.5526C18.3439 37.7229 18.4086 37.885 18.5028 38.0296C18.597 38.1742 18.7187 38.2983 18.8607 38.3946C19.0028 38.491 19.1624 38.5576 19.3302 38.5907C19.498 38.6238 19.6706 38.6227 19.8379 38.5873C20.0053 38.552 20.164 38.4832 20.3048 38.385C20.4456 38.2867 20.5657 38.161 20.6579 38.0152C20.7502 37.8694 20.8129 37.7064 20.8422 37.5357C20.8716 37.3651 20.8671 37.1902 20.8289 37.0213ZM18.4591 36.1713L20.1369 35.81L20.2208 36.235L20.3046 36.6601L20.3885 37.0851C20.4285 37.3104 20.3802 37.5426 20.2539 37.7324C20.1276 37.9222 19.9334 38.0547 19.7123 38.1017C19.4912 38.1487 19.2608 38.1066 19.0699 37.9842C18.879 37.8619 18.7426 37.6689 18.6898 37.4464L18.6059 37.0213L18.522 36.5963L18.4591 36.1713ZM13.3 34.5986L13.7194 34.5136L14.1598 36.6601L13.7404 36.7451L13.3 34.5986ZM14.8729 42.2919L13.8243 37.1701L18.0397 36.2775L18.1235 36.7026L14.3276 37.4889L15.2084 41.7605L25.3379 39.6353L24.4571 35.3637L20.6612 36.15L20.5773 35.725L24.7927 34.8324L25.8413 39.9541L14.8729 42.2919Z" fill="#2A2F5A"/>
</svg>
